<svg width="94" height="95" viewBox="0 0 94 95" fill="none" xmlns="http://www.w3.org/2000/svg">
<rect x="0.5" y="1.10742" width="93.01" height="93.01" rx="46.505" stroke="white"/>
<g clip-path="url(#clip0_15053_26811)">
<path d="M73.6746 44.7449C75.2562 44.7449 76.5367 46.0255 76.5367 47.6074C76.5367 49.1893 75.2562 50.4699 73.6746 50.4699C72.0929 50.4699 70.8125 49.1893 70.8125 47.6074C70.8125 46.0255 72.0929 44.7449 73.6746 44.7449Z" stroke="#C8FF08" stroke-width="0.93" stroke-linecap="round" stroke-linejoin="round"/>
<path d="M20.2649 44.7449C21.8466 44.7449 23.127 46.0255 23.127 47.6074C23.127 49.1893 21.8466 50.4699 20.2649 50.4699C18.6832 50.4699 17.4028 49.1893 17.4028 47.6074C17.4028 46.0255 18.6832 44.7449 20.2649 44.7449Z" stroke="#C8FF08" stroke-width="0.93" stroke-linecap="round" stroke-linejoin="round"/>
<path d="M46.9651 71.4586C48.5468 71.4586 49.8272 72.7392 49.8272 74.3211C49.8272 75.9031 48.5468 77.1837 46.9651 77.1837C45.3834 77.1837 44.103 75.9031 44.103 74.3211C44.103 72.7392 45.3834 71.4586 46.9651 71.4586Z" stroke="#C8FF08" stroke-width="0.93" stroke-linecap="round" stroke-linejoin="round"/>
<path d="M46.9651 18.0406C48.5468 18.0406 49.8272 19.3212 49.8272 20.9031C49.8272 22.485 48.5468 23.7656 46.9651 23.7656C45.3834 23.7656 44.103 22.485 44.103 20.9031C44.103 19.3212 45.3834 18.0406 46.9651 18.0406Z" stroke="#C8FF08" stroke-width="0.93" stroke-linecap="round" stroke-linejoin="round"/>
<path d="M46.9651 44.7449C48.5468 44.7449 49.8272 46.0255 49.8272 47.6074C49.8272 49.1893 48.5468 50.4699 46.9651 50.4699C45.3834 50.4699 44.103 49.1893 44.103 47.6074C44.103 46.0255 45.3834 44.7449 46.9651 44.7449Z" stroke="#C8FF08" stroke-width="0.93" stroke-linecap="round" stroke-linejoin="round"/>
<path d="M32.5322 25.1404C35.0836 23.4925 37.9363 22.2779 40.9866 21.5811" stroke="#C8FF08" stroke-width="0.93" stroke-linecap="round" stroke-linejoin="round"/>
<path d="M22.8447 36.1385C24.5111 32.6263 26.9307 29.5378 29.8869 27.0801" stroke="#C8FF08" stroke-width="0.93" stroke-linecap="round" stroke-linejoin="round"/>
<path d="M30.2258 68.4172C26.7612 65.63 24.0027 61.9859 22.2798 57.8146" stroke="#C8FF08" stroke-width="0.93" stroke-linecap="round" stroke-linejoin="round"/>
<path d="M40.1958 73.4455C37.4467 72.7298 34.8671 71.5811 32.5322 70.0745" stroke="#C8FF08" stroke-width="0.93" stroke-linecap="round" stroke-linejoin="round"/>
<path d="M57.5659 72.1272C56.615 72.5415 55.6547 72.8899 54.6567 73.1912" stroke="#C8FF08" stroke-width="0.93" stroke-linecap="round" stroke-linejoin="round"/>
<path d="M71.9143 57.1555C69.8242 62.6357 65.9736 67.2402 61.0591 70.3005" stroke="#C8FF08" stroke-width="0.93" stroke-linecap="round" stroke-linejoin="round"/>
<path d="M58.9219 23.7185C63.5727 26.0537 67.4422 29.7072 70.0501 34.1799" stroke="#C8FF08" stroke-width="0.93" stroke-linecap="round" stroke-linejoin="round"/>
<path d="M52.9526 21.5717C54.0165 21.8165 55.0427 22.1178 56.0501 22.485" stroke="#C8FF08" stroke-width="0.93" stroke-linecap="round" stroke-linejoin="round"/>
<path d="M54.1862 59.114L57.1518 62.0895L61.4543 57.7863L58.4887 54.8202C59.2795 53.5585 59.8727 52.1555 60.221 50.6489H64.42V44.566H60.2304C59.8915 43.0594 59.2984 41.6658 58.4981 40.3946L61.4637 37.4285L57.1612 33.1253L54.1956 36.0914C52.9246 35.3005 51.5218 34.6978 50.0249 34.3588V30.1686H43.943V34.3588C42.4366 34.6978 41.0338 35.291 39.7722 36.0914L36.8066 33.1253L32.5041 37.4285L35.4697 40.3946C34.6789 41.6658 34.0763 43.0594 33.7374 44.566H29.5479V50.6489H33.7374C34.0763 52.146 34.6789 53.5491 35.4697 54.8202L32.5041 57.7863L36.8066 62.0895L39.7722 59.1234" stroke="#C8FF08" stroke-width="0.93" stroke-linecap="round" stroke-linejoin="round"/>
<path d="M29.5478 47.6074H23.127" stroke="#C8FF08" stroke-width="0.93" stroke-linecap="round" stroke-linejoin="round"/>
<path d="M70.8124 47.6074H64.3916" stroke="#C8FF08" stroke-width="0.93" stroke-linecap="round" stroke-linejoin="round"/>
<path d="M46.9648 50.47V59.453" stroke="#C8FF08" stroke-width="0.93" stroke-linecap="round" stroke-linejoin="round"/>
<path d="M42.9263 60.3287H51.0135" stroke="#C8FF08" stroke-width="0.93" stroke-linecap="round" stroke-linejoin="round"/>
<path d="M42.9263 62.7204H51.0135" stroke="#C8FF08" stroke-width="0.93" stroke-linecap="round" stroke-linejoin="round"/>
<path d="M46.9648 30.1874V23.7185" stroke="#C8FF08" stroke-width="0.93" stroke-linecap="round" stroke-linejoin="round"/>
<path d="M46.9648 71.0726V66.8165" stroke="#C8FF08" stroke-width="0.93" stroke-linecap="round" stroke-linejoin="round"/>
<path d="M56.295 47.6074C56.295 42.4568 52.1242 38.2854 46.9744 38.2854C41.8245 38.2854 37.6538 42.4568 37.6538 47.6074C37.6538 51.308 39.8192 54.5001 42.9449 56.0067H42.9261V65.5453H51.0227V56.0067C54.1484 54.5001 56.3138 51.308 56.3138 47.6074H56.295Z" stroke="#C8FF08" stroke-width="0.93" stroke-linecap="round" stroke-linejoin="round"/>
</g>
<defs>
<clipPath id="clip0_15053_26811">
<rect width="60" height="60" fill="white" transform="translate(16.9697 17.6074)"/>
</clipPath>
</defs>
</svg>
