<svg width="94" height="95" viewBox="0 0 94 95" fill="none" xmlns="http://www.w3.org/2000/svg">
<rect x="0.5" y="1.10742" width="93.01" height="93.01" rx="46.505" stroke="white"/>
<g clip-path="url(#clip0_15053_26786)">
<path d="M38.5059 39.2969H55.388M38.5059 51.4984H55.388M38.5059 26.7377H55.388" stroke="#C8FF08" stroke-width="0.96" stroke-linecap="round" stroke-linejoin="round"/>
<path d="M38.506 39.2969L55.3882 26.7377M55.3882 39.2969L38.506 26.7377M38.506 51.7714L55.3882 39.2028M55.3882 51.7714L38.506 39.2028M33.748 71.1751L55.7417 53.193M59.7831 71.1751L37.7894 53.193" stroke="#C8FF08" stroke-width="0.96" stroke-linecap="round" stroke-linejoin="round"/>
<path d="M38.5155 39.9653L28.1206 49.9167V53.3531M38.5155 26.3705L28.1206 36.3313M28.1206 36.3313V39.7676M28.1206 36.3313H38.2671M28.1206 50.4816H38.2671M61.369 76.1555L55.3881 51.7808V26.2481L48.3276 17.0593H45.6333L38.5155 26.2481V51.7714L32.5346 76.1461M55.3786 39.9653L65.7735 49.9167V53.3531M55.3786 26.3705L65.7735 36.3218M65.7735 36.3218V39.7582M65.7735 36.3218H55.627M65.7735 50.4722H55.627" stroke="#C8FF08" stroke-width="0.96" stroke-linecap="round" stroke-linejoin="round"/>
<path d="M38.5059 39.2969H55.388M38.5059 51.4984H55.388M38.5059 26.7377H55.388" stroke="#C8FF08" stroke-width="0.96" stroke-linecap="round" stroke-linejoin="round"/>
<path d="M26.439 76.1461H67.5218" stroke="#C8FF08" stroke-width="0.96" stroke-linecap="round" stroke-linejoin="round"/>
</g>
<defs>
<clipPath id="clip0_15053_26786">
<rect width="42" height="60" fill="white" transform="translate(25.9805 16.6074)"/>
</clipPath>
</defs>
</svg>
