<svg width="94" height="95" viewBox="0 0 94 95" fill="none" xmlns="http://www.w3.org/2000/svg">
<rect x="0.5" y="1.10742" width="93.01" height="93.01" rx="46.505" stroke="white"/>
<g clip-path="url(#clip0_15053_26744)">
<path d="M65.1199 51.1374C66.2799 51.7474 68.3899 52.7374 70.3399 53.1374C70.7599 53.2274 71.1999 53.3074 71.5899 53.3574C73.2299 53.4774 74.6499 53.3074 75.7899 53.0174C75.8899 53.0174 76.0099 52.9874 76.1099 52.9474C76.5799 52.8074 76.9899 52.6774 77.3299 52.5374C76.2299 56.3874 73.2999 59.2474 72.5699 60.0574M63.6799 55.5974C64.6399 56.4774 66.3999 57.9574 68.1999 58.8474C68.5899 59.0674 68.9799 59.2374 69.3799 59.3774C70.9199 59.9374 72.3699 60.1374 73.5399 60.1574H73.6299C73.6299 60.1574 73.6599 60.1774 73.6799 60.1774C73.6999 60.1774 73.7299 60.1574 73.7699 60.1574C74.2799 60.1574 74.7499 60.1274 75.1399 60.0874C73.1999 63.4874 69.1499 65.4374 68.2299 66.0174M61.1499 59.5274C61.8699 60.6374 63.1799 62.4974 64.6399 63.8174C64.9599 64.1374 65.2999 64.3974 65.6499 64.6474C66.9899 65.5774 68.3099 66.1374 69.4399 66.4474C69.5099 66.4774 69.5899 66.4974 69.6399 66.4974C70.1799 66.6474 70.6399 66.7374 71.0299 66.7874C67.4999 69.7174 64.0799 70.4074 63.0599 70.7474M57.6899 62.6774C58.0899 63.9374 58.8599 66.0474 59.9299 67.7174C60.1699 68.0874 60.4199 68.4474 60.6899 68.7374C61.7499 69.9974 62.8899 70.8774 63.8699 71.4574C63.8999 71.4874 63.9199 71.4874 63.9399 71.5074C63.9899 71.5574 64.0599 71.5974 64.1399 71.6274C64.5799 71.8674 64.9999 72.0674 65.3399 72.2074C62.4099 73.8274 57.6199 74.0674 56.5499 74.1474M53.4999 64.8174C53.5499 66.1274 53.7599 68.3674 54.3699 70.2374C54.4899 70.6474 54.6399 71.0574 54.8099 71.4374C55.5199 72.9274 56.3999 74.0674 57.2099 74.9174C57.2399 74.9474 57.2599 74.9674 57.2799 74.9874C57.3099 75.0174 57.3299 75.0374 57.3799 75.0774C57.7499 75.4274 58.0899 75.7374 58.4099 75.9774C54.6499 76.9474 50.4299 75.6574 49.3499 75.4474M48.8999 65.8074C48.6299 67.0874 48.2399 69.2974 48.3299 71.2674C48.3599 71.7074 48.3799 72.1174 48.4499 72.5274C48.7499 74.1374 49.3099 75.4774 49.8699 76.4974C49.8699 76.5274 49.8999 76.5674 49.9199 76.5874C49.9199 76.6374 49.9699 76.6574 49.9899 76.7074C50.2299 77.1474 50.4999 77.5274 50.7199 77.8274C46.6199 77.8274 43.0399 75.2774 42.0799 74.7874M44.2199 65.5674C43.6099 66.7274 42.6499 68.7674 42.2499 70.6874C42.1499 71.0974 42.0799 71.5374 42.0299 71.9474C41.8799 73.5774 42.0799 75.0174 42.3699 76.1274V76.2174C42.3699 76.2174 42.4199 76.3074 42.4199 76.3674C42.5699 76.8574 42.7199 77.2974 42.8599 77.6574C39.3199 76.5474 36.1799 73.3074 35.3799 72.5774M39.7499 64.1074C38.8599 65.0974 37.3999 66.8274 36.5299 68.5774C36.3099 68.9674 36.1099 69.3574 35.9899 69.7174C35.3999 71.2774 35.2299 72.7174 35.2099 73.8774V74.1174C35.2099 74.6274 35.2399 75.0674 35.2899 75.4574C32.3699 73.6974 29.9799 69.3374 29.3899 68.4374M35.8399 61.5574C34.7299 62.2774 32.8499 63.5674 31.5299 65.0474C31.2099 65.3674 30.9399 65.6874 30.6999 66.0174C29.7499 67.3874 29.2099 68.7174 28.8899 69.8374C28.8599 69.8674 28.8399 69.8874 28.8399 69.9074C28.8399 69.9574 28.8099 70.0074 28.8099 70.0474C28.6899 70.5374 28.5899 70.9974 28.5399 71.3574C26.0199 68.9274 24.8499 64.5074 24.5099 63.4874M32.6999 58.0774C31.4399 58.4774 29.2699 59.2674 27.6099 60.3374C27.2499 60.5574 26.8799 60.7974 26.5599 61.0674C25.2899 62.1374 24.4299 63.2874 23.8199 64.2874C23.7899 64.3074 23.7699 64.3374 23.7699 64.3574C23.7199 64.4074 23.7199 64.4474 23.6999 64.4774C23.4599 64.9374 23.2299 65.3474 23.0899 65.6974C21.3299 62.9174 21.1799 58.0674 21.1299 56.9674M30.5999 53.9274C29.2999 53.9974 26.9799 54.1974 25.0699 54.7974C24.6499 54.9474 24.2399 55.0874 23.8699 55.2574C22.3599 55.9374 21.2099 56.8374 20.3699 57.6474C20.3499 57.6774 20.3199 57.6774 20.2999 57.6974C20.2699 57.7474 20.2299 57.7774 20.2099 57.8174C19.8399 58.1774 19.5499 58.5174 19.2999 58.8074C18.5099 54.7074 19.6199 51.0274 19.8299 49.9574M29.6299 49.3974C28.3799 49.1274 26.0899 48.7174 24.0899 48.8174C23.6199 48.8174 23.1799 48.8674 22.7699 48.9374C21.1299 49.2074 19.8099 49.7674 18.7799 50.3274C18.7499 50.3574 18.7099 50.3574 18.6799 50.3774C18.6299 50.3974 18.6099 50.4274 18.5599 50.4574C18.1199 50.7274 17.7299 50.9674 17.4399 51.2174C17.6099 47.4474 19.8099 43.8474 20.3299 42.8674M29.8599 44.7274C28.6799 44.1374 26.5899 43.1574 24.6399 42.7474C24.2299 42.6274 23.7799 42.5474 23.3699 42.5274C21.7299 42.3774 20.2899 42.5774 19.1399 42.8474C19.1099 42.8774 19.0899 42.8774 19.0699 42.8774C19.0199 42.8774 18.9699 42.9074 18.9199 42.9274C18.4299 43.0474 17.9899 43.1974 17.6199 43.3374C18.6599 39.4474 21.9099 36.6174 22.6399 35.8074M31.2899 40.2974C30.2999 39.4174 28.5499 37.9374 26.7599 37.0274C26.3699 36.8074 25.9799 36.6374 25.6099 36.4974C24.0399 35.9374 22.5999 35.7374 21.4299 35.7374C21.3999 35.7074 21.3499 35.7074 21.3299 35.7074C21.2799 35.7074 21.2399 35.7074 21.2099 35.7374C20.6699 35.7374 20.2099 35.7674 19.8399 35.8174C21.6899 32.5674 25.6399 30.3874 26.5599 29.7974M33.8099 36.3674C33.0899 35.2674 31.7999 33.4074 30.2999 32.0674C29.9799 31.7774 29.6399 31.4874 29.3199 31.2674C27.9499 30.3174 26.5999 29.7574 25.4799 29.4374C25.4499 29.4374 25.4299 29.4074 25.4099 29.4074C25.3599 29.3874 25.3199 29.3874 25.2699 29.3574C24.7799 29.2374 24.3199 29.1374 23.9299 29.0874C27.0499 26.3674 31.0499 25.3774 32.0699 25.0574M37.2699 33.2174C36.8699 31.9574 36.0999 29.8374 35.0299 28.1674C34.7899 27.8074 34.5399 27.4674 34.2899 27.1474C33.2199 25.8874 32.0699 25.0074 31.0599 24.3974C31.0299 24.3974 31.0099 24.3674 30.9899 24.3474C30.9399 24.3274 30.8899 24.2974 30.8499 24.2774C30.4099 24.0374 29.9899 23.8374 29.6499 23.6674C33.8199 21.8774 37.0299 21.7974 38.1299 21.7374M41.4499 31.0674C41.3999 29.7574 41.1899 27.5074 40.5999 25.6574C40.4499 25.2174 40.2999 24.8274 40.1299 24.4374C39.4499 22.9474 38.5399 21.8074 37.7299 20.9574C37.6999 20.9274 37.6999 20.9074 37.6799 20.9074C37.6499 20.8574 37.6099 20.8374 37.5799 20.8174C37.2199 20.4574 36.8499 20.1374 36.5499 19.8874C40.3399 19.2174 44.5499 20.0474 45.5299 20.2674M45.9699 30.0874C46.2699 28.7474 46.8999 25.6474 46.4999 23.3774C46.2299 21.7474 45.6699 20.4074 45.0799 19.3874C45.0799 19.3574 45.0799 19.3374 45.0499 19.3174C45.0199 19.2674 44.9999 19.2274 44.9799 19.1974C44.7099 18.7274 44.4499 18.3474 44.2199 18.0574C47.9599 18.0574 51.4799 20.3274 52.4799 20.8174M50.7699 30.3374C51.3699 29.1774 52.3199 27.1374 52.7199 25.2174C52.8399 24.8074 52.9199 24.3674 52.9399 23.9774C53.0899 22.3174 52.8899 20.8874 52.5899 19.7374C52.5899 19.6674 52.5599 19.5974 52.5399 19.5374C52.3899 19.0274 52.2399 18.5874 52.1199 18.2474C54.8599 19.0474 58.2399 21.6774 59.6299 23.1574M55.2299 31.7974C56.1199 30.8274 57.5699 29.0874 58.4699 27.3674C58.6699 26.9774 58.8599 26.5874 59.0099 26.1974C59.5699 24.6474 59.7399 23.2074 59.7699 22.0574C59.7699 22.0074 59.7999 21.9874 59.7999 21.9674C59.7999 21.9174 59.7999 21.8774 59.7699 21.8174C59.7699 21.3074 59.7399 20.8474 59.6999 20.4574C63.0799 22.4074 64.9899 26.0474 65.5799 26.9474M59.1399 34.3374C60.2299 33.6474 62.1099 32.3274 63.4499 30.8774C63.7399 30.5374 64.0399 30.2174 64.2599 29.8874C65.2099 28.5474 65.7699 27.2074 66.0899 26.0874C66.0899 26.0674 66.1199 26.0174 66.1199 25.9974C66.1499 25.9474 66.1499 25.8974 66.1499 25.8574C66.2999 25.3674 66.3899 24.9074 66.4499 24.5474C68.8599 27.0474 70.0199 31.5474 70.3399 32.5974M62.2799 37.8174C63.5399 37.4174 65.6899 36.6274 67.3399 35.5574C67.7299 35.3374 68.0699 35.0974 68.3999 34.8274C69.6699 33.7774 70.5499 32.6074 71.1599 31.6074C71.1599 31.5874 71.1899 31.5574 71.2099 31.5374C71.2299 31.5074 71.2599 31.4674 71.2599 31.4174C71.5299 30.9774 71.7299 30.5674 71.8999 30.1974C73.4799 33.3174 73.5399 38.0674 73.5899 39.1374M64.3799 41.9674C65.6799 41.8974 67.9999 41.6974 69.9099 41.0974C70.3299 40.9774 70.7199 40.8274 71.0899 40.6574C72.5999 39.9574 73.7499 39.0774 74.5899 38.2474C74.6199 38.2474 74.6599 38.2174 74.6599 38.1974C74.7099 38.1774 74.7299 38.1274 74.7599 38.1074C75.1299 37.7374 75.4399 37.4074 75.6599 37.0874C76.4899 41.1774 75.3899 44.7574 75.1499 45.8374M65.3499 46.5074C66.6299 46.7974 68.9199 47.2074 70.9099 47.1074C71.3499 47.0774 71.7899 47.0574 72.1799 46.9874C73.7899 46.6974 75.1199 46.1574 76.1499 45.5974C76.1499 45.5974 76.1699 45.5674 76.1999 45.5674C76.2699 45.5374 76.3499 45.4974 76.4199 45.4474C76.8599 45.1774 77.2199 44.9374 77.5399 44.7174C77.2899 48.7874 75.0099 52.3174 74.4999 53.2974" stroke="#C8FF08" stroke-width="0.88" stroke-linecap="round" stroke-linejoin="round"/>
<path d="M47.4901 29.7574C57.1201 29.7574 64.9201 37.5674 64.9201 47.1874C64.9201 56.8074 57.1201 64.6174 47.4901 64.6174C37.8601 64.6174 30.0601 56.8174 30.0601 47.1874C30.0601 37.5574 37.8601 29.7574 47.4901 29.7574Z" stroke="#C8FF08" stroke-width="0.88" stroke-linecap="round" stroke-linejoin="round"/>
<path d="M47.4902 34.1874C54.6702 34.1874 60.4902 40.0074 60.4902 47.1874C60.4902 54.3674 54.6702 60.1874 47.4902 60.1874C40.3102 60.1874 34.4902 54.3674 34.4902 47.1874C34.4902 40.0074 40.3102 34.1874 47.4902 34.1874Z" stroke="#C8FF08" stroke-width="0.88" stroke-linecap="round" stroke-linejoin="round"/>
</g>
<defs>
<clipPath id="clip0_15053_26744">
<rect width="60.98" height="60.67" fill="white" transform="translate(17 17.6074)"/>
</clipPath>
</defs>
</svg>
