<svg width="94" height="95" viewBox="0 0 94 95" fill="none" xmlns="http://www.w3.org/2000/svg">
<rect x="0.5" y="1.10742" width="93.01" height="93.01" rx="46.505" stroke="white"/>
<g clip-path="url(#clip0_15053_26767)">
<path d="M50.8613 75.6832L49.4407 39.7655C50.0635 39.3569 50.4624 38.6564 50.4624 37.8878C50.4624 36.6523 49.4504 35.6406 48.205 35.6406C46.9595 35.6406 45.9378 36.6426 45.9378 37.8878C45.9378 38.6564 46.327 39.3569 46.9497 39.7655L45.3248 75.693M53.2258 39.6293L59.5019 42.1295C60.3582 42.47 61.1172 42.9953 61.7302 43.6666L67.6949 50.1361C67.8214 50.282 67.6463 50.4863 67.4906 50.3793L52.6809 40.6702C52.4085 40.4951 52.3404 40.1449 52.5058 39.8725C52.6517 39.639 52.9534 39.5417 53.2161 39.639L53.2258 39.6293ZM26.5062 45.4469L43.1062 39.4347C43.4079 39.3277 43.7387 39.4736 43.8457 39.7752C43.943 40.0379 43.8457 40.3394 43.6122 40.4854L37.8907 43.9974C37.1026 44.4741 36.2268 44.7757 35.3122 44.8729L26.5743 45.768C26.3797 45.7874 26.3213 45.515 26.4965 45.4567L26.5062 45.4469ZM47.3681 32.8971L46.0351 26.3401C45.8502 25.4353 45.8697 24.5014 46.1032 23.6063L48.2731 15.1328C48.3217 14.9479 48.5942 14.9869 48.5942 15.1717L48.5358 32.7901C48.5358 33.1111 48.2731 33.3641 47.9617 33.3738C47.6795 33.3738 47.4362 33.1792 47.3876 32.9068L47.3681 32.8971Z" stroke="#C8FF08" stroke-width="0.83" stroke-linecap="round" stroke-linejoin="round"/>
<path d="M33.327 40.0768C33.22 39.3568 33.1616 38.6272 33.1616 37.8781C33.1616 31.3016 37.3943 25.7077 43.2812 23.6744M43.8748 52.2763C40.9946 51.4105 38.4647 49.6983 36.5964 47.4315M59.025 48.3071C57.3222 50.068 55.2009 51.4202 52.7975 52.1888M51.4839 23.2075C58.2076 24.7057 63.2285 30.7082 63.2285 37.8781C63.2285 38.8315 63.1409 39.7752 62.9658 40.6799M51.1726 26.4373C56.2616 27.7507 60.0175 32.3717 60.0175 37.8684C60.0175 38.384 59.9883 38.8899 59.9202 39.3958M36.4602 39.0844C36.4213 38.6856 36.4018 38.277 36.4018 37.8684C36.4018 32.9749 39.3793 28.7819 43.6121 26.9919M44.3808 49.0465C42.4541 48.3849 40.7513 47.237 39.4183 45.7582M56.3686 46.41C55.1328 47.5872 53.6344 48.5114 51.9705 49.0659" stroke="#C8FF08" stroke-width="0.83" stroke-linecap="round" stroke-linejoin="round"/>
<path d="M45.1459 75.1582C45.6422 75.7906 46.4011 76.1992 47.2671 76.1992C48.1331 76.1992 48.8921 75.7906 49.3884 75.1582C49.8846 75.7906 50.6436 76.1992 51.5096 76.1992C52.3756 76.1992 53.1346 75.7906 53.6308 75.1582C54.1271 75.7906 54.886 76.1992 55.752 76.1992C56.618 76.1992 57.377 75.7906 57.8733 75.1582C58.3695 75.7906 59.1285 76.1992 59.9945 76.1992C60.8605 76.1992 61.6194 75.7906 62.1157 75.1582C62.6119 75.7906 63.3709 76.1992 64.2369 76.1992C65.1029 76.1992 65.8619 75.7906 66.3581 75.1582C66.8544 75.7906 67.6134 76.1992 68.4794 76.1992C69.3454 76.1992 70.1043 75.7906 70.6006 75.1582M23.9531 75.1582C24.4494 75.7906 25.2083 76.1992 26.0743 76.1992C26.9404 76.1992 27.6993 75.7906 28.1956 75.1582C28.6918 75.7906 29.4508 76.1992 30.3168 76.1992C31.1828 76.1992 31.9418 75.7906 32.438 75.1582C32.9343 75.7906 33.6932 76.1992 34.5592 76.1992C35.4253 76.1992 36.1842 75.7906 36.6805 75.1582C37.1767 75.7906 37.9357 76.1992 38.8017 76.1992C39.6677 76.1992 40.4267 75.7906 40.9229 75.1582C41.4192 75.7906 42.1781 76.1992 43.0441 76.1992C43.9101 76.1992 44.6691 75.7906 45.1654 75.1582" stroke="#C8FF08" stroke-width="0.83" stroke-linecap="round" stroke-linejoin="round"/>
</g>
<defs>
<clipPath id="clip0_15053_26767">
<rect width="48" height="62" fill="white" transform="translate(25.9902 14.6074)"/>
</clipPath>
</defs>
</svg>
