<svg width="94" height="95" viewBox="0 0 94 95" fill="none" xmlns="http://www.w3.org/2000/svg">
<rect x="0.5" y="1.09717" width="93.01" height="93.01" rx="46.505" stroke="#119498"/>
<path d="M76.9908 44.9838C76.9269 43.7809 76.389 42.6755 75.4789 41.865C73.5949 40.1982 70.6962 40.35 69.0069 42.1943C68.3382 42.9246 67.9428 43.8268 67.8556 44.789L63.1339 44.9551C64.6254 41.2664 64.762 37.2197 63.4973 33.3936C60.5317 24.4467 50.7335 19.5294 41.6448 22.4305C37.2429 23.8339 33.6609 26.8438 31.5617 30.902C31.5152 30.9936 31.4745 31.0853 31.428 31.1769L26.0986 31.3716C25.9271 30.3721 25.4241 29.4614 24.6478 28.7741C23.7377 27.9693 22.5631 27.5569 21.342 27.6199C20.118 27.6829 18.9957 28.207 18.1758 29.1034C17.3559 29.9998 16.9401 31.1569 17.007 32.3597C17.0709 33.5625 17.6088 34.668 18.5189 35.4785C18.8241 35.7477 19.1527 35.9682 19.5016 36.1429C21.3042 37.0479 23.5749 36.6928 24.9909 35.1463C25.6596 34.4131 26.055 33.5081 26.1422 32.543L30.8872 32.3683C29.4015 36.0513 29.2648 40.0951 30.5296 43.9098C32.0095 48.3832 35.199 51.8514 39.156 53.8361C42.7933 55.6604 47.0818 56.2303 51.2801 55.185L53.5189 61.9524L51.4953 62.5968C51.2074 62.6884 50.9661 62.8918 50.8295 63.1581C50.6928 63.4245 50.6696 63.7338 50.7626 64.0173L54.9232 76.5956C55.3012 77.7325 56.1152 78.6146 57.1212 79.1215C58.1301 79.6256 59.3309 79.7544 60.4881 79.385C61.6133 79.027 62.5262 78.2595 63.0612 77.2285C63.5961 76.1946 63.6892 75.0175 63.3228 73.9092L59.1623 61.3338C58.9675 60.7438 58.322 60.4202 57.7231 60.6121L55.6966 61.2593L53.4578 54.4919C57.3655 52.9626 60.5404 50.1302 62.4651 46.4071C62.5088 46.3212 62.5495 46.2324 62.5931 46.1465L67.8963 45.9604C68.0678 46.9627 68.5708 47.8735 69.35 48.5665C69.6553 48.8357 69.9867 49.0591 70.3415 49.2367C71.048 49.5918 71.8417 49.7608 72.6558 49.7207C73.8798 49.6577 75.0021 49.1307 75.822 48.2372C76.6303 47.3551 77.0577 46.1694 76.9937 44.9809L76.9908 44.9838ZM23.2958 33.6399C22.4468 34.5649 20.9844 34.6365 20.0453 33.8031C19.5888 33.3993 19.3184 32.8408 19.2835 32.2394C19.2486 31.638 19.4609 31.0566 19.8679 30.6098C20.2779 30.1631 20.8448 29.8996 21.4583 29.8681C21.8653 29.848 22.2637 29.9311 22.6184 30.1115C22.7957 30.2003 22.9644 30.3149 23.1156 30.4495C23.572 30.8533 23.8424 31.4089 23.8744 32.0132C23.9093 32.6146 23.7 33.1931 23.29 33.6427L23.2958 33.6399ZM61.151 74.608C61.3283 75.1436 61.2818 75.7106 61.0259 76.2089C60.7672 76.7072 60.3282 77.0767 59.7845 77.2457C58.668 77.6036 57.4614 76.9994 57.098 75.8968L53.2892 64.3925L55.3041 63.7509C55.3041 63.7509 55.3099 63.7509 55.3128 63.7509C55.3157 63.7509 55.3186 63.7481 55.3215 63.7481L57.3364 63.1066L61.1452 74.6137L61.151 74.608ZM42.3513 24.567C46.2967 23.3098 50.3992 23.7479 53.8329 25.472C57.2695 27.1961 60.0374 30.206 61.3225 34.0895C62.5262 37.7295 62.2645 41.6015 60.5927 45.0411L55.2982 45.2272C55.1267 44.2248 54.6237 43.3113 53.8445 42.6211C52.5594 41.4812 50.7888 41.192 49.2594 41.7161L45.8286 35.0518C46.1252 34.8542 46.4014 34.6193 46.6515 34.3472C47.4685 33.4508 47.8842 32.2967 47.8203 31.0938C47.7563 29.8881 47.2184 28.7827 46.3084 27.9751C44.4243 26.314 41.5256 26.4601 39.8364 28.3044C39.1677 29.0347 38.7722 29.9426 38.685 30.9048L34.0709 31.0738C35.9316 27.9808 38.8391 25.6839 42.3484 24.5641L42.3513 24.567ZM49.0705 44.4597C49.7799 43.6836 50.9196 43.506 51.8238 43.9614C51.9983 44.0473 52.1669 44.159 52.3181 44.2964C52.7746 44.7003 53.045 45.2587 53.0799 45.8601C53.1118 46.4644 52.9025 47.0401 52.4955 47.4897C51.6465 48.4147 50.1898 48.4863 49.2449 47.6529C48.7884 47.2463 48.518 46.6907 48.4861 46.0892C48.4541 45.4878 48.6634 44.9065 49.0705 44.4597ZM44.9593 32.8437C44.1103 33.7687 42.645 33.8403 41.7117 33.0069C41.2552 32.6031 40.9848 32.0447 40.9499 31.4432C40.9179 30.839 41.1273 30.2633 41.5343 29.8137C42.2467 29.0376 43.3835 28.86 44.2877 29.3125C44.465 29.4013 44.6308 29.513 44.782 29.6504C45.2384 30.0542 45.5088 30.6098 45.5408 31.2141C45.5728 31.8156 45.3635 32.3941 44.9564 32.8437H44.9593ZM51.6755 52.7392C43.7847 55.2566 35.2746 50.9865 32.7015 43.2168C31.4978 39.5825 31.7594 35.7133 33.4225 32.2766L38.7315 32.0819C38.9031 33.0814 39.4061 33.9893 40.1824 34.6795C40.4876 34.9515 40.8162 35.172 41.1651 35.3467C42.2903 35.9109 43.5986 35.9854 44.7674 35.5844L48.1953 42.2516C47.8988 42.4492 47.6225 42.6812 47.3725 42.9533C46.5526 43.8497 46.1368 45.0038 46.2037 46.2067C46.2677 47.4095 46.8056 48.5178 47.7156 49.3255C48.0209 49.5947 48.3523 49.8181 48.7012 49.9928C50.5038 50.8977 52.7717 50.5426 54.1876 48.9961C54.8563 48.2658 55.2488 47.3637 55.339 46.4043L59.9415 46.2439C58.0807 49.3341 55.179 51.6252 51.6726 52.7421L51.6755 52.7392ZM74.1241 46.7308C73.7141 47.1804 73.1501 47.4439 72.5366 47.4754C71.9231 47.504 71.3329 47.3007 70.8764 46.8969C70.42 46.4902 70.1496 45.9346 70.1147 45.3303C70.0827 44.7289 70.292 44.1504 70.702 43.7036C71.4114 42.9275 72.5482 42.7499 73.4553 43.2053C73.6298 43.2912 73.7984 43.4029 73.9496 43.5404C74.4061 43.947 74.6765 44.5026 74.7085 45.1041C74.7404 45.6969 74.5282 46.2926 74.1241 46.7336V46.7308Z" fill="#119498"/>
</svg>
