<svg width="95" height="95" viewBox="0 0 95 95" fill="none" xmlns="http://www.w3.org/2000/svg">
<rect x="1" y="1.09717" width="93.01" height="93.01" rx="46.505" stroke="#119498"/>
<path d="M37.2734 34.7075C40.1689 34.7075 42.5232 37.0766 42.5232 39.9904C42.5232 42.9042 40.1663 45.2733 37.2734 45.2733C34.3805 45.2733 32.0236 42.9015 32.0236 39.9904C32.0236 37.0793 34.3805 34.7075 37.2734 34.7075ZM37.2734 47.8301C41.5694 47.8301 45.064 44.3135 45.064 39.9904C45.064 35.6673 41.5694 32.1507 37.2734 32.1507C32.9774 32.1507 29.4827 35.6673 29.4827 39.9904C29.4827 44.3135 32.9774 47.8301 37.2734 47.8301Z" fill="#119498"/>
<path d="M31.9158 52.0289H42.6335C44.7435 52.0289 46.7299 52.8565 48.2223 54.3583C49.7147 55.8602 50.5372 57.8591 50.5372 59.9823L50.4899 70.0403H46.6143V60.0563C46.6143 59.4746 46.1466 59.004 45.5685 59.004C44.9904 59.004 44.5227 59.4746 44.5227 60.0563V70.0403H29.932V60.0563C29.932 59.4746 29.4643 59.004 28.8863 59.004C28.3082 59.004 27.8405 59.4746 27.8405 60.0563V70.0403H24.0122V59.9849C24.0122 55.5984 27.5594 52.0289 31.9185 52.0289M50.0195 52.5498C48.0463 50.5641 45.424 49.4721 42.6335 49.4721H31.9158C26.1563 49.4721 21.4688 54.1891 21.4688 59.9849V70.0536C21.4688 71.4549 22.6038 72.5972 23.9964 72.5972H50.5056C51.8956 72.5972 53.0254 71.4629 53.0307 70.0641C53.0307 70.0641 53.0307 70.0615 53.0307 70.0589L53.078 59.9876V59.9796C53.078 57.1716 51.9902 54.5328 50.0169 52.5471" fill="#119498"/>
<path d="M58.6615 21.154C61.557 21.154 63.9113 23.5231 63.9113 26.4369C63.9113 29.3506 61.5544 31.7197 58.6615 31.7197C55.7686 31.7197 53.4117 29.3506 53.4117 26.4369C53.4117 23.5231 55.7686 21.154 58.6615 21.154ZM58.6615 34.2765C62.9575 34.2765 66.4521 30.7599 66.4521 26.4369C66.4521 22.1138 62.9575 18.5972 58.6615 18.5972C54.3655 18.5972 50.8709 22.1138 50.8709 26.4369C50.8709 30.7599 54.3655 34.2765 58.6615 34.2765Z" fill="#119498"/>
<path d="M74.4688 46.4314C74.4688 40.6356 69.7812 35.9185 64.0217 35.9212H53.304C50.8682 35.9212 48.4982 36.7831 46.6248 38.3484C46.0835 38.8006 46.0099 39.607 46.4592 40.1517C46.7088 40.4558 47.0714 40.6118 47.4367 40.6118C47.7231 40.6118 48.0095 40.5166 48.2486 40.3156C49.6648 39.1311 51.4594 38.478 53.3013 38.478H64.019C68.3781 38.478 71.9253 42.0448 71.9253 46.4314V56.4894L68.0497 56.5V46.5054C68.0497 45.9237 67.5794 45.4531 67.0039 45.4531C66.4285 45.4531 65.9582 45.9237 65.9582 46.5054V56.5053L55.2194 56.537C54.5179 56.537 53.9503 57.1134 53.953 57.8194C53.953 58.5254 54.5231 59.0939 55.2221 59.0939H55.2273L71.9437 59.0463H71.9463C73.3363 59.0436 74.4661 57.904 74.4661 56.5027V46.434L74.4688 46.4314Z" fill="#119498"/>
</svg>
