<svg width="94" height="95" viewBox="0 0 94 95" fill="none" xmlns="http://www.w3.org/2000/svg">
<path d="M55.5175 41.5705C54.4047 36.9142 51.2163 33.0705 46.9902 31.0564C42.73 33.0841 39.5279 36.9689 38.4355 41.6661" stroke="#119498" stroke-width="2" stroke-linecap="round" stroke-linejoin="round"/>
<path d="M42.4095 44.5473C37.9923 40.1301 31.5951 38.9148 26.0718 40.8742C24.1123 46.3975 25.3276 52.7947 29.7449 57.212C34.1621 61.6293 40.5593 62.8446 46.0826 60.8851C48.0421 55.3618 46.8268 48.9646 42.4095 44.5473Z" stroke="#119498" stroke-width="2" stroke-linecap="round" stroke-linejoin="round"/>
<path d="M64.2342 57.212C68.6515 52.7947 69.8668 46.3975 67.9073 40.8742C62.384 38.9148 55.9868 40.1301 51.5696 44.5473C47.1523 48.9646 45.937 55.3618 47.8965 60.8851C53.4198 62.8446 59.817 61.6293 64.2342 57.212Z" stroke="#119498" stroke-width="2" stroke-linecap="round" stroke-linejoin="round"/>
<path d="M35.2822 49.8113L46.2196 60.7486" stroke="#119498" stroke-width="2" stroke-linecap="round" stroke-linejoin="round"/>
<path d="M58.8358 49.8113L47.8984 60.8852" stroke="#119498" stroke-width="2" stroke-linecap="round" stroke-linejoin="round"/>
<path d="M14.4087 40.4169C17.6995 25.4446 31.04 14.2478 46.9955 14.2478" stroke="#005E60" stroke-width="2" stroke-linecap="round" stroke-linejoin="round"/>
<path d="M39.3889 80.0969C24.6282 76.656 13.6294 63.411 13.6294 47.6057" stroke="#005E60" stroke-width="2" stroke-linecap="round" stroke-linejoin="round"/>
<path d="M79.4624 55.3071C75.9873 70.02 62.7696 80.9642 46.9917 80.9642" stroke="#005E60" stroke-width="2" stroke-linecap="round" stroke-linejoin="round"/>
<path d="M54.5181 15.0942C69.3197 18.5079 80.3595 31.7666 80.3595 47.6059" stroke="#005E60" stroke-width="2" stroke-linecap="round" stroke-linejoin="round"/>
<path d="M42.2734 8.86084L47.6534 14.2408L42.2734 19.6207" stroke="#005E60" stroke-width="2" stroke-linecap="round" stroke-linejoin="round"/>
<path d="M85.7389 43.3115L80.3589 48.6915L74.979 43.3115" stroke="#005E60" stroke-width="2" stroke-linecap="round" stroke-linejoin="round"/>
<path d="M52.4424 86.3441L47.0693 80.971L52.4424 75.5911" stroke="#005E60" stroke-width="2" stroke-linecap="round" stroke-linejoin="round"/>
<path d="M8.25488 52.9856L13.628 47.6057L19.0079 52.9856" stroke="#005E60" stroke-width="2" stroke-linecap="round" stroke-linejoin="round"/>
</svg>
