<svg width="95" height="97" viewBox="0 0 95 97" fill="none" xmlns="http://www.w3.org/2000/svg">
<path d="M53.7427 17.0891C67.9372 18.9512 78.8945 31.0974 78.8945 45.8003C78.8945 48.6937 78.472 51.4867 77.6842 54.1222" stroke="#119498" stroke-width="2" stroke-linecap="round" stroke-linejoin="round"/>
<path d="M59.6639 49.1305L71.7815 53.9504C73.4215 54.6021 74.8968 55.6119 76.0928 56.9153L87.616 69.3981C87.8666 69.6703 87.5229 70.0713 87.2149 69.8708L58.6326 51.1143C58.117 50.7777 57.9737 50.0902 58.3032 49.5674C58.5896 49.1162 59.1626 48.93 59.6639 49.1305Z" stroke="#005E60" stroke-width="2" stroke-linecap="round" stroke-linejoin="round"/>
<path d="M48.3645 36.1465L45.7863 23.4846C45.4282 21.7371 45.4783 19.9324 45.9152 18.2064L50.1048 1.84195C50.1979 1.48387 50.7207 1.55548 50.7207 1.92073L50.5989 35.9245C50.5989 36.5404 50.0976 37.0417 49.4817 37.0488C48.9374 37.0488 48.4719 36.6764 48.3573 36.1465H48.3645Z" stroke="#005E60" stroke-width="2" stroke-linecap="round" stroke-linejoin="round"/>
<path d="M54.8304 95.6171L52.3596 49.3812C53.5699 48.5863 54.3219 47.2327 54.3219 45.7645C54.3219 43.3725 52.3739 41.4246 49.9748 41.4246C47.5684 41.4246 45.6133 43.3582 45.6061 45.7502C45.6061 47.2255 46.351 48.5791 47.5613 49.374L45.0117 95.6171" stroke="#005E60" stroke-width="2" stroke-linecap="round" stroke-linejoin="round"/>
<path d="M66.6341 59.6941C64.0559 62.7951 60.6255 65.1656 56.708 66.4476" stroke="#119498" stroke-width="2" stroke-linecap="round" stroke-linejoin="round"/>
<path d="M53.7427 24.4155C63.9266 26.2131 71.6612 35.1079 71.6612 45.8075C71.6612 47.3616 71.4965 48.887 71.1886 50.348" stroke="#119498" stroke-width="2" stroke-linecap="round" stroke-linejoin="round"/>
<path d="M72.627 63.7979C68.8671 68.5317 63.6605 72.0624 57.6733 73.7168" stroke="#119498" stroke-width="2" stroke-linecap="round" stroke-linejoin="round"/>
<path d="M43.1571 66.4406C34.4771 63.5902 28.2178 55.4259 28.2178 45.8006C28.2178 36.1752 34.3195 28.2186 42.8205 25.2751" stroke="#005E60" stroke-width="2" stroke-linecap="round" stroke-linejoin="round"/>
<path d="M42.191 73.7094C29.9588 70.322 20.978 59.1067 20.978 45.8003C20.978 32.4939 30.0089 21.2142 42.2912 17.8625" stroke="#005E60" stroke-width="2" stroke-linecap="round" stroke-linejoin="round"/>
<path d="M18.1701 45.8005H7.27002" stroke="#005E60" stroke-width="2" stroke-linecap="round" stroke-linejoin="round"/>
<path d="M22.6605 29.5148L16.6948 25.9482" stroke="#005E60" stroke-width="2" stroke-linecap="round" stroke-linejoin="round"/>
<path d="M19.1802 37.8582L12.4482 36.1179" stroke="#005E60" stroke-width="2" stroke-linecap="round" stroke-linejoin="round"/>
<path d="M19.1719 53.7285L12.4399 55.4616" stroke="#005E60" stroke-width="2" stroke-linecap="round" stroke-linejoin="round"/>
<path d="M22.654 62.0718L16.6812 65.6311" stroke="#005E60" stroke-width="2" stroke-linecap="round" stroke-linejoin="round"/>
<path d="M34.2055 18.2065L30.7607 12.1692" stroke="#005E60" stroke-width="2" stroke-linecap="round" stroke-linejoin="round"/>
<path d="M32.8517 72.5852L29.1133 78.4435" stroke="#005E60" stroke-width="2" stroke-linecap="round" stroke-linejoin="round"/>
<path d="M27.4726 23.3342L19.7666 15.6282" stroke="#005E60" stroke-width="2" stroke-linecap="round" stroke-linejoin="round"/>
<path d="M27.4726 68.2666L19.7666 75.9726" stroke="#005E60" stroke-width="2" stroke-linecap="round" stroke-linejoin="round"/>
<path d="M27.4726 68.2666L19.7666 75.9726" stroke="#005E60" stroke-width="2" stroke-linecap="round" stroke-linejoin="round"/>
</svg>
