<svg width="94" height="95" viewBox="0 0 94 95" fill="none" xmlns="http://www.w3.org/2000/svg">
<path d="M57.8728 36.7729L35.9775 20.1033" stroke="#119498" stroke-width="2" stroke-linecap="round" stroke-linejoin="round"/>
<path d="M57.8728 53.3202L35.9775 36.6506" stroke="#119498" stroke-width="2" stroke-linecap="round" stroke-linejoin="round"/>
<path d="M35.9775 36.7729L57.8728 20.1033" stroke="#119498" stroke-width="2" stroke-linecap="round" stroke-linejoin="round"/>
<path d="M35.9775 53.3202L57.8728 36.6506" stroke="#119498" stroke-width="2" stroke-linecap="round" stroke-linejoin="round"/>
<path d="M29.7969 79.0699L57.871 52.9688" stroke="#119498" stroke-width="2" stroke-linecap="round" stroke-linejoin="round"/>
<path d="M64.0517 79.0699L35.9775 52.9688" stroke="#119498" stroke-width="2" stroke-linecap="round" stroke-linejoin="round"/>
<path d="M36.2114 19.1936L22.4966 32.8136V37.3765" stroke="#005E60" stroke-width="2" stroke-linecap="round" stroke-linejoin="round"/>
<path d="M22.4966 32.8137H35.6656" stroke="#005E60" stroke-width="2" stroke-linecap="round" stroke-linejoin="round"/>
<path d="M22.4966 50.9355H35.6656" stroke="#005E60" stroke-width="2" stroke-linecap="round" stroke-linejoin="round"/>
<path d="M65.6281 85.6655L57.8722 53.32V19.4535L48.7139 9.63208H45.2112L35.977 19.4535V53.32L28.2212 85.6655" stroke="#005E60" stroke-width="2" stroke-linecap="round" stroke-linejoin="round"/>
<path d="M57.5225 19.0715L71.351 32.8138V37.3767" stroke="#005E60" stroke-width="2" stroke-linecap="round" stroke-linejoin="round"/>
<path d="M71.3521 32.8137H58.1831" stroke="#005E60" stroke-width="2" stroke-linecap="round" stroke-linejoin="round"/>
<path d="M71.3521 50.9355H58.1831" stroke="#005E60" stroke-width="2" stroke-linecap="round" stroke-linejoin="round"/>
<path d="M35.9775 36.7727H57.8728" stroke="#005E60" stroke-width="2" stroke-linecap="round" stroke-linejoin="round"/>
<path d="M35.9775 52.9688H57.8728" stroke="#005E60" stroke-width="2" stroke-linecap="round" stroke-linejoin="round"/>
<path d="M35.9775 20.1033H57.8728" stroke="#005E60" stroke-width="2" stroke-linecap="round" stroke-linejoin="round"/>
<path d="M35.9764 36.7727L22.4966 50.8513V55.4142" stroke="#005E60" stroke-width="2" stroke-linecap="round" stroke-linejoin="round"/>
<path d="M57.8721 36.7727L71.3519 50.8513V55.4142" stroke="#005E60" stroke-width="2" stroke-linecap="round" stroke-linejoin="round"/>
<path d="M21.3594 85.6655H72.4887" stroke="#005E60" stroke-width="2" stroke-linecap="round" stroke-linejoin="round"/>
<path d="M71.3525 39.4937C74.696 43.17 79.4874 45.4935 84.8248 45.4935" stroke="#119498" stroke-width="2" stroke-linecap="round" stroke-linejoin="round"/>
<path d="M71.3525 57.4702C74.696 61.1465 79.4874 63.47 84.8248 63.47" stroke="#119498" stroke-width="2" stroke-linecap="round" stroke-linejoin="round"/>
<path d="M22.4971 39.4937C19.1537 43.17 14.3622 45.4935 9.0249 45.4935" stroke="#119498" stroke-width="2" stroke-linecap="round" stroke-linejoin="round"/>
<path d="M22.4971 57.4702C19.1537 61.1465 14.3622 63.47 9.0249 63.47" stroke="#119498" stroke-width="2" stroke-linecap="round" stroke-linejoin="round"/>
</svg>
