<svg width="67" height="81" viewBox="0 0 67 81" fill="none" xmlns="http://www.w3.org/2000/svg">
<g clip-path="url(#clip0_17119_24578)">
<path d="M5.32577 27.2955L14.8426 6.61281L24.3595 27.2955M9.32023 6.61281H57.6685M33.4944 1.4231V46.3245M42.7166 27.2411L52.1898 6.62369L61.6739 27.2411M0.818359 79.5082C0.818359 61.5564 15.4538 46.999 33.4944 46.999C51.5349 46.999 66.1704 61.5564 66.1704 79.5082" stroke="#005E60" stroke-width="1.5" stroke-linecap="round" stroke-linejoin="round"/>
<path d="M62.4927 79.5084C62.4927 63.5475 49.5161 50.6113 33.4946 50.6113C17.4731 50.6113 4.49658 63.5475 4.49658 79.5084M58.4218 69.0419C58.4218 69.0419 56.4028 71.4463 51.688 69.4009C46.9732 67.3555 43.7645 69.5206 42.4985 72.4691C42.1711 73.2307 41.9747 74.1881 41.931 75.2108C41.8655 77.006 42.5422 78.6053 43.6554 79.7912M24.709 61.0669C25.4402 60.1095 25.6694 58.0097 24.3161 56.889C22.9628 55.7684 22.1333 54.7348 22.1333 54.7348M23.0937 62.1767C22.7227 62.2528 22.2861 62.2419 21.7623 62.144C20.3107 61.8829 18.881 62.4378 18.1934 64.4832C17.495 66.5286 17.3531 67.4534 15.4759 69.0854C15.4759 69.0854 14.3845 69.9123 14.8102 71.1961C15.2358 72.4799 14.4173 73.1001 12.9875 71.751C11.5687 70.4019 10.3355 70.1734 9.61517 72.1753C8.89486 74.1772 9.74613 74.6124 10.5756 74.9714C11.405 75.3305 12.8347 76.3423 13.4241 78.094C14.0134 79.8456 16.6982 79.5628 18.3244 79.1711C19.3285 78.9317 20.8346 78.9535 22.5153 79.7804H25.3966M10.6847 79.7912H10.9248C10.8157 79.6389 10.7284 79.4648 10.6738 79.2799C10.3464 78.3116 9.37506 76.7231 6.58112 75.733M44.8778 54.7239C44.8778 54.7239 43.7645 57.4874 45.4344 58.8692C47.1042 60.2509 47.8463 61.785 46.4275 62.4595C46.4275 62.4595 42.5313 62.7207 44.0483 64.8966C45.0742 66.3763 46.0019 66.1914 46.7549 65.4624C47.6062 64.6464 48.5666 63.9719 49.6471 63.504C50.1819 63.2755 50.7167 62.9927 51.0986 62.688C52.2118 61.8176 52.9976 63.3626 53.4015 64.2003C53.7944 65.049 54.5583 66.5395 55.9771 64.8531M33.702 51.9278C33.702 51.9278 31.552 53.7883 31.9885 55.0177C32.4251 56.2689 32.3378 57.7377 30.6352 57.5092C29.0527 57.2916 26.226 53.1681 26.226 53.1681M5.32603 27.3718C5.32603 32.5507 9.57151 36.7503 14.8102 36.7503C20.0488 36.7503 24.2943 32.5507 24.2943 27.3718H5.32603ZM42.6295 27.3718C42.6295 32.6159 46.8968 36.8591 52.1464 36.8591C57.3959 36.8591 61.6741 32.6159 61.6741 27.3718H42.6295Z" stroke="#119498" stroke-width="1.5" stroke-linecap="round" stroke-linejoin="round"/>
</g>
<defs>
<clipPath id="clip0_17119_24578">
<rect width="67" height="80" fill="white" transform="translate(0 0.607178)"/>
</clipPath>
</defs>
</svg>
