<svg width="94" height="95" viewBox="0 0 94 95" fill="none" xmlns="http://www.w3.org/2000/svg">
<rect x="0.5" y="1.09717" width="93.01" height="93.01" rx="46.505" stroke="#119498"/>
<path d="M71.9329 70.5523L60.9924 70.6482L60.8965 59.6117L66.2323 59.5665C66.3069 59.5851 66.3814 59.6117 66.464 59.6117C66.5545 59.6117 66.6344 59.5824 66.7169 59.5611L71.9329 59.5159V70.5523ZM52.4534 70.5523L41.5102 70.6482L41.4143 59.6117L46.7502 59.5665C46.8247 59.5851 46.8993 59.6117 46.9818 59.6117C47.0723 59.6117 47.1522 59.5824 47.2347 59.5611L52.4508 59.5159V70.5523H52.4534ZM32.9686 70.5523L22.028 70.6482L21.9321 59.6117L27.2653 59.5665C27.3425 59.5851 27.4144 59.6117 27.497 59.6117C27.5875 59.6117 27.6674 59.5824 27.7499 59.5611L32.9659 59.5159V70.5523H32.9686ZM41.4143 20.6447L52.4508 20.5488V31.5853L47.2134 31.6305C47.1362 31.6119 47.0617 31.5826 46.9791 31.5826C46.8886 31.5826 46.8087 31.6119 46.7262 31.6332L41.5102 31.6785L41.4143 20.642V20.6447ZM72.0288 57.5615H67.4864V46.5251C67.4864 45.4467 66.6104 44.5734 65.5347 44.5734H48.0042V33.6328H52.5466C53.625 33.6328 54.4983 32.7595 54.4983 31.6811V20.5488C54.4983 19.4705 53.625 18.5972 52.5466 18.5972H41.4143C40.336 18.5972 39.4626 19.4705 39.4626 20.5488V31.6811C39.4626 32.7595 40.336 33.6328 41.4143 33.6328H45.9567V44.5734H28.4262C27.3505 44.5734 26.4745 45.4467 26.4745 46.5251V57.5615H21.9321C20.8565 57.5615 19.9805 58.4375 19.9805 59.5132V70.6455C19.9805 71.7238 20.8565 72.5972 21.9321 72.5972H33.0644C34.1428 72.5972 35.0161 71.7238 35.0161 70.6455V59.5132C35.0161 58.4375 34.1428 57.5615 33.0644 57.5615H28.5141L28.4262 46.6209L45.9567 46.5757V57.5615H41.4143C40.336 57.5615 39.4626 58.4375 39.4626 59.5132V70.6455C39.4626 71.7238 40.336 72.5972 41.4143 72.5972H52.5466C53.625 72.5972 54.4983 71.7238 54.4983 70.6455V59.5132C54.4983 58.4375 53.625 57.5615 52.5466 57.5615H48.0042V46.5703L65.4389 46.5251V57.5615H60.8965C59.8181 57.5615 58.9448 58.4375 58.9448 59.5132V70.6455C58.9448 71.7238 59.8181 72.5972 60.8965 72.5972H72.0288C73.1045 72.5972 73.9805 71.7238 73.9805 70.6455V59.5132C73.9805 58.4375 73.1045 57.5615 72.0288 57.5615Z" fill="#119498"/>
</svg>
