<svg width="95" height="95" viewBox="0 0 95 95" fill="none" xmlns="http://www.w3.org/2000/svg">
<rect x="1" y="1.09717" width="93.01" height="93.01" rx="46.505" stroke="#119498"/>
<path d="M50.6053 29.8323C50.5546 29.8323 50.5038 29.8293 50.4561 29.8205C50.0057 29.7385 49.7103 29.3164 49.7909 28.8767L51.4047 20.162C51.1542 19.7927 49.776 19.2211 47.4969 19.2211H47.4909C45.2148 19.2211 43.8366 19.7927 43.589 20.162L45.2029 28.8767C45.2834 29.3164 44.9851 29.7385 44.5407 29.8205C44.0962 29.9026 43.6606 29.6095 43.5801 29.1669L41.9305 20.25C41.9126 20.1532 41.9126 20.0565 41.9305 19.9598C42.2496 18.2186 45.012 17.5972 47.4939 17.5972H47.4999C49.9818 17.5972 52.7441 18.2157 53.0693 19.9568C53.0872 20.0536 53.0872 20.1503 53.0693 20.247L51.4196 29.1639C51.3481 29.5567 50.999 29.8293 50.6082 29.8293M38.3836 34.9004C38.0166 34.9971 37.7631 35.4104 37.7631 35.9469C37.7631 36.7354 38.3239 37.521 38.9623 37.6265C39.3143 37.6851 39.5887 37.9577 39.6394 38.3036C39.9109 40.0506 40.2898 41.4195 40.6984 42.1523C42.0349 44.5472 44.5735 45.9776 47.4939 45.9776C50.4143 45.9776 52.95 44.5472 54.2864 42.1523C54.6981 41.4166 55.0709 40.0506 55.3454 38.3036C55.3991 37.9577 55.6735 37.6851 56.0226 37.6265C56.6609 37.521 57.2218 36.7354 57.2218 35.9469C57.2218 35.4104 56.9712 34.9971 56.6013 34.9004H38.3776H38.3836ZM47.4969 47.6016C43.9649 47.6016 40.8834 45.8545 39.2546 42.935C38.6878 41.9237 38.3179 40.3496 38.0912 39.0569C36.9427 38.5762 36.1105 37.3216 36.1105 35.9498C36.1105 35.5746 36.1701 35.2199 36.2894 34.9033H35.6421C35.3677 34.9033 35.1111 34.7685 34.956 34.5428C34.8128 34.3347 34.7233 34.0797 34.6875 33.7836C34.6577 32.9306 34.6875 32.1538 34.774 31.336C34.8963 30.1752 35.2961 29.7531 35.666 29.4512C35.9523 26.3646 37.429 23.5125 39.8453 21.3844C40.1824 21.0854 40.7044 21.1118 41.0117 21.4488C41.3159 21.783 41.2861 22.296 40.949 22.595C38.8758 24.4182 37.5572 26.9567 37.3305 29.5596C37.3037 30.2221 36.9248 30.5328 36.725 30.697C36.5937 30.8054 36.4804 30.8992 36.4177 31.5031C36.3551 32.1128 36.3252 32.6961 36.3282 33.2794H38.2344C38.2344 33.2794 38.2434 33.2794 38.2463 33.2794C38.3269 33.2706 38.4015 33.2706 38.476 33.2794H56.5118C56.5893 33.2677 56.6639 33.2677 56.7415 33.2794C56.7474 33.2794 56.7504 33.2794 56.7534 33.2794H58.6626C58.6626 32.699 58.6357 32.1098 58.5701 31.5031C58.5075 30.8963 58.3911 30.8025 58.2599 30.694C58.06 30.5299 57.6841 30.2192 57.6513 29.5245C57.4216 26.8805 56.0464 24.2951 53.8867 22.4601C53.5406 22.167 53.5048 21.654 53.8031 21.3169C54.1044 20.9769 54.6235 20.9417 54.9665 21.2319C57.4514 23.3424 59.0295 26.3235 59.298 29.416C59.6888 29.7472 60.0915 30.1694 60.2108 31.3331C60.2973 32.1333 60.3271 32.913 60.3003 33.7103C60.2645 34.065 60.172 34.3229 60.0288 34.5369C59.8767 34.7626 59.6172 34.8975 59.3427 34.8975H58.6954C58.8117 35.2141 58.8714 35.5687 58.8714 35.9439C58.8714 37.3158 58.0391 38.5733 56.8906 39.0511C56.6639 40.3438 56.297 41.9149 55.7302 42.9291C54.1014 45.8487 51.0199 47.5957 47.4909 47.5957M55.3633 51.0048C55.3126 51.0048 55.2619 50.9989 55.2082 50.9901C52.941 50.5651 50.4054 50.3306 47.8817 50.3101C47.4253 50.3042 47.0584 49.9407 47.0614 49.4893C47.0643 49.0437 47.4342 48.6861 47.8877 48.6861H47.8936C50.5546 48.7066 53.12 48.947 55.5154 49.3955C55.9659 49.4776 56.2582 49.9026 56.1717 50.3452C56.0971 50.7322 55.7481 51.0048 55.3603 51.0048M54.2595 62.8998L60.706 62.9262C60.9745 62.9262 61.2221 63.0552 61.3772 63.2692C61.5323 63.4831 61.5711 63.7587 61.4816 64.0049L57.2337 75.9498H57.8154L70.1206 57.7936L63.1133 57.7818C62.8449 57.7818 62.5943 57.6529 62.4422 57.4389C62.287 57.222 62.2482 56.9494 62.3377 56.7002L65.47 47.8976H59.122L54.2625 62.8969L54.2595 62.8998ZM56.0703 77.5737C55.8018 77.5737 55.5542 77.4477 55.3991 77.2337C55.241 77.0168 55.2052 76.7442 55.2917 76.495L59.5426 64.5443L53.129 64.5179C52.8664 64.5179 52.6189 64.3918 52.4637 64.1866C52.3116 63.9785 52.2668 63.7089 52.3444 63.4626L57.7289 46.8394C57.8392 46.5023 58.1555 46.2737 58.5134 46.2737L66.6274 46.2796C66.8959 46.2796 67.1465 46.4056 67.3016 46.6225C67.4567 46.8365 67.4955 47.112 67.406 47.3583L64.2767 56.1638L71.6629 56.1755C71.9671 56.1755 72.2446 56.3397 72.3907 56.6035C72.5339 56.8673 72.519 57.1868 72.349 57.436L58.946 77.2102C58.7938 77.4359 58.5373 77.5708 58.2599 77.5708H56.0733L56.0703 77.5737ZM43.8665 54.5076H44.1857L44.9106 53.1358C44.9643 52.7225 44.7674 51.6057 44.657 50.9872C44.6451 50.9227 44.6331 50.8582 44.6242 50.7966H43.1088C43.0998 50.8553 43.0879 50.9139 43.076 50.9725C42.9656 51.5939 42.7627 52.7196 42.8224 53.1329L43.5443 54.5047H43.8605L43.8665 54.5076ZM42.9537 63.6121C42.9865 63.8789 42.9894 64.1544 42.9745 64.4827H44.7584C44.7375 63.9463 44.7674 63.5183 44.8867 63.0933C44.9404 62.894 45.0687 62.7269 45.2476 62.6184L45.8443 62.2549V61.8944H41.8887V62.252L42.4853 62.6184C42.5181 62.6389 42.548 62.6595 42.5748 62.6829C42.7031 62.7562 42.8164 62.8676 42.891 63.0083C42.9924 63.2017 43.0073 63.4216 42.9507 63.6151M42.1721 74.8506C42.3839 75.7593 42.8642 75.9586 43.6368 75.9703H44.1111C44.8777 75.9586 45.355 75.7622 45.5668 74.8418L42.1721 74.8506ZM43.6248 77.5913C41.2593 77.5561 40.6626 75.9498 40.4896 74.8535C40.4359 74.8535 40.3852 74.8447 40.3375 74.833L39.0339 74.5428L33.366 74.534C31.2749 74.5868 29.7744 74.1441 28.8019 73.1856C27.8682 72.2681 27.4416 70.8992 27.4923 68.9998L27.6295 58.1424C27.6773 54.0093 31.958 50.8289 39.3769 49.416C39.8035 49.3281 40.254 49.6183 40.3435 50.058C40.427 50.4977 40.1376 50.9256 39.6872 51.0077C36.5758 51.6027 29.3329 53.4846 29.2792 58.16L29.142 69.032C29.1032 70.4713 29.3717 71.4532 29.9683 72.0395C30.6037 72.6639 31.6627 72.9482 33.3451 72.9101L39.1264 72.9189C39.186 72.9189 39.2516 72.9247 39.3083 72.9394L40.6119 73.2325H46.1098C46.3424 73.1856 46.5334 73.0479 46.6586 72.7665L46.6915 66.5786C46.7094 66.3704 46.6467 66.2766 46.6079 66.2327C46.5692 66.1887 46.4886 66.1125 46.3603 66.1037H45.9964C45.9188 66.1389 45.8353 66.1594 45.7458 66.1682C45.5996 66.177 45.4565 66.1594 45.3282 66.1037L42.1214 66.1096C41.6679 66.1096 41.298 65.749 41.2951 65.3035V64.981C41.2921 64.9517 41.2921 64.9224 41.2951 64.896V64.7524L40.7134 65.0514L39.9378 67.2293C39.8214 67.5547 39.5112 67.7716 39.1592 67.7716L35.2185 67.7657C35.0544 67.7657 34.8904 67.7159 34.7531 67.625L34.0551 67.1589C33.8314 67.0095 33.6971 66.7603 33.6942 66.4965L33.6345 59.7927C33.6285 59.3442 33.9984 58.9778 34.4519 58.9749H34.4608C34.9142 58.9749 35.2812 59.3325 35.2871 59.781L35.3438 66.0597L35.4751 66.1447L38.5745 66.1506L39.2636 64.213C39.3322 64.0196 39.4724 63.8583 39.6603 63.7616L40.5224 63.3161C40.3464 63.1636 40.242 62.9438 40.242 62.7093V61.0883C40.242 60.6398 40.6119 60.2763 41.0683 60.2763H43.0461V56.1374C42.7419 56.1374 42.4614 55.9674 42.3183 55.7006L41.313 53.7924C41.2831 53.7396 41.2622 53.6839 41.2473 53.6282C41.0743 52.9892 41.2264 52.0131 41.4591 50.7058C41.5158 50.3951 41.5635 50.1107 41.5934 49.8909C41.6471 49.4864 41.9991 49.1844 42.4137 49.1844H45.3342C45.7488 49.1844 46.1008 49.4864 46.1545 49.8909C46.1843 50.1137 46.235 50.4039 46.2917 50.7175C46.5214 52.016 46.6736 52.9892 46.5005 53.6253C46.4856 53.6839 46.4647 53.7396 46.4349 53.7924L45.4266 55.7006C45.2864 55.9674 45.006 56.1374 44.6988 56.1374V60.2763H46.6765C47.133 60.2763 47.5029 60.6398 47.5029 61.0883V62.7093C47.5029 62.9907 47.3567 63.2486 47.1121 63.3981L46.4289 63.8144C46.4081 63.9932 46.4051 64.2042 46.42 64.4856H46.4379C47.0464 64.5355 47.5357 64.7876 47.8817 65.1979C48.2307 65.6112 48.3978 66.133 48.3441 66.6636L48.3143 72.9277C48.3143 73.0156 48.2964 73.1006 48.2725 73.1856C48.0816 73.7338 47.7505 74.1647 47.306 74.4549C47.2105 75.5072 46.7988 77.5591 44.135 77.5972H43.6338L43.6248 77.5913Z" fill="#119498"/>
</svg>
