<svg width="72" height="84" viewBox="0 0 72 84" fill="none" xmlns="http://www.w3.org/2000/svg">
<path d="M17.1843 18.5235C20.8935 18.5235 23.9004 15.5166 23.9004 11.8074C23.9004 8.0982 20.8935 5.09131 17.1843 5.09131C13.4751 5.09131 10.4683 8.0982 10.4683 11.8074C10.4683 15.5166 13.4751 18.5235 17.1843 18.5235Z" stroke="#005E60" stroke-width="2" stroke-linecap="round" stroke-linejoin="round"/>
<path d="M25.0285 8.55834H25.0135C24.8255 6.19681 23.592 4.14363 21.7946 2.82749V2.88766C21.7946 3.41411 21.3659 3.8428 20.8394 3.8428C20.313 3.8428 19.8843 3.41411 19.8843 2.88766V1.7821C19.3278 1.57904 18.7336 1.45118 18.1244 1.37598V2.88766C18.1244 3.41411 17.6957 3.8428 17.1693 3.8428C16.6428 3.8428 16.2141 3.41411 16.2141 2.88766V1.37598C15.605 1.45118 15.0108 1.57904 14.4543 1.78962V2.88766C14.4543 3.41411 14.0256 3.8428 13.4991 3.8428C12.9727 3.8428 12.544 3.41411 12.544 2.88766V2.82749C10.754 4.15115 9.52065 6.19681 9.33263 8.55834H9.31758C8.71591 8.55834 8.22705 9.04719 8.22705 9.64886C8.22705 10.2505 8.71591 10.7394 9.31758 10.7394H25.006C25.6076 10.7394 26.0965 10.2505 26.0965 9.64886C26.0965 9.04719 25.6076 8.55834 25.006 8.55834H25.0285Z" fill="#005E60" stroke="#005E60" stroke-width="2" stroke-linecap="round" stroke-linejoin="round"/>
<path d="M14.5293 21.6897H17.1841" stroke="#005E60" stroke-width="2" stroke-linecap="round" stroke-linejoin="round"/>
<path d="M17.1841 53.2844V77.3886C17.1841 80.0058 15.0632 82.1267 12.446 82.1267C9.82876 82.1267 7.7079 80.0058 7.7079 77.3886V48.9901V49.7948C7.7079 51.5697 6.27142 53.0062 4.49651 53.0062C2.7216 53.0062 1.28516 51.5697 1.28516 49.7948V39.7696C1.28516 37.2576 1.53332 34.7532 2.15002 32.3165C2.53358 30.7822 2.99237 29.4736 3.48122 28.3455C4.57173 25.826 6.54218 23.8781 8.92627 22.75" stroke="#005E60" stroke-width="2" stroke-linecap="round" stroke-linejoin="round"/>
<path d="M25.3818 22.7275C27.7959 23.8481 29.789 25.8111 30.887 28.3456C31.3759 29.4737 31.8271 30.7823 32.2182 32.3166C32.8349 34.7458 33.0831 37.2577 33.0831 39.7697V49.7949C33.0831 51.5698 31.6466 53.0063 29.8717 53.0063C28.0968 53.0063 26.6603 51.5698 26.6603 49.7949V48.9902V77.3887C26.6603 80.006 24.5395 82.1268 21.9222 82.1268C19.305 82.1268 17.1841 80.006 17.1841 77.3887V53.2846" stroke="#005E60" stroke-width="2" stroke-linecap="round" stroke-linejoin="round"/>
<path d="M17.1841 21.6897H19.9217" stroke="#005E60" stroke-width="2" stroke-linecap="round" stroke-linejoin="round"/>
<path d="M9.03928 22.6975C9.03928 22.6975 9.86656 25.4275 7.48247 34.099C5.65491 40.7399 7.70055 48.9902 7.70055 48.9902H17.1768V28.1877L14.4166 21.6897C14.4166 21.6897 11.7543 21.434 9.03928 22.6975Z" stroke="#119498" stroke-width="2" stroke-linecap="round" stroke-linejoin="round"/>
<path d="M25.3216 22.6976C25.3216 22.6976 24.4943 25.4276 26.8784 34.0991C28.706 40.74 26.6603 48.9903 26.6603 48.9903H17.1841V28.1877L19.9442 21.6898C19.9442 21.6898 22.8548 21.4641 25.3216 22.6976Z" stroke="#119498" stroke-width="2" stroke-linecap="round" stroke-linejoin="round"/>
<path d="M52.6673 18.5235C56.3765 18.5235 59.3834 15.5166 59.3834 11.8074C59.3834 8.0982 56.3765 5.09131 52.6673 5.09131C48.9581 5.09131 45.9512 8.0982 45.9512 11.8074C45.9512 15.5166 48.9581 18.5235 52.6673 18.5235Z" stroke="#005E60" stroke-width="2" stroke-linecap="round" stroke-linejoin="round"/>
<path d="M60.1055 22.2537C61.933 22.8403 64.257 24.0361 65.874 26.4503C68.0249 29.6541 69.2358 33.6025 69.9578 36.31C70.4541 38.1677 69.4614 40.0855 67.6564 40.7473L61.3088 43.0562C59.4061 43.7481 57.3078 42.7178 56.6986 40.7849C56.1044 38.9047 57.1573 36.8967 59.0451 36.3176L64.821 34.5426" stroke="#005E60" stroke-width="2" stroke-linecap="round" stroke-linejoin="round"/>
<path d="M50.0049 21.6897H55.5477" stroke="#005E60" stroke-width="2" stroke-linecap="round" stroke-linejoin="round"/>
<path d="M61.1656 45.5305V77.885C61.1656 80.2315 59.2628 82.1342 56.9163 82.1342C54.5698 82.1342 52.6671 80.2315 52.6671 77.885M52.6671 77.885V52.1037M52.6671 77.885C52.6671 80.2315 50.7643 82.1342 48.4178 82.1342C46.0713 82.1342 44.1685 80.2315 44.1685 77.885V48.9901V49.8625C44.1685 51.5998 42.7621 53.0062 41.0248 53.0062C39.2349 53.0062 37.8059 51.5171 37.8887 49.7271L38.7235 30.6769C39.0769 25.2018 42.8975 23.0508 45.5524 22.2085" stroke="#005E60" stroke-width="2" stroke-linecap="round" stroke-linejoin="round"/>
<path d="M45.6353 22.1861C45.6353 22.1861 41.6418 29.4813 43.2136 35.3099C45.7406 44.6583 44.1687 48.9902 44.1687 48.9902H52.6673V33.6929C52.6673 30.0604 51.9302 26.4579 50.5088 23.1187L49.8996 21.6897H49.5762C49.0046 21.6672 48.4255 21.6521 47.8615 21.7123C47.1094 21.795 46.3648 21.9755 45.6278 22.1861H45.6353Z" stroke="#119498" stroke-width="2" stroke-linecap="round" stroke-linejoin="round"/>
<path d="M62.1436 34.6857C62.813 29.1654 59.8949 22.1861 59.8949 22.1861C58.6164 21.8176 57.2852 21.6446 55.9465 21.6747H55.6231L55.0139 23.1112C53.5925 26.458 52.8555 30.0529 52.8555 33.6855V48.9828H61.1659V45.087" stroke="#119498" stroke-width="2" stroke-linecap="round" stroke-linejoin="round"/>
<path d="M44.8081 10.8448C44.4547 12.3715 43.6725 15.4776 42.5669 17.8917C42.221 18.6589 42.7625 19.5238 43.6048 19.5238H61.7224C62.5647 19.5238 63.1062 18.6589 62.7603 17.8917C61.6171 15.3948 60.8199 12.1534 60.489 10.6943" stroke="#005E60" stroke-width="2" stroke-linecap="round" stroke-linejoin="round"/>
<path d="M60.5114 8.55834H60.4964C60.3084 6.19681 59.075 4.14363 57.2775 2.82749V2.88766C57.2775 3.41411 56.8488 3.8428 56.3224 3.8428C55.7959 3.8428 55.3672 3.41411 55.3672 2.88766V1.7821C54.8107 1.57904 54.2165 1.45118 53.6074 1.37598V2.88766C53.6074 3.41411 53.1787 3.8428 52.6522 3.8428C52.1257 3.8428 51.697 3.41411 51.697 2.88766V1.37598C51.0879 1.45118 50.4937 1.57904 49.9372 1.78962V2.88766C49.9372 3.41411 49.5085 3.8428 48.982 3.8428C48.4556 3.8428 48.0269 3.41411 48.0269 2.88766V2.82749C46.2369 4.15115 45.0036 6.19681 44.8155 8.55834H44.8005C44.1988 8.55834 43.71 9.04719 43.71 9.64886C43.71 10.2505 44.1988 10.7394 44.8005 10.7394H60.4889C61.0905 10.7394 61.5794 10.2505 61.5794 9.64886C61.5794 9.04719 61.0905 8.55834 60.4889 8.55834H60.5114Z" fill="#005E60" stroke="#005E60" stroke-width="2" stroke-linecap="round" stroke-linejoin="round"/>
<path d="M60.1879 43.7783C59.5636 43.7783 58.9394 43.6354 58.3603 43.3496C57.3374 42.8457 56.5854 41.9658 56.2394 40.8752C55.901 39.8148 56.0063 38.6867 56.5252 37.7015C57.0442 36.7162 57.9165 35.9942 58.977 35.6633L62.1432 34.6856L60.8422 30.6244C60.7294 30.2709 60.3533 30.0754 59.9998 30.1882L51.035 33.0611C50.6815 33.174 50.486 33.55 50.5988 33.9035L54.7578 46.8769C54.8706 47.2303 55.2467 47.4259 55.6001 47.3131L64.5649 44.4401C64.9184 44.3273 65.114 43.9513 65.0011 43.5978L64.6251 42.4245L61.6093 43.5226C61.143 43.688 60.6617 43.7783 60.1879 43.7783Z" fill="#005E60" stroke="#119498" stroke-width="2" stroke-linecap="round" stroke-linejoin="round"/>
</svg>
