<svg width="12" height="15" viewBox="0 0 12 15" fill="none" xmlns="http://www.w3.org/2000/svg">
<path d="M3.33317 11.6074H8.6665V10.2741H3.33317V11.6074ZM3.33317 8.94077H8.6665V7.60743H3.33317V8.94077ZM1.99984 14.2741C1.63317 14.2741 1.31928 14.1435 1.05817 13.8824C0.797059 13.6213 0.666504 13.3074 0.666504 12.9408V2.2741C0.666504 1.90743 0.797059 1.59354 1.05817 1.33243C1.31928 1.07132 1.63317 0.940765 1.99984 0.940765H7.33317L11.3332 4.94077V12.9408C11.3332 13.3074 11.2026 13.6213 10.9415 13.8824C10.6804 14.1435 10.3665 14.2741 9.99984 14.2741H1.99984ZM6.6665 5.60743V2.2741H1.99984V12.9408H9.99984V5.60743H6.6665Z" fill="#005E60"/>
</svg>
