<svg width="94" height="95" viewBox="0 0 94 95" fill="none" xmlns="http://www.w3.org/2000/svg">
<rect x="0.5" y="1.09717" width="93.01" height="93.01" rx="46.505" stroke="#119498"/>
<path d="M64.1803 25.5972H60.0048C59.3888 25.5972 58.8925 26.0985 58.8925 26.7207C58.8925 27.343 59.3888 27.8443 60.0048 27.8443H64.1803C64.4884 27.8443 64.7451 28.1036 64.7451 28.4147V69.7796C64.7451 70.0907 64.4884 70.35 64.1803 70.35H30.7591C30.4511 70.35 30.1944 70.0907 30.1944 69.7796V28.4147C30.1944 28.1036 30.4511 27.8443 30.7591 27.8443H34.9346C35.5507 27.8443 36.047 27.343 36.047 26.7207C36.047 26.0985 35.5507 25.5972 34.9346 25.5972H30.7591C29.219 25.5972 27.9697 26.859 27.9697 28.4147V69.7796C27.9697 71.3353 29.219 72.5972 30.7591 72.5972H64.1803C65.7205 72.5972 66.9697 71.3353 66.9697 69.7796V28.4147C66.9697 26.859 65.7205 25.5972 64.1803 25.5972Z" fill="#025F60"/>
<path d="M38.1364 30.5972H56.8379C57.4648 30.5972 57.9697 30.0893 57.9697 29.4588V26.8844C57.9697 25.3082 56.6986 24.0297 55.1314 24.0297H53.7036V23.4518C53.7036 21.8756 52.4324 20.5972 50.8652 20.5972H44.0568C42.4896 20.5972 41.2185 21.8756 41.2185 23.4518V24.0297H39.808C38.2409 24.0297 36.9697 25.3082 36.9697 26.8844V29.4588C36.9697 30.0893 37.4747 30.5972 38.1016 30.5972H38.1364ZM39.2682 26.8844C39.2682 26.5691 39.5294 26.3064 39.8429 26.3064H42.3851C43.012 26.3064 43.517 25.7986 43.517 25.1681V23.4518C43.517 23.1366 43.7782 22.8739 44.0916 22.8739H50.9001C51.2135 22.8739 51.4747 23.1366 51.4747 23.4518V25.1681C51.4747 25.7986 51.9797 26.3064 52.6065 26.3064H55.1662C55.4797 26.3064 55.7409 26.5691 55.7409 26.8844V28.3205H39.2682V26.8844Z" fill="#025F60"/>
<path d="M60.9697 38.0972C60.9697 35.6049 58.9447 33.5972 56.4697 33.5972C53.9947 33.5972 51.9697 35.6222 51.9697 38.0972C51.9697 40.5722 53.9947 42.5972 56.4697 42.5972C58.9447 42.5972 60.9697 40.5722 60.9697 38.0972ZM56.4697 40.3472C55.2236 40.3472 54.2197 39.3433 54.2197 38.0972C54.2197 36.851 55.2236 35.8472 56.4697 35.8472C57.7159 35.8472 58.7197 36.851 58.7197 38.0972C58.7197 39.3433 57.7159 40.3472 56.4697 40.3472Z" fill="#119498"/>
<path d="M35.3239 40.4353L37.2318 42.0951L35.3239 43.7548C34.8517 44.1698 34.8517 44.8669 35.3239 45.2818C35.5695 45.4976 35.8717 45.5972 36.1929 45.5972C36.514 45.5972 36.8162 45.4976 37.0618 45.2818L38.9697 43.6055L40.8776 45.2818C41.1232 45.4976 41.4255 45.5972 41.7466 45.5972C42.0677 45.5972 42.37 45.4976 42.6155 45.2818C43.0878 44.8669 43.0878 44.1698 42.6155 43.7548L40.7076 42.0951L42.6155 40.4353C43.0878 40.0204 43.0878 39.3233 42.6155 38.9084C42.1433 38.4934 41.3499 38.4934 40.8776 38.9084L38.9697 40.5847L37.0618 38.9084C36.5896 38.4934 35.7962 38.4934 35.3239 38.9084C34.8517 39.3233 34.8517 40.0204 35.3239 40.4353Z" fill="#025F60"/>
<path d="M57.6598 59.9528C57.2466 59.4786 56.5524 59.4786 56.1391 59.9528L54.4697 61.8687L52.8003 59.9528C52.3871 59.4786 51.6929 59.4786 51.2796 59.9528C50.8664 60.427 50.8664 61.2237 51.2796 61.6979L52.9491 63.5948L51.2796 65.4917C50.8664 65.9659 50.8664 66.7625 51.2796 67.2368C51.4945 67.4834 51.759 67.5972 52.04 67.5972C52.321 67.5972 52.5854 67.4834 52.8003 67.2368L54.4697 65.3209L56.1391 67.2368C56.354 67.4834 56.6185 67.5972 56.8995 67.5972C57.1805 67.5972 57.4449 67.4834 57.6598 67.2368C58.073 66.7625 58.073 65.9659 57.6598 65.4917L55.9904 63.5948L57.6598 61.6979C58.073 61.2237 58.073 60.427 57.6598 59.9528Z" fill="#025F60"/>
<path d="M36.5572 60.6013C36.0035 60.8794 35.8131 61.5174 36.1073 62.0409C36.3149 62.4008 36.6956 62.5972 37.0936 62.5972C37.2666 62.5972 37.457 62.5481 37.63 62.4663C43.3748 59.5379 48.168 55.2516 51.6114 50.0328L52.8054 52.7976C52.9784 53.2066 53.411 53.452 53.8436 53.452C53.982 53.452 54.1378 53.4193 54.2762 53.3702C54.8472 53.1411 55.1241 52.5195 54.8818 51.9796L52.8227 47.2516C52.8227 47.2516 52.7535 47.137 52.7189 47.088C52.7016 47.0552 52.6843 47.0225 52.6497 46.9734C52.4766 46.7608 52.2171 46.6299 51.9402 46.5972C51.8883 46.5972 51.8537 46.5972 51.8018 46.5972C51.7326 46.5972 51.6633 46.5972 51.5941 46.5972L46.2646 47.4479C45.6589 47.546 45.2437 48.1023 45.3475 48.6749C45.4513 49.2475 46.0223 49.6565 46.6453 49.542L49.5869 49.0675C46.3511 53.8773 41.904 57.8364 36.5572 60.5685V60.6013Z" fill="#119498"/>
</svg>
