<svg width="94" height="95" viewBox="0 0 94 95" fill="none" xmlns="http://www.w3.org/2000/svg">
<rect x="0.5" y="1.09717" width="93.01" height="93.01" rx="46.505" stroke="#119498"/>
<path d="M68.0227 34.0308C67.6929 33.5031 66.9893 33.3711 66.4616 33.7009C66.2197 33.8549 66.0438 34.1187 65.9778 34.4046C65.9119 34.6904 65.9778 34.9982 66.1317 35.2621C66.2417 35.438 66.3516 35.5919 66.4616 35.7678C68.6163 39.3078 69.7597 43.3975 69.7597 47.5972C69.7597 53.6878 67.385 59.4046 63.0974 63.6922C58.8098 68.0017 53.093 70.3544 47.0025 70.3544C40.9119 70.3544 35.1951 67.9797 30.9075 63.6922C26.5979 59.3826 24.2452 53.6658 24.2452 47.5972C24.2452 41.5286 26.6199 35.7898 30.9075 31.5022C35.1951 27.1926 40.9119 24.8399 47.0025 24.8399C51.2021 24.8399 55.2918 25.9833 58.8318 28.1381C59.0077 28.248 59.1836 28.3579 59.3375 28.4679C59.5794 28.6218 59.8872 28.6878 60.1731 28.6218C60.4589 28.5558 60.7228 28.3799 60.8767 28.1381C61.2065 27.6104 61.0746 26.9287 60.5469 26.5769C60.371 26.467 60.1731 26.3351 59.9752 26.2251C56.0834 23.8505 51.5759 22.5972 46.9805 22.5972C40.2962 22.5972 34.0077 25.1917 29.3024 29.9191C24.575 34.6464 21.9805 40.9349 21.9805 47.5972C21.9805 54.2594 24.575 60.5699 29.3024 65.2753C34.0297 70.0026 40.2962 72.5972 46.9805 72.5972C53.6647 72.5972 59.9312 70.0026 64.6586 65.2753C69.3859 60.5479 71.9805 54.2814 71.9805 47.5972C71.9805 42.9798 70.7272 38.4943 68.3525 34.6024C68.2426 34.4046 68.1106 34.2287 68.0007 34.0308H68.0227Z" fill="#025F60"/>
<path d="M55.246 33.5795C55.5336 33.491 55.7769 33.2919 55.9097 33.0264C56.1973 32.4733 55.976 31.7874 55.4229 31.4998C52.9451 30.2388 50.2902 29.5972 47.4805 29.5972C42.8123 29.5972 38.4097 31.4113 35.1132 34.7299C31.8168 38.0264 29.9805 42.429 29.9805 47.0972C29.9805 51.7653 31.7946 56.168 35.1132 59.4644C38.4097 62.783 42.8123 64.5972 47.4805 64.5972C52.1486 64.5972 56.5513 62.783 59.8477 59.4644C63.1442 56.168 64.9805 51.7653 64.9805 47.0972C64.9805 44.2874 64.3389 41.6104 63.0778 39.1547C62.7902 38.6016 62.1044 38.3804 61.5513 38.668C60.9982 38.9556 60.7769 39.6414 61.0645 40.1945C62.1707 42.3405 62.7238 44.6635 62.7238 47.1193C62.7238 51.1901 61.1309 55.0175 58.2548 57.8936C55.3787 60.7697 51.5513 62.3627 47.4805 62.3627C43.4097 62.3627 39.5822 60.7697 36.7061 57.8936C33.83 55.0175 32.2371 51.1901 32.2371 47.1193C32.2371 43.0485 33.83 39.2211 36.7061 36.345C39.5822 33.4688 43.4097 31.8759 47.4805 31.8759C49.9141 31.8759 52.2592 32.429 54.4052 33.5352C54.6707 33.668 54.9805 33.6901 55.2681 33.6016L55.246 33.5795Z" fill="#025F60"/>
<path d="M48.2118 40.0077C48.504 40.0527 48.8186 40.0077 49.0658 39.8053C49.313 39.6253 49.4704 39.3554 49.5378 39.063C49.5827 38.7706 49.5378 38.4557 49.3355 38.2083C49.1557 37.9609 48.886 37.8034 48.5939 37.7359C45.4251 37.1961 42.1663 38.2533 39.8965 40.5251C36.0085 44.4163 36.0085 50.7818 39.8965 54.6731C41.7843 56.5625 44.3014 57.5972 46.9758 57.5972C49.6502 57.5972 52.1672 56.5625 54.0551 54.6731C56.3249 52.4013 57.3812 49.1398 56.8418 45.9683C56.7969 45.6534 56.6171 45.406 56.3699 45.2261C56.1227 45.0461 55.808 44.9786 55.5159 45.0236C54.8866 45.1361 54.4596 45.7209 54.572 46.3507C54.9765 48.8024 54.1674 51.2992 52.4145 53.0536C50.9536 54.5156 49.0209 55.3029 46.9758 55.3029C44.9306 55.3029 42.9754 54.4931 41.5371 53.0536C38.5256 50.0395 38.5256 45.1586 41.5371 42.1445C43.29 40.3901 45.7846 39.5803 48.2343 39.9852L48.2118 40.0077Z" fill="#119498"/>
<path d="M76.9613 25.3283C76.8063 24.8186 76.3855 24.4641 75.854 24.3533L71.115 23.5112L70.2735 18.7687C70.1849 18.259 69.8084 17.838 69.2991 17.6607C68.7898 17.5056 68.2583 17.6385 67.8818 18.0153L62.6335 23.2452C62.1684 23.7106 61.9691 24.3533 62.0799 24.9738L62.9657 30.0043L46.3126 46.6692C45.8697 47.1124 45.8697 47.8215 46.3126 48.2648C46.5341 48.4864 46.7998 48.5972 47.1099 48.5972C47.4199 48.5972 47.6856 48.4864 47.9071 48.2648L64.5601 31.5998L69.587 32.4863C70.2292 32.5971 70.8714 32.3976 71.3143 31.9323L76.5627 26.7023C76.9391 26.3256 77.072 25.7937 76.917 25.284L76.9613 25.3283ZM73.861 26.3034L69.897 30.2702L65.2244 29.4502L64.4051 24.7743L68.369 20.8075L69.0112 24.5084C69.122 25.0846 69.5648 25.5499 70.1628 25.6608L73.861 26.3034Z" fill="#119498"/>
</svg>
