<svg width="94" height="95" viewBox="0 0 94 95" fill="none" xmlns="http://www.w3.org/2000/svg">
<rect x="0.5" y="1.09717" width="93.01" height="93.01" rx="46.505" stroke="#119498"/>
<path d="M49 52.5972C44.0401 52.5972 40 48.7815 40 44.0972C40 39.4129 44.0401 35.5972 49 35.5972C53.9599 35.5972 58 39.4129 58 44.0972C58 48.7815 53.9599 52.5972 49 52.5972ZM49 37.7532C45.2883 37.7532 42.2664 40.6072 42.2664 44.1127C42.2664 47.6182 45.2883 50.4722 49 50.4722C52.7117 50.4722 55.7336 47.6182 55.7336 44.1127C55.7336 40.6072 52.7117 37.7532 49 37.7532Z" fill="#005E60"/>
<path d="M49 58.5972C48.6906 58.5972 48.4431 58.3408 48.4431 58.0204C48.4431 57.6999 48.6906 57.4436 49 57.4436C56.116 57.4436 61.8862 51.4513 61.8862 44.0972C61.8862 36.743 56.1006 30.7508 49 30.7508C41.8994 30.7508 36.1138 36.743 36.1138 44.0972C36.1138 44.4176 35.8663 44.674 35.5569 44.674C35.2475 44.674 35 44.4176 35 44.0972C35 36.1021 41.2807 29.5972 49 29.5972C56.7193 29.5972 63 36.1021 63 44.0972C63 52.0922 56.7193 58.5972 49 58.5972Z" fill="#005E60"/>
<path d="M31 73.5972C24.3815 73.5972 19 68.4399 19 62.0972C19 55.7545 24.3815 50.5972 31 50.5972C37.6185 50.5972 43 55.7545 43 62.0972C43 68.4399 37.6185 73.5972 31 73.5972ZM31 52.7063C25.6024 52.7063 21.2169 56.9091 21.2169 62.0818C21.2169 67.2545 25.6024 71.4573 31 71.4573C36.3976 71.4573 40.7831 67.2545 40.7831 62.0818C40.7831 56.9091 36.3976 52.7063 31 52.7063Z" fill="#119498"/>
<path d="M25.5277 61.5972C25.5277 61.5972 25.4553 61.5972 25.4263 61.5972C25.1511 61.5294 24.9628 61.2074 25.0062 60.8855C25.4263 58.2758 27.1354 56.2085 29.366 55.6154C29.6412 55.5307 29.9309 55.751 29.9889 56.0729C30.0468 56.3949 29.873 56.7338 29.5978 56.8016C27.7872 57.2761 26.3823 58.9706 26.0346 61.1058C25.9912 61.3938 25.7739 61.5972 25.5277 61.5972Z" fill="#119498"/>
<path d="M52.8281 69.5972H46.4688C45.875 69.5972 45.3906 69.1131 45.3906 68.5197C45.3906 67.9263 45.875 67.4422 46.4688 67.4422H51.8906L52.7031 61.805C52.7656 61.3834 53.0781 61.0242 53.5 60.9149C55.125 60.4933 56.6719 59.853 58.1094 59.0098C58.4844 58.7912 58.9531 58.8224 59.2969 59.0722L63.8594 62.4764L67.9219 58.4164L64.5156 53.8566C64.25 53.5131 64.2344 53.0446 64.4531 52.6698C65.2969 51.2332 65.9375 49.6873 66.3594 48.0632C66.4688 47.6416 66.8125 47.3293 67.25 47.2668L72.8906 46.4548V40.7239L67.25 39.9119C66.8281 39.8494 66.4688 39.5371 66.3594 39.1155C65.9375 37.4915 65.2969 35.9455 64.4531 34.5089C64.2344 34.1341 64.25 33.6656 64.5156 33.3221L67.9219 28.7623L63.8594 24.7023L59.2969 28.1065C58.9531 28.3719 58.4844 28.3876 58.1094 28.1689C56.6719 27.3257 55.125 26.6855 53.5 26.2638C53.0781 26.1545 52.7656 25.811 52.7031 25.3737L51.8906 19.7365H46.1563L45.3438 25.3737C45.2812 25.7954 44.9688 26.1545 44.5469 26.2638C42.9219 26.6855 41.375 27.3257 39.9375 28.1689C39.5625 28.3876 39.0938 28.3719 38.75 28.1065L34.1875 24.7023L30.125 28.7623L33.5312 33.3221C33.7969 33.6656 33.8125 34.1341 33.5938 34.5089C32.75 35.9455 32.1094 37.4915 31.6875 39.1155C31.5781 39.5371 31.2344 39.8494 30.7969 39.9119L25.1562 40.7239V46.1425C25.1562 46.7359 24.6719 47.22 24.0781 47.22C23.4844 47.22 23 46.7359 23 46.1425V39.787C23 39.256 23.3906 38.8032 23.9219 38.7251L29.7812 37.8819C30.1719 36.5545 30.7031 35.2584 31.375 34.0404L27.8281 29.2933C27.5 28.8716 27.5469 28.2626 27.9219 27.8879L33.2969 22.5161C33.6719 22.1413 34.2812 22.0945 34.7031 22.4224L39.4531 25.9671C40.6719 25.3113 41.9531 24.7804 43.2969 24.3743L44.1406 18.5185C44.2188 17.9876 44.6719 17.5972 45.2031 17.5972H52.7969C53.3281 17.5972 53.7812 17.9876 53.8594 18.5185L54.7031 24.3743C56.0312 24.7647 57.3281 25.2957 58.5469 25.9671L63.2969 22.4224C63.7188 22.1101 64.3281 22.1413 64.7031 22.5161L70.0781 27.8879C70.4531 28.2626 70.5 28.8716 70.1719 29.2933L66.625 34.0404C67.2812 35.2584 67.8125 36.5389 68.2187 37.8819L74.0781 38.7251C74.6094 38.8032 75 39.256 75 39.787V47.3761C75 47.9071 74.6094 48.3599 74.0781 48.438L68.2187 49.2813C67.8281 50.6086 67.2969 51.9047 66.625 53.1227L70.1719 57.8698C70.4844 58.2915 70.4531 58.9005 70.0781 59.2752L64.7031 64.647C64.3281 65.0218 63.7344 65.0686 63.2969 64.7407L58.5469 61.196C57.3281 61.8518 56.0469 62.3828 54.7031 62.7888L53.8594 68.6446C53.7812 69.1755 53.3281 69.5659 52.7969 69.5659L52.8281 69.5972Z" fill="#005E60"/>
<path d="M46.8929 77.5972C46.601 77.5972 46.3252 77.4835 46.0981 77.2724L38.3285 69.4949C37.8905 69.0565 37.8905 68.3421 38.3285 67.9199C38.7664 67.4977 39.4801 67.4815 39.9019 67.9199L47.6715 75.6974C48.1095 76.1358 48.1095 76.8503 47.6715 77.2724C47.4607 77.4835 47.1687 77.5972 46.8767 77.5972H46.8929Z" fill="#119498"/>
</svg>
