<svg width="94" height="95" viewBox="0 0 94 95" fill="none" xmlns="http://www.w3.org/2000/svg">
<rect x="0.5" y="1.09717" width="93.01" height="93.01" rx="46.505" stroke="#119498"/>
<path d="M78.9381 46.0181L72.599 27.9395C72.2558 26.9284 71.1051 26.3621 70.0553 26.7261L64.665 28.627C64.1603 28.809 63.7566 29.173 63.5345 29.6381C63.3124 30.1235 63.2721 30.6695 63.4537 31.1548L63.5143 31.3166C59.5978 32.267 56.3677 31.4379 53.5009 30.7301C52.8751 30.5683 52.2896 30.4268 51.7042 30.3055C49.0999 29.719 46.3947 29.1932 44.8604 29.4561C43.0636 29.7797 40.7823 30.9728 39.026 32.5097C39.026 32.5097 39.0058 32.5299 38.9856 32.5501C38.7635 32.5501 38.5213 32.5501 38.2588 32.5501C35.7959 32.5906 33.0301 32.631 30.5469 31.3166L30.6075 31.175C30.7892 30.6695 30.7488 30.1235 30.5267 29.6583C30.3047 29.173 29.9009 28.809 29.3962 28.6472L23.9857 26.7059C22.9561 26.3419 21.8054 26.9284 21.442 27.9192L15.1029 46.0181C14.7395 47.0494 15.2846 48.2021 16.3142 48.5661L21.7045 50.467C22.512 50.7501 23.481 50.467 23.9857 49.739C24.5712 50.3456 25.298 51.2354 26.1257 52.2263C26.6708 52.8734 27.2562 53.6014 27.9023 54.3496L27.4783 54.9159C26.9736 55.5832 26.7515 56.4123 26.8525 57.2616C26.9736 58.111 27.3975 58.839 28.0638 59.3647C28.7502 59.8905 29.6183 60.0927 30.446 59.9714C30.5469 60.9016 31.0314 61.7307 31.7582 62.297C32.5455 62.9036 33.5953 63.1261 34.5846 62.9036C34.7057 63.8338 35.17 64.6427 35.8968 65.1887C36.7649 65.8561 37.9156 66.0583 38.9856 65.7145C39.1471 66.4223 39.5509 67.0492 40.1363 67.4738C41.3072 68.3636 43.0838 68.2827 44.1538 67.3121L47.0609 69.0512C47.6867 69.4152 48.4135 69.5972 49.1201 69.5972C49.4835 69.5972 49.8671 69.5365 50.2304 69.4556C51.3004 69.1523 52.2089 68.4647 52.754 67.4941C52.9962 67.0694 53.1577 66.6043 53.2385 66.1392L54.1873 66.6852C55.1362 67.2312 56.2869 67.3727 57.3569 67.0896C58.4269 66.7863 59.3353 66.0987 59.8804 65.1281C60.1227 64.7034 60.2842 64.2181 60.3649 63.7327C61.0917 63.935 61.8589 63.935 62.5857 63.7327C63.6556 63.4294 64.5641 62.7418 65.1092 61.7712C65.4726 61.1241 65.6543 60.4163 65.6543 59.7085C67.1078 59.6681 68.4604 58.8794 69.1872 57.6054C69.7323 56.6347 69.8736 55.5225 69.5506 54.471C69.268 53.4599 68.6017 52.5701 67.6933 51.9634C67.5722 51.8825 67.4712 51.8016 67.3299 51.7208C67.8548 51.195 68.7633 50.3456 69.9342 49.6985C70.4187 50.467 71.4483 50.831 72.276 50.5276L77.6663 48.6268C78.6959 48.2628 79.241 47.1101 78.8776 46.0788L78.9381 46.0181ZM77.0202 46.645L71.7309 48.5661L65.3514 30.5481L70.6811 28.6068L77.0202 46.645ZM55.1564 53.1768C54.8737 53.6621 55.0554 54.289 55.54 54.5721L63.5345 59.1221C63.5345 59.1221 63.5749 59.1221 63.5749 59.1423C63.7162 59.6681 63.6354 60.2343 63.3528 60.7196C63.0702 61.205 62.6058 61.569 62.0608 61.7105C61.5157 61.8521 60.9302 61.7914 60.4457 61.5083L52.2291 56.8167C51.9868 56.6752 51.7042 56.655 51.4417 56.7156C51.1793 56.7965 50.9572 56.9583 50.8159 57.201C50.5333 57.6863 50.715 58.3132 51.1995 58.5963L58.3461 62.6812C58.4269 63.1463 58.3461 63.6316 58.0837 64.0563C57.801 64.5416 57.3569 64.9056 56.7916 65.0472C56.2465 65.1887 55.6611 65.1281 55.1766 64.845L47.8079 60.6387C47.3233 60.3556 46.6975 60.5376 46.4149 61.023C46.2736 61.2656 46.2534 61.5285 46.3139 61.7914C46.3947 62.0543 46.5562 62.2767 46.7984 62.4183L51.1793 64.9056C51.3004 65.4112 51.2197 65.9572 50.9572 66.4223C50.6746 66.9076 50.2304 67.2716 49.6652 67.4132C49.1201 67.5547 48.5548 67.4941 48.0703 67.2109L45.4256 65.6336L45.466 65.5932C45.9707 64.9258 46.1928 64.0967 46.0717 63.2474C45.9505 62.3981 45.5266 61.6701 44.8604 61.1645C44.2144 60.6792 43.427 60.4567 42.6397 60.5376C42.6397 60.4567 42.6397 60.3961 42.6397 60.3152C42.5387 59.3647 42.0744 58.5356 41.3274 57.9694C40.5401 57.3627 39.4903 57.1403 38.5011 57.3627C38.3799 56.4527 37.9156 55.6236 37.1888 55.0776C36.2602 54.3699 35.0085 54.1879 33.8982 54.6125C33.6963 53.9856 33.3329 53.4396 32.808 53.0352C31.7986 52.2668 30.3854 52.1859 29.3154 52.8127C28.73 52.1252 28.1849 51.4579 27.6802 50.8714C26.5093 49.4559 25.5604 48.3234 24.7731 47.6359L29.8403 33.2175C32.2023 34.3701 34.7461 34.5521 36.9466 34.5723C36.563 34.9768 36.1794 35.3812 35.7757 35.7655C35.493 36.0486 35.17 36.3114 34.8672 36.5743C34.1 37.2417 33.3733 37.8686 33.0301 38.6572C32.7676 39.2841 32.6667 39.8706 32.7474 40.3963C32.8282 40.9626 33.0704 41.4479 33.4742 41.8321C34.3827 42.7017 35.8362 42.8432 36.9062 42.8432C38.0973 42.823 39.349 42.5601 40.1767 42.1759C40.9842 41.7917 41.7312 41.2254 42.4378 40.7199C43.1242 40.2143 43.7904 39.729 44.3759 39.4863C44.8604 39.2841 46.4149 38.9606 47.1013 39.183C50.8159 40.4368 56.9733 45.6339 61.4551 49.4356C63.5749 51.2152 65.3918 52.7723 66.5829 53.5812C67.6327 54.3092 68.0163 55.5427 67.451 56.5336C66.9463 57.4234 65.8763 57.8279 64.9073 57.4841C64.7862 57.4436 64.665 57.383 64.5439 57.3223L56.5494 52.7723C56.0649 52.4892 55.439 52.6712 55.1564 53.1565V53.1768ZM29.0934 56.1494L30.022 54.9159C30.2239 54.6327 30.5469 54.471 30.9103 54.471C31.1526 54.471 31.3948 54.5519 31.5765 54.6934C32.061 55.0574 32.162 55.7652 31.7784 56.2505L30.8497 57.4841C30.4863 57.9492 29.7596 58.0503 29.2952 57.6863C29.053 57.5043 28.9117 57.2414 28.8713 56.9583C28.8309 56.655 28.9117 56.3719 29.0934 56.1292V56.1494ZM32.808 58.5761L33.9183 57.1201C34.2212 56.7359 34.6855 56.4932 35.1498 56.4932C35.4527 56.4932 35.7353 56.5943 35.9574 56.7561C36.5832 57.2212 36.6639 58.1514 36.1592 58.8187L35.0489 60.2747C34.5644 60.9218 33.5953 61.0836 33.0099 60.6387C32.7071 60.4163 32.5254 60.0725 32.485 59.7085C32.4446 59.3041 32.5455 58.9199 32.808 58.5761ZM36.9466 61.4678L38.0569 60.0119C38.5415 59.3647 39.5105 59.203 40.0959 59.6479C40.3988 59.8703 40.5805 60.2141 40.6208 60.5781C40.6612 60.9825 40.5603 61.387 40.2978 61.7105L39.1875 63.1665C38.703 63.8136 37.7339 63.9754 37.1485 63.5305C36.8456 63.3081 36.6639 62.9643 36.6236 62.6003C36.5832 62.1958 36.6841 61.7914 36.9466 61.4678ZM41.1861 64.2787L42.1148 63.0452C42.3167 62.7621 42.6397 62.6003 43.0031 62.6003C43.2453 62.6003 43.4876 62.6812 43.6693 62.8227C43.9115 63.0047 44.0528 63.2676 44.0932 63.5507C44.1336 63.8541 44.0528 64.1372 43.8712 64.3798L42.9425 65.6134C42.5791 66.0785 41.8725 66.1796 41.388 65.8156C40.9035 65.4516 40.8025 64.7438 41.1861 64.2585V64.2787ZM65.7552 50.3861C64.8669 49.6581 63.8575 48.8088 62.727 47.8381C60.3851 45.8563 57.7203 43.5914 55.0958 41.6299C51.9868 39.2841 49.5844 37.8483 47.7473 37.2417C47.3637 37.1203 46.9196 37.0597 46.4552 37.0597C45.2843 37.0597 44.0327 37.4034 43.5885 37.5854C42.7608 37.9292 41.9735 38.5157 41.2063 39.0819C40.5603 39.547 39.9143 40.0323 39.2884 40.3357C38.7433 40.5986 37.7541 40.8008 36.886 40.8008C35.7757 40.8412 35.1296 40.5783 34.9076 40.3559C34.847 40.2952 34.6653 40.1132 34.9479 39.4661C35.0893 39.1223 35.6747 38.6168 36.2198 38.1517C36.5428 37.8686 36.886 37.5854 37.2292 37.2619C37.7945 36.7159 38.3396 36.1294 38.925 35.5026C39.4701 34.9363 39.9748 34.3903 40.3786 34.0263C42.0744 32.5299 44.0327 31.6603 45.2238 31.4581C46.5158 31.2155 49.6046 31.9232 51.2802 32.2872C51.8253 32.4086 52.3906 32.5501 53.0164 32.7119C54.6921 33.1366 56.4282 33.5612 58.4067 33.723C60.4053 33.8848 62.303 33.723 64.2007 33.2579L69.268 47.6965C67.6529 48.5256 66.4618 49.6379 65.7552 50.3861ZM28.6694 30.4672L22.3505 48.5054L17.041 46.6854L23.2993 28.6472L28.6694 30.4672Z" fill="#025F60"/>
</svg>
