<svg width="70" height="70" viewBox="0 0 70 70" fill="none" xmlns="http://www.w3.org/2000/svg">
    <rect x="0.5" y="0.5" width="69" height="69" rx="34.5" stroke="#119498" />
    <path
    d="M53.1125 42.7251L52.9264 42.4645L53.187 42.2858C54.4305 41.4444 55.5846 40.5062 56.5972 39.4861L59.3821 36.7013C60.149 35.9344 60.2011 34.7132 59.5086 33.9537C59.3374 33.7676 59.1363 33.6112 58.913 33.507L58.5183 33.3134L59.6278 32.2114C60.3649 31.4742 60.4394 30.2977 59.799 29.5308C59.5905 29.2776 59.315 29.0766 59.0098 28.95L58.697 28.8234L58.8459 28.5256C59.1959 27.8108 59.1066 26.9396 58.6226 26.3662C58.2577 25.9344 57.7141 25.6663 57.1482 25.644C56.8579 25.644 56.5898 25.6812 56.3292 25.7855L56.0239 25.9046L55.9197 25.5993C55.8601 25.4206 55.7707 25.2493 55.659 25.1004C55.3165 24.6313 54.7879 24.3335 54.2145 24.2888C53.6486 24.2516 53.0753 24.4526 52.6732 24.8622L51.1244 26.4109L46.1133 21.37C45.8229 20.7222 45.4729 20.0446 45.0187 19.2479L44.8996 19.0394L52.085 11.854C52.2562 11.6827 52.2562 11.3998 52.085 11.2285C51.9137 11.0572 51.6308 11.0572 51.4595 11.2285L46.3441 16.3439L44.3188 18.0788L44.1252 17.7884C43.2912 16.545 42.3456 15.3983 41.3329 14.3782L38.4439 11.504C37.6844 10.8264 36.5228 10.8041 35.8005 11.4593C35.6144 11.6306 35.458 11.8316 35.3538 12.055L35.1602 12.4496L34.0582 11.3402C33.3284 10.603 32.1445 10.5286 31.3776 11.1689C31.1244 11.3774 30.9234 11.6529 30.7968 11.9582L30.6702 12.2709L30.3724 12.122C29.6501 11.7721 28.7864 11.8614 28.213 12.3454C27.7812 12.7103 27.5131 13.2464 27.4908 13.8197C27.4759 14.1027 27.528 14.3856 27.6322 14.6388L27.7514 14.9441L27.4461 15.0483C27.2674 15.1079 27.0961 15.1972 26.9472 15.3089C26.4781 15.6514 26.1803 16.1801 26.1356 16.7534C26.0909 17.3268 26.2994 17.8927 26.7015 18.2948L28.2503 19.8435L23.3135 24.7505C23.0529 24.8696 22.7923 25.0036 22.5392 25.1302L21.9137 25.4429C21.7424 25.5248 21.5712 25.6068 21.3999 25.7036C21.3329 25.7408 21.2733 25.778 21.2063 25.8227C21.1468 25.8599 21.0872 25.8972 21.0276 25.9344L20.8415 26.0386L20.2086 25.5248L13.4625 18.3692C13.3806 18.2799 13.2689 18.2352 13.1572 18.2278C13.038 18.2278 12.9264 18.265 12.8445 18.3469C12.6657 18.5107 12.6583 18.7936 12.8296 18.9724L20.015 26.5375L19.5905 26.813C19.2778 27.0289 18.98 27.2598 18.6821 27.4906L18.4811 27.647C18.3992 27.714 18.3173 27.7735 18.2354 27.8331C18.1237 27.915 18.0045 27.9969 17.9003 28.0863C17.3567 28.533 16.8281 29.017 16.3292 29.5159L13.5444 32.3007C12.7774 33.0677 12.7253 34.2888 13.4178 35.0483C13.5891 35.2345 13.7901 35.3908 14.0135 35.4951L14.4081 35.6887L13.2987 36.7907C13.12 36.9694 12.9785 37.1779 12.8742 37.4161C12.7774 37.6395 12.7179 37.8852 12.703 38.131C12.6881 38.3767 12.7179 38.6149 12.7849 38.8458C12.8221 38.9575 12.8668 39.0692 12.9264 39.1734C12.9859 39.2776 13.0529 39.3819 13.1274 39.4787C13.2316 39.6053 13.3508 39.7244 13.4923 39.8212C13.6263 39.918 13.7678 39.9999 13.9241 40.0595L14.2369 40.1861L14.0879 40.4839C14.0433 40.5732 14.006 40.6626 13.9762 40.752C13.9167 40.9381 13.8794 41.1243 13.872 41.3179C13.872 41.5114 13.8869 41.705 13.9316 41.8837C13.9986 42.1667 14.1252 42.4199 14.3113 42.6358C14.6762 43.0677 15.2197 43.3357 15.7856 43.3581C16.076 43.3729 16.3441 43.3208 16.6047 43.2166L16.91 43.0974L17.0142 43.4027C17.0738 43.5814 17.1631 43.7527 17.2748 43.9016C17.6173 44.3707 18.146 44.6686 18.7194 44.7132C19.2853 44.7505 19.8586 44.5494 20.2607 44.1399L21.8095 42.5911L26.8206 47.6321C27.1334 48.3394 27.5205 49.0915 28.0045 49.918L28.1162 50.119L26.9919 51.3476L20.5064 57.4608C20.4171 57.5427 20.3724 57.6544 20.3649 57.7735C20.3649 57.8927 20.4022 58.0044 20.4841 58.0863C20.6479 58.2575 20.9383 58.265 21.1095 58.1086L28.6523 51.0051L28.8534 51.3104C29.6799 52.5241 30.5958 53.6484 31.5861 54.6388L34.3932 57.4459C34.4379 57.4757 34.4602 57.498 34.4826 57.5129C35.2421 58.1905 36.4036 58.2129 37.1259 57.5502C37.3121 57.3789 37.4684 57.1779 37.5727 56.9545L37.7663 56.5598L38.8608 57.6693C39.5608 58.3692 40.8042 58.4511 41.5414 57.8406C41.7946 57.6321 41.9956 57.3566 42.1222 57.0513L42.2488 56.7385L42.5466 56.8875C43.2614 57.2374 44.1326 57.1481 44.706 56.6641C45.1378 56.2992 45.4059 55.7557 45.4282 55.1898C45.4431 54.9068 45.391 54.6239 45.2867 54.3707L45.1676 54.0654L45.4729 53.9612C45.6516 53.9016 45.8229 53.8123 45.9718 53.7006C46.4409 53.3581 46.7387 52.8294 46.7834 52.256C46.8281 51.6827 46.6196 51.1168 46.2175 50.7147L44.6687 49.166L49.6054 44.259C50.3128 43.9463 51.0351 43.574 51.8765 43.0826L52.1296 42.9336L52.2934 43.1794L52.0924 43.4325L52.3456 43.2613L59.4193 50.335C59.5831 50.5062 59.8735 50.5062 60.0447 50.335C60.216 50.1637 60.216 49.8808 60.0447 49.7095L53.1051 42.7177L53.1125 42.7251ZM27.3418 17.6767C27.1185 17.4534 26.9993 17.1406 27.0291 16.8279C27.0514 16.5077 27.2153 16.2248 27.4759 16.0312C27.9152 15.711 28.5481 15.778 28.9576 16.1875L32.7849 20.0148L33.4103 19.3893L28.6821 14.6611C28.4736 14.4526 28.3694 14.1697 28.3843 13.8644C28.3992 13.5368 28.5481 13.2315 28.7938 13.023C29.1959 12.6805 29.8958 12.7326 30.2979 13.1272L34.9815 17.8108L35.6069 17.1853L31.869 13.4474C31.6531 13.2315 31.5414 12.9411 31.5563 12.6283C31.5712 12.3156 31.7127 12.0401 31.9509 11.8465C32.3754 11.4966 33.0306 11.5487 33.4476 11.9657L35.6516 14.192C35.6516 14.192 35.7112 14.2665 35.7484 14.3037L37.1259 15.6812L37.7514 15.0557L36.2101 13.4549C36.1058 13.2985 36.0537 13.09 36.0537 12.8815C36.0537 12.5911 36.1877 12.3156 36.4036 12.1146C36.7164 11.8316 37.2302 11.7869 37.6546 12.0178C37.7365 12.0625 37.8333 12.1146 37.9152 12.1965L40.7223 15.0036C41.7499 16.0312 42.6955 17.2076 43.5518 18.5107C43.6635 18.6745 43.7603 18.8458 43.8646 19.017L44.1103 19.4191C44.1996 19.5606 44.289 19.6946 44.3709 19.8435C44.7283 20.4839 45.0485 21.1317 45.3314 21.7646C45.3835 21.8763 45.4282 21.9508 45.4878 22.0103L50.5064 27.0289L49.1587 28.3767L48.9725 27.982C48.8757 27.781 48.7491 27.5948 48.5853 27.4385C48.2205 27.0736 47.729 26.8726 47.1929 26.8651C46.6717 26.8651 46.1803 27.0736 45.808 27.4459L44.3858 28.8756C43.5369 29.6946 43.0008 30.4541 42.6955 31.2806L42.5243 31.7423L39.3821 28.4735C39.1066 28.198 38.6077 27.982 38.2652 27.982C38.2652 27.982 38.2577 27.982 38.2503 27.982L35.0857 27.7363C34.84 27.7363 34.5347 27.714 34.2369 27.6619C33.2093 27.4906 32.3456 26.9843 31.3627 25.9716L29.9256 24.542C29.7246 24.3409 29.6054 24.0729 29.6054 23.7825C29.6054 23.4921 29.7171 23.224 29.9182 23.023C30.3277 22.6135 31.0202 22.6135 31.4297 23.023L33.0157 24.6164L33.6412 23.991L27.3344 17.6842L27.3418 17.6767ZM42.3828 32.8592L42.3679 33.1942L42.1222 36.3514C42.1222 36.4928 42.0105 36.7832 41.8988 36.8949L38.2354 40.4243L37.9077 40.4094L34.7357 40.1637C34.5943 40.1637 34.3113 40.052 34.1922 39.9403L30.5585 36.1652L30.5734 35.8301L30.8191 32.673C30.8191 32.5241 30.9383 32.2412 31.0574 32.122L34.7134 28.6001L35.0485 28.6149L38.2056 28.8607C38.3471 28.8607 38.63 28.9724 38.7491 29.084L42.3828 32.8592ZM19.6352 43.5442C19.4342 43.7453 19.1587 43.8569 18.8683 43.8569C18.8385 43.8569 18.8087 43.8569 18.7864 43.8569C18.4662 43.8346 18.1832 43.6708 17.9896 43.4102C17.6695 42.9709 17.7365 42.338 18.146 41.9284L21.9733 38.1012L21.3478 37.4757L16.6196 42.2039C16.4185 42.405 16.143 42.5167 15.8229 42.5018C15.659 42.5018 15.5027 42.4571 15.3612 42.3826C15.2123 42.3156 15.0857 42.2114 14.9889 42.0922C14.8996 41.988 14.84 41.8614 14.8028 41.7274C14.773 41.6008 14.7581 41.4593 14.773 41.3253C14.7879 41.1913 14.8176 41.0572 14.8698 40.9381C14.9293 40.8041 15.0038 40.6849 15.1006 40.5956L19.7841 35.912L19.1587 35.2866L15.4208 39.0245C15.2048 39.2404 14.8921 39.3521 14.6017 39.3372C14.2964 39.3223 14.0135 39.1808 13.8199 38.9426C13.4699 38.5181 13.522 37.8629 13.939 37.4459L16.1133 35.294C16.2026 35.2121 16.2473 35.1823 16.2771 35.1451L17.6546 33.7676L17.0291 33.1421L15.4282 34.6835C15.2719 34.7877 15.0634 34.8398 14.8549 34.8398C14.5645 34.8398 14.289 34.7058 14.0954 34.4899C13.8124 34.1771 13.7678 33.6633 13.9986 33.2389C14.0507 33.1496 14.0954 33.0602 14.1773 32.9783L16.9844 30.1712C18.012 29.1436 19.1885 28.1905 20.4915 27.3417C20.6777 27.2225 20.8638 27.1108 21.0574 26.9917L21.4074 26.7758C21.5414 26.6864 21.6829 26.5971 21.8243 26.5226C22.4647 26.1652 23.0976 25.845 23.7231 25.5695L23.4625 25.3089L23.8943 24.8622L24.222 25.1749L28.913 20.4839L30.2607 21.8316L29.866 22.0178C29.665 22.1146 29.4789 22.2412 29.3225 22.405C28.9502 22.7773 28.7491 23.2687 28.7491 23.7899C28.7491 24.3111 28.9576 24.81 29.3299 25.1749L30.7596 26.5971C31.5861 27.4459 32.3456 27.982 33.1572 28.2948L33.6188 28.466L30.4617 31.5114C30.3873 31.5934 30.3277 31.6678 30.2756 31.7497C30.1564 31.9433 30.0522 32.1667 30.0075 32.3752C29.9852 32.472 29.9703 32.5688 29.9703 32.6507L29.7246 35.8152C29.7246 36.0759 29.7022 36.3588 29.6576 36.6566C29.6427 36.746 29.6427 36.7832 29.6352 36.8205C29.5384 37.3119 29.3523 37.7661 29.0768 38.2054C28.8087 38.6298 28.4439 39.0617 27.9599 39.5308L26.5377 40.9679C26.3366 41.1689 26.0537 41.3179 25.7633 41.2881C25.4878 41.2881 25.2197 41.1764 25.0187 40.9753C24.8176 40.7743 24.706 40.5062 24.706 40.2158C24.706 39.9254 24.8176 39.6574 25.0187 39.4563L26.6047 37.8703L25.9792 37.2449L19.6724 43.5517L19.6352 43.5442ZM45.5995 51.3551C45.8229 51.5785 45.9345 51.8912 45.9122 52.2039C45.8899 52.5241 45.7261 52.8071 45.4655 53.0006C45.0261 53.3208 44.3932 53.2538 43.9837 52.8443L40.1564 49.017L39.531 49.6425L44.2592 54.3707C44.4602 54.5718 44.5719 54.8547 44.557 55.1674C44.5421 55.4951 44.3932 55.8004 44.1475 56.0088C43.7454 56.3514 43.0455 56.2992 42.6434 55.9046L37.9599 51.2211L37.3344 51.8465L41.0723 55.5844C41.2882 55.8004 41.3999 56.0907 41.385 56.4035C41.3701 56.7088 41.2287 56.9917 40.9904 57.1928C40.8042 57.3491 40.566 57.4236 40.3277 57.4236C40.0299 57.4236 39.7246 57.3044 39.4937 57.0736L37.2897 54.8473C37.2897 54.8473 37.2227 54.7728 37.1929 54.7356L35.8229 53.3655L35.1974 53.991L36.7387 55.5919C36.843 55.7482 36.8951 55.9567 36.8951 56.1652C36.8951 56.463 36.7611 56.7311 36.5451 56.9321C36.2324 57.2151 35.7186 57.2598 35.2942 57.0289C35.2197 56.9917 35.1229 56.9396 35.0336 56.8502L32.2264 54.0431C31.1989 53.0155 30.2532 51.8391 29.3969 50.536C29.2853 50.3722 29.1885 50.2009 29.0842 50.0297L28.8385 49.6276C28.7491 49.4861 28.6598 49.3521 28.5779 49.2032C28.2205 48.5628 27.9003 47.9225 27.6173 47.2821C27.5801 47.2002 27.5354 47.1034 27.461 47.0364L22.4424 42.0178L23.7901 40.67L23.9762 41.0647C24.073 41.2657 24.1996 41.4519 24.3634 41.6082C24.7432 41.988 25.2197 42.2114 25.7484 42.1816C26.2771 42.1816 26.7685 41.9731 27.1408 41.6008L28.563 40.1712C29.4118 39.3521 29.948 38.5926 30.2532 37.7661L30.4245 37.3044L33.5667 40.5732C33.8348 40.8413 34.3485 41.0572 34.7134 41.0647L37.8705 41.3104C38.1162 41.3253 38.4215 41.3327 38.7194 41.3774C39.7469 41.5487 40.6106 42.055 41.5935 43.0677L43.0306 44.4973C43.2316 44.6983 43.3508 44.9664 43.3508 45.2568C43.3508 45.5472 43.2391 45.8152 43.038 46.0163C42.6211 46.4333 41.9509 46.4333 41.5265 46.0237L39.9331 44.4303L39.3076 45.0557L45.6144 51.3625L45.5995 51.3551ZM51.9063 42.0476L51.5637 42.256C51.4223 42.3454 51.2808 42.4347 51.1393 42.5167C50.5064 42.8741 49.8586 43.1942 49.2182 43.4772C49.1438 43.507 49.047 43.5591 48.9651 43.6336L44.0507 48.5479L42.703 47.2002L43.1051 47.014C43.3061 46.9173 43.4923 46.7907 43.6486 46.6269C44.0209 46.2546 44.222 45.7631 44.222 45.2345C44.222 44.7132 44.0135 44.2143 43.6412 43.8495L42.2115 42.4273C41.3925 41.5785 40.633 41.0423 39.8139 40.7371L39.3523 40.5658L42.5168 37.5204C42.7849 37.2523 43.0083 36.7386 43.0083 36.3811L43.254 33.224C43.254 32.956 43.2763 32.673 43.321 32.3826C43.4923 31.3476 43.9986 30.4913 45.0187 29.501L46.4409 28.0639C46.6419 27.8629 46.9174 27.7438 47.2004 27.7438C47.4982 27.7438 47.7588 27.8555 47.9599 28.0565C48.1609 28.2575 48.2726 28.5256 48.2726 28.816C48.2726 29.1064 48.1609 29.3744 47.9599 29.5755L46.3739 31.1615L46.9993 31.7869L53.3061 25.4802C53.5295 25.2568 53.8422 25.1377 54.155 25.1674C54.4751 25.1898 54.7581 25.3536 54.9517 25.6142C55.2719 26.0535 55.2048 26.6939 54.7953 27.1034L50.9681 30.9307L51.5935 31.5561L56.3217 26.8279C56.5228 26.6194 56.7908 26.5152 57.1185 26.5301C57.4461 26.545 57.7514 26.6939 57.9599 26.9396C58.3024 27.3417 58.2503 28.0416 57.8556 28.4437L53.1721 33.1272L53.7975 33.7527L57.5354 30.0148C57.7514 29.7989 58.0492 29.6797 58.3545 29.7021C58.6672 29.717 58.9427 29.8584 59.1438 30.0967C59.4937 30.5211 59.4416 31.1764 59.0246 31.5934L56.8504 33.7453C56.7536 33.8272 56.7164 33.8569 56.6866 33.8942L55.3091 35.2717L55.9346 35.8971L57.5354 34.3558C57.6992 34.2516 57.9077 34.192 58.1088 34.1995C58.4066 34.1995 58.6747 34.3335 58.8757 34.5494C59.1587 34.8622 59.2033 35.3759 58.9725 35.8004C58.9278 35.8748 58.8757 35.9716 58.7938 36.061L55.9867 38.8681C54.9591 39.8957 53.7826 40.8487 52.4796 41.6976C52.2934 41.8167 52.1073 41.9359 51.9137 42.0476H51.9063Z"
    fill="#005E60"
    />
</svg>