<svg width="90" height="90" viewBox="0 0 90 90" fill="none" xmlns="http://www.w3.org/2000/svg">
<path d="M53.1463 39.216C52.0809 34.7584 49.0286 31.0785 44.9827 29.1504C40.9042 31.0916 37.8387 34.8107 36.793 39.3075" stroke="#009399" stroke-width="2" stroke-linecap="round" stroke-linejoin="round"/>
<path d="M40.5983 42.0659C36.3694 37.837 30.2451 36.6736 24.9574 38.5495C23.0816 43.8372 24.245 49.9615 28.4738 54.1903C32.7027 58.4192 38.827 59.5826 44.1147 57.7068C45.9906 52.4191 44.8272 46.2947 40.5983 42.0659Z" stroke="#009399" stroke-width="2" stroke-linecap="round" stroke-linejoin="round"/>
<path d="M61.4928 54.1903C65.7217 49.9615 66.8851 43.8372 65.0093 38.5495C59.7216 36.6736 53.5972 37.837 49.3684 42.0659C45.1395 46.2947 43.9761 52.4191 45.8519 57.7068C51.1397 59.5826 57.264 58.4192 61.4928 54.1903Z" stroke="#009399" stroke-width="2" stroke-linecap="round" stroke-linejoin="round"/>
<path d="M33.7734 47.1052L44.2443 57.576" stroke="#009399" stroke-width="2" stroke-linecap="round" stroke-linejoin="round"/>
<path d="M56.3224 47.1052L45.8516 57.7068" stroke="#009399" stroke-width="2" stroke-linecap="round" stroke-linejoin="round"/>
<path d="M13.793 38.1115C16.9434 23.7778 29.7149 13.0586 44.9898 13.0586" stroke="#AEFF00" stroke-width="2" stroke-linecap="round" stroke-linejoin="round"/>
<path d="M37.7076 76.0992C23.5765 72.805 13.0469 60.125 13.0469 44.9939" stroke="#AEFF00" stroke-width="2" stroke-linecap="round" stroke-linejoin="round"/>
<path d="M76.074 52.3667C72.7471 66.452 60.0932 76.9294 44.9883 76.9294" stroke="#AEFF00" stroke-width="2" stroke-linecap="round" stroke-linejoin="round"/>
<path d="M52.1914 13.8691C66.3617 17.1372 76.9305 29.8303 76.9305 44.994" stroke="#AEFF00" stroke-width="2" stroke-linecap="round" stroke-linejoin="round"/>
<path d="M40.4688 7.90161L45.6192 13.0521L40.4688 18.2025" stroke="#AEFF00" stroke-width="2" stroke-linecap="round" stroke-linejoin="round"/>
<path d="M82.0822 40.8828L76.9317 46.0333L71.7812 40.8828" stroke="#AEFF00" stroke-width="2" stroke-linecap="round" stroke-linejoin="round"/>
<path d="M50.2064 82.08L45.0625 76.9361L50.2064 71.7856" stroke="#AEFF00" stroke-width="2" stroke-linecap="round" stroke-linejoin="round"/>
<path d="M7.90234 50.1443L13.0463 44.9939L18.1967 50.1443" stroke="#AEFF00" stroke-width="2" stroke-linecap="round" stroke-linejoin="round"/>
</svg>
