    <svg width="40" height="40" viewBox="0 0 70 70" fill="none" xmlns="http://www.w3.org/2000/svg">
      <path
        d="M56.9331 28.1912C56.9331 25.021 55.1442 22.2131 52.3816 20.8545C53.3667 17.9447 52.6533 14.7066 50.4342 12.4988C48.9057 10.9704 46.8678 10.1212 44.694 10.1212C43.7996 10.1212 42.9164 10.2684 42.0786 10.5515C40.7199 7.77756 37.9121 6 34.7419 6C31.5718 6 28.7639 7.78888 27.4053 10.5515C26.5674 10.2684 25.673 10.1212 24.7899 10.1212C22.6161 10.1212 20.5781 10.959 19.0496 12.4988C16.8305 14.718 16.1172 17.9447 17.1022 20.8545C14.3396 22.2131 12.5508 25.021 12.5508 28.1912C12.5508 31.3613 14.3396 34.1692 17.1022 35.5278C16.1172 38.4376 16.8305 41.6757 19.0496 43.8835C20.5781 45.412 22.6161 46.2611 24.7899 46.2611C25.6843 46.2611 26.5674 46.1139 27.4053 45.8309C28.7639 48.6048 31.5718 50.3823 34.7419 50.3823C37.9121 50.3823 40.7199 48.5934 42.0786 45.8309C42.9164 46.1139 43.8109 46.2611 44.694 46.2611C46.8678 46.2611 48.9057 45.4233 50.4342 43.8835C52.6533 41.6644 53.3667 38.4376 52.3816 35.5278C55.1555 34.1692 56.9331 31.3613 56.9331 28.1912ZM50.5022 33.7729C50.1738 33.8748 49.9021 34.1239 49.7663 34.4409C49.6304 34.7579 49.653 35.1202 49.8115 35.4259C51.0003 37.7017 50.5815 40.4416 48.7926 42.2305C47.7057 43.3174 46.2564 43.9175 44.7053 43.9175C43.7656 43.9175 42.8145 43.691 41.9767 43.2495C41.671 43.0909 41.3087 43.0796 40.9917 43.2042C40.6747 43.34 40.4256 43.6004 40.3237 43.9401C39.5651 46.397 37.3233 48.0387 34.7419 48.0387C32.1605 48.0387 29.9301 46.3857 29.1602 43.9401C29.0583 43.6118 28.8092 43.34 28.4921 43.2042C28.345 43.1476 28.1978 43.1136 28.0393 43.1136C27.8581 43.1136 27.6657 43.1589 27.4959 43.2495C26.658 43.6797 25.7183 43.9175 24.7672 43.9175C23.2274 43.9175 21.7669 43.3174 20.68 42.2305C18.8798 40.4303 18.4722 37.7017 19.661 35.4259C19.8195 35.1202 19.8308 34.7579 19.7063 34.4409C19.5704 34.1239 19.31 33.8748 18.9703 33.7729C16.5135 33.0143 14.8718 30.7726 14.8718 28.1912C14.8718 25.6097 16.5248 23.3793 18.9703 22.6094C19.2987 22.5075 19.5704 22.2584 19.7063 21.9414C19.8422 21.6244 19.8195 21.2621 19.661 20.9564C18.4835 18.6807 18.8911 15.9407 20.68 14.1519C21.7669 13.0649 23.2161 12.4649 24.7672 12.4649C25.7069 12.4649 26.658 12.6913 27.4959 13.1329C27.8016 13.2914 28.1639 13.314 28.4809 13.1782C28.7979 13.0423 29.0469 12.7819 29.1488 12.4422C29.9074 9.98535 32.1492 8.34366 34.7306 8.34366C37.312 8.34366 39.5424 9.99667 40.3123 12.4422C40.4142 12.7706 40.6633 13.0423 40.9804 13.1782C41.2974 13.314 41.6597 13.3027 41.9654 13.1329C42.8032 12.7026 43.743 12.4649 44.694 12.4649C46.2338 12.4649 47.6943 13.0649 48.7812 14.1519C50.5815 15.9521 50.989 18.6807 49.8002 20.9564C49.6417 21.2621 49.6304 21.6244 49.7549 21.9414C49.8908 22.2584 50.1512 22.5075 50.4909 22.6094C52.9478 23.368 54.5895 25.6097 54.5895 28.1912C54.5895 30.7726 52.9364 33.003 50.4909 33.7729H50.5022Z"
        fill="#119498"
      />
      <path
        d="M40.7755 20.5376L32.2274 33.3655L28.5591 29.6972C28.1062 29.2443 27.3589 29.2443 26.9061 29.6972C26.4532 30.15 26.4532 30.8973 26.9061 31.3502L31.5821 36.0262C31.7972 36.2526 32.1029 36.3658 32.4086 36.3658C32.4425 36.3658 32.4878 36.3658 32.5218 36.3658C32.8728 36.3319 33.1898 36.1394 33.3822 35.8563L42.7229 21.8397C43.0852 21.3075 42.938 20.5716 42.3946 20.2206C41.8511 19.8583 41.1265 20.0055 40.7755 20.549V20.5376Z"
        fill="#FFFFFF"
      />
      <path
        d="M25.8304 50.4725C25.2303 50.2348 24.551 50.5291 24.3132 51.1292L19.6372 62.8135C19.3995 63.4136 19.6938 64.0929 20.2825 64.3307C20.4184 64.3873 20.5656 64.4099 20.7128 64.4099C21.177 64.4099 21.6186 64.1382 21.7997 63.674L26.4757 51.9897C26.7135 51.3896 26.4191 50.7103 25.8304 50.4725Z"
        fill="#119498"
      />
      <path
        d="M45.1936 51.186C44.9898 50.5746 44.3331 50.2463 43.7104 50.4501C43.099 50.6539 42.7707 51.3105 42.9745 51.9333L47.2089 63.6176C47.3674 64.1044 47.8316 64.4101 48.3184 64.4101C48.443 64.4101 48.5675 64.3875 48.6921 64.3535C49.3035 64.1497 49.6318 63.493 49.428 62.8703L45.1936 51.186Z"
        fill="#119498"
      />
    </svg>
