<svg width="70" height="70" viewBox="0 0 70 70" fill="none" xmlns="http://www.w3.org/2000/svg">
  <rect x="0.5" y="0.5" width="69" height="69" rx="34.5" stroke="#119498" />
  <path
    d="M38.4229 66.3438L37.2539 36.8129C38.0282 36.3066 38.5122 35.4354 38.5122 34.4898C38.5122 32.9634 37.2687 31.705 35.72 31.705C34.1712 31.705 32.9203 32.941 32.9203 34.4823C32.9203 35.428 33.3968 36.2992 34.1712 36.8055L32.883 65.4056M41.93 36.6566L49.6961 39.7467C50.746 40.1637 51.6917 40.8189 52.4586 41.6454L59.8376 49.6499C60.0014 49.8286 59.7781 50.0818 59.5845 49.9477L41.2673 37.9299C40.9396 37.7139 40.8428 37.2746 41.0513 36.9395C41.2375 36.6491 41.6023 36.53 41.93 36.6566ZM41.93 36.6566H41.9374M34.6924 28.3319L33.0394 20.2232C32.8086 19.0989 32.8384 17.9447 33.1213 16.8427L35.8019 6.35874C35.8615 6.12792 36.1965 6.17259 36.1965 6.41087L36.1221 28.2054C36.1221 28.6 35.8019 28.9202 35.4072 28.9276C35.0647 28.9276 34.7594 28.6893 34.6924 28.3543V28.3394V28.3319ZM8.88454 43.8494L29.4206 36.4109C29.7929 36.2768 30.195 36.463 30.3365 36.8278C30.4631 37.148 30.3365 37.5203 30.0461 37.7065L22.965 42.0549C21.997 42.6506 20.9024 43.0155 19.7781 43.1346L8.97389 44.2441C8.73562 44.2664 8.6686 43.9388 8.88454 43.8569H8.89198L8.88454 43.8494Z"
    stroke="#005E60"
    stroke-linecap="round"
    stroke-linejoin="round"
  />
  <path
    d="M45.818 45.048C44.2916 46.5074 42.4375 47.6467 40.3824 48.3317M30.9856 48.3019C28.6029 47.4903 26.4956 46.0681 24.8501 44.2364M21.2015 35.9862C21.1494 35.4948 21.1271 34.9959 21.1271 34.4896C21.1271 28.436 24.8128 23.2535 30.0474 21.0272M39.3921 20.3421C45.684 21.9728 50.3303 27.6839 50.3303 34.4896C50.3303 35.1299 50.2931 35.7479 50.2037 36.3734M39.7719 16.3511C48.0891 18.2051 54.299 25.6214 54.299 34.497C54.299 35.6809 54.1948 36.8425 53.9789 37.9669M49.1017 47.3935C46.9945 49.5752 44.3661 51.2431 41.4026 52.1887M30.375 52.3004C26.8084 51.2282 23.6885 49.121 21.3728 46.3138M17.3221 37.2148C17.1881 36.3213 17.1211 35.4129 17.1211 34.4896C17.1211 26.3511 22.3556 19.4337 29.6378 16.917"
    stroke="#119498"
    stroke-linecap="round"
    stroke-linejoin="round"
  />
</svg>
