<svg width="90" height="92" viewBox="0 0 90 92" fill="none" xmlns="http://www.w3.org/2000/svg">
<path d="M50.9727 15.8215C64.5617 17.6041 75.0517 29.2323 75.0517 43.3081C75.0517 46.078 74.6471 48.7519 73.893 51.275" stroke="#009399" stroke-width="2" stroke-linecap="round" stroke-linejoin="round"/>
<path d="M56.6398 46.4963L68.2405 51.1105C69.8106 51.7344 71.223 52.7011 72.368 53.949L83.3996 65.8993C83.6396 66.1599 83.3105 66.5438 83.0157 66.3518L55.6525 48.3954C55.1589 48.0732 55.0218 47.415 55.3371 46.9145C55.6114 46.4825 56.1599 46.3043 56.6398 46.4963Z" stroke="#AEFF00" stroke-width="2" stroke-linecap="round" stroke-linejoin="round"/>
<path d="M45.8205 34.066L43.3523 21.9442C43.0095 20.2713 43.0575 18.5436 43.4757 16.8912L47.4866 1.22476C47.5757 0.881948 48.0762 0.95051 48.0762 1.30018L47.9597 33.8535C47.9597 34.4431 47.4797 34.923 46.8901 34.9299C46.369 34.9299 45.9234 34.5734 45.8137 34.066H45.8205Z" stroke="#AEFF00" stroke-width="2" stroke-linecap="round" stroke-linejoin="round"/>
<path d="M52.0131 90.9999L49.6477 46.7361C50.8064 45.9751 51.5264 44.6793 51.5264 43.2738C51.5264 40.9838 49.6615 39.1189 47.3646 39.1189C45.0609 39.1189 43.1892 40.9701 43.1823 43.26C43.1823 44.6724 43.8954 45.9683 45.0541 46.7293L42.6133 90.9999" stroke="#AEFF00" stroke-width="2" stroke-linecap="round" stroke-linejoin="round"/>
<path d="M63.3113 56.6094C60.8431 59.5781 57.5589 61.8475 53.8086 63.0748" stroke="#009399" stroke-width="2" stroke-linecap="round" stroke-linejoin="round"/>
<path d="M50.9727 22.8354C60.7222 24.5564 68.1269 33.0718 68.1269 43.315C68.1269 44.8028 67.9692 46.2631 67.6744 47.6618" stroke="#009399" stroke-width="2" stroke-linecap="round" stroke-linejoin="round"/>
<path d="M69.0501 60.5378C65.4506 65.0698 60.4662 68.4499 54.7344 70.0337" stroke="#009399" stroke-width="2" stroke-linecap="round" stroke-linejoin="round"/>
<path d="M40.8372 63.0677C32.5275 60.3389 26.5352 52.5229 26.5352 43.3081C26.5352 34.0934 32.3767 26.4761 40.515 23.6582" stroke="#AEFF00" stroke-width="2" stroke-linecap="round" stroke-linejoin="round"/>
<path d="M39.9136 70.0267C28.2032 66.7838 19.6055 56.0469 19.6055 43.3081C19.6055 30.5693 28.2511 19.7707 40.0095 16.562" stroke="#AEFF00" stroke-width="2" stroke-linecap="round" stroke-linejoin="round"/>
<path d="M16.9156 43.3083H6.48047" stroke="#AEFF00" stroke-width="2" stroke-linecap="round" stroke-linejoin="round"/>
<path d="M21.2151 27.7171L15.5039 24.3027" stroke="#AEFF00" stroke-width="2" stroke-linecap="round" stroke-linejoin="round"/>
<path d="M17.8823 35.7049L11.4375 34.0388" stroke="#AEFF00" stroke-width="2" stroke-linecap="round" stroke-linejoin="round"/>
<path d="M17.8745 50.8979L11.4297 52.5571" stroke="#AEFF00" stroke-width="2" stroke-linecap="round" stroke-linejoin="round"/>
<path d="M21.2064 58.8855L15.4883 62.293" stroke="#AEFF00" stroke-width="2" stroke-linecap="round" stroke-linejoin="round"/>
<path d="M32.2666 16.8914L28.9688 11.1116" stroke="#AEFF00" stroke-width="2" stroke-linecap="round" stroke-linejoin="round"/>
<path d="M30.9696 68.9504L27.3906 74.5588" stroke="#AEFF00" stroke-width="2" stroke-linecap="round" stroke-linejoin="round"/>
<path d="M25.8226 21.8001L18.4453 14.4229" stroke="#AEFF00" stroke-width="2" stroke-linecap="round" stroke-linejoin="round"/>
<path d="M25.8226 64.8159L18.4453 72.1932" stroke="#AEFF00" stroke-width="2" stroke-linecap="round" stroke-linejoin="round"/>
<path d="M25.8226 64.8159L18.4453 72.1932" stroke="#AEFF00" stroke-width="2" stroke-linecap="round" stroke-linejoin="round"/>
</svg>
