<svg width="90" height="90" viewBox="0 0 90 90" fill="none" xmlns="http://www.w3.org/2000/svg">
<path d="M55.4066 34.6231L34.4453 18.6646" stroke="#009399" stroke-width="2" stroke-linecap="round" stroke-linejoin="round"/>
<path d="M55.4066 50.4644L34.4453 34.5059" stroke="#009399" stroke-width="2" stroke-linecap="round" stroke-linejoin="round"/>
<path d="M34.4453 34.6231L55.4066 18.6646" stroke="#009399" stroke-width="2" stroke-linecap="round" stroke-linejoin="round"/>
<path d="M34.4453 50.4644L55.4066 34.5059" stroke="#009399" stroke-width="2" stroke-linecap="round" stroke-linejoin="round"/>
<path d="M28.5273 75.1157L55.404 50.1279" stroke="#009399" stroke-width="2" stroke-linecap="round" stroke-linejoin="round"/>
<path d="M61.3219 75.1157L34.4453 50.1279" stroke="#009399" stroke-width="2" stroke-linecap="round" stroke-linejoin="round"/>
<path d="M34.6689 17.7935L21.5391 30.8325V35.2008" stroke="#AEFF00" stroke-width="2" stroke-linecap="round" stroke-linejoin="round"/>
<path d="M21.5391 30.8328H34.1463" stroke="#AEFF00" stroke-width="2" stroke-linecap="round" stroke-linejoin="round"/>
<path d="M21.5391 48.1814H34.1463" stroke="#AEFF00" stroke-width="2" stroke-linecap="round" stroke-linejoin="round"/>
<path d="M62.8308 81.4301L55.4058 50.4643V18.0423L46.6381 8.63989H43.2849L34.4445 18.0423V50.4643L27.0195 81.4301" stroke="#AEFF00" stroke-width="2" stroke-linecap="round" stroke-linejoin="round"/>
<path d="M55.0703 17.6768L68.309 30.8329V35.2011" stroke="#AEFF00" stroke-width="2" stroke-linecap="round" stroke-linejoin="round"/>
<path d="M68.3104 30.8328H55.7031" stroke="#AEFF00" stroke-width="2" stroke-linecap="round" stroke-linejoin="round"/>
<path d="M68.3104 48.1814H55.7031" stroke="#AEFF00" stroke-width="2" stroke-linecap="round" stroke-linejoin="round"/>
<path d="M34.4453 34.6228H55.4066" stroke="#AEFF00" stroke-width="2" stroke-linecap="round" stroke-linejoin="round"/>
<path d="M34.4453 50.1279H55.4066" stroke="#AEFF00" stroke-width="2" stroke-linecap="round" stroke-linejoin="round"/>
<path d="M34.4453 18.6646H55.4066" stroke="#AEFF00" stroke-width="2" stroke-linecap="round" stroke-linejoin="round"/>
<path d="M34.4439 34.6228L21.5391 48.1008V52.4691" stroke="#AEFF00" stroke-width="2" stroke-linecap="round" stroke-linejoin="round"/>
<path d="M55.4023 34.6228L68.3072 48.1008V52.4691" stroke="#AEFF00" stroke-width="2" stroke-linecap="round" stroke-linejoin="round"/>
<path d="M20.4492 81.4302H69.3976" stroke="#AEFF00" stroke-width="2" stroke-linecap="round" stroke-linejoin="round"/>
<path d="M68.3086 37.2275C71.5094 40.7471 76.0965 42.9714 81.2062 42.9714" stroke="#009399" stroke-width="2" stroke-linecap="round" stroke-linejoin="round"/>
<path d="M68.3086 54.4375C71.5094 57.957 76.0965 60.1814 81.2062 60.1814" stroke="#009399" stroke-width="2" stroke-linecap="round" stroke-linejoin="round"/>
<path d="M21.5382 37.2278C18.3374 40.7473 13.7503 42.9717 8.64062 42.9717" stroke="#009399" stroke-width="2" stroke-linecap="round" stroke-linejoin="round"/>
<path d="M21.5382 54.4375C18.3374 57.957 13.7503 60.1814 8.64062 60.1814" stroke="#009399" stroke-width="2" stroke-linecap="round" stroke-linejoin="round"/>
</svg>
