    <svg width="70" height="70" viewBox="0 0 70 70" fill="none" xmlns="http://www.w3.org/2000/svg">
      <rect x="0.5" y="0.5" width="69" height="69" rx="34.5" stroke="#119498" />
      <path
        d="M30.918 28.7417L35.7132 33.5295L40.4116 28.8311"
        stroke="#119498"
        stroke-linecap="round"
        stroke-linejoin="round"
      />
      <path
        d="M36.1122 25.1228C41.3842 25.1228 45.658 20.849 45.658 15.577C45.658 10.305 41.3842 6.03125 36.1122 6.03125C30.8402 6.03125 26.5664 10.305 26.5664 15.577C26.5664 20.849 30.8402 25.1228 36.1122 25.1228Z"
        stroke="#119498"
        stroke-linecap="round"
        stroke-linejoin="round"
      />
      <path
        d="M25.0039 63.3208L26.5825 50.9455C26.7612 49.5531 26.6271 48.1458 26.1655 46.8204C25.5028 44.9291 24.7507 41.7869 25.7038 38.9053"
        stroke="#006061"
        stroke-linecap="round"
        stroke-linejoin="round"
      />
      <path
        d="M56.151 57.193L53.6119 39.1513C51.7951 28.4142 41.8546 28.7418 41.8546 28.7418H30.3803C30.3803 28.7418 20.0155 28.5333 18.6231 39.1513L16.2031 56.4559"
        stroke="#006061"
        stroke-linecap="round"
        stroke-linejoin="round"
      />
      <path
        d="M47.2251 63.3208L45.6466 50.9455C45.4679 49.5531 45.6019 48.1458 46.0635 46.8204C46.7262 44.9291 47.4783 41.7869 46.5252 38.9053"
        stroke="#006061"
        stroke-linecap="round"
        stroke-linejoin="round"
      />
      <path
        d="M26.6268 14.505C26.1726 16.508 25.0259 20.715 23.5069 23.7306C23.1868 24.371 23.6708 25.1305 24.3856 25.1305H36.1056H47.8256C48.5628 25.1305 49.017 24.3561 48.6894 23.7008C47.1332 20.5735 46.0014 16.2846 45.5769 14.3784"
        stroke="#119498"
        stroke-linecap="round"
        stroke-linejoin="round"
      />
      <path
        d="M27.1133 12.4126H37.0686L39.1907 10.2905L41.2458 12.4126H45.1252"
        stroke="#119498"
        stroke-linecap="round"
        stroke-linejoin="round"
      />
    </svg>
