    <svg width="40" height="40" viewBox="0 0 70 70" fill="none" xmlns="http://www.w3.org/2000/svg">
      <path
        d="M34.5742 0.871281V7.73528C34.5742 8.22404 34.9674 8.60656 35.4455 8.60656C35.9236 8.60656 36.3168 8.21342 36.3168 7.73528V0.871281C36.3168 0.382514 35.9236 0 35.4455 0C34.9674 0 34.5742 0.393139 34.5742 0.871281Z"
        fill="#119498"
      />
      <path
        d="M17.8939 4.46281C17.4795 4.7072 17.3307 5.23847 17.5751 5.66348L21.0071 11.6137C21.1665 11.89 21.464 12.0493 21.7615 12.0493C21.9103 12.0493 22.059 12.0068 22.1972 11.9325C22.6115 11.6881 22.7603 11.1568 22.5159 10.7318L19.0839 4.78157C18.8395 4.36718 18.3083 4.21843 17.8833 4.46281H17.8939Z"
        fill="#119498"
      />
      <path
        d="M4.90715 17.1175C4.66277 17.5319 4.81152 18.0738 5.22591 18.3182L11.1761 21.7502C11.3143 21.8246 11.463 21.8671 11.6118 21.8671C11.9093 21.8671 12.2068 21.7077 12.3662 21.4314C12.6106 21.017 12.4618 20.4751 12.0474 20.2307L6.09719 16.7988C5.6828 16.5544 5.14091 16.7031 4.89652 17.1175H4.90715Z"
        fill="#119498"
      />
      <path
        d="M0 34.5539C0 35.0427 0.393139 35.4252 0.871281 35.4252H7.73528C8.21342 35.4252 8.60656 35.032 8.60656 34.5539C8.60656 34.0758 8.21342 33.6826 7.73528 33.6826H0.871281C0.393139 33.6826 0 34.0758 0 34.5539Z"
        fill="#119498"
      />
      <path
        d="M11.9198 47.8035C11.6754 47.3892 11.1441 47.2404 10.7191 47.4848L4.76888 50.9168C4.35449 51.1612 4.20573 51.6924 4.45012 52.1175C4.6095 52.3937 4.90701 52.5531 5.20452 52.5531C5.35328 52.5531 5.50203 52.5106 5.64016 52.4362L11.5904 49.0042C12.0048 48.7598 12.1535 48.2286 11.9091 47.8035H11.9198Z"
        fill="#119498"
      />
      <path
        d="M20.2298 57.951L16.7978 63.9012C16.5534 64.3156 16.7021 64.8575 17.1165 65.1019C17.2547 65.1763 17.4034 65.2188 17.5522 65.2188C17.8497 65.2188 18.1472 65.0594 18.3066 64.7831L21.7386 58.8329C21.983 58.4185 21.8342 57.8766 21.4198 57.6322C21.0054 57.3879 20.4635 57.5366 20.2191 57.951H20.2298Z"
        fill="#119498"
      />
      <path
        d="M33.6836 62.2648V69.1288C33.6836 69.6176 34.0767 70.0001 34.5549 70.0001C35.033 70.0001 35.4262 69.607 35.4262 69.1288V62.2648C35.4262 61.7761 35.033 61.3936 34.5549 61.3936C34.0767 61.3936 33.6836 61.7867 33.6836 62.2648Z"
        fill="#119498"
      />
      <path
        d="M47.804 58.0785C47.3896 58.3229 47.2409 58.8542 47.4853 59.2792L50.9173 65.2294C51.0767 65.5057 51.3742 65.6651 51.6717 65.6651C51.8204 65.6651 51.9692 65.6226 52.1073 65.5482C52.5217 65.3038 52.6705 64.7725 52.4261 64.3475L48.9941 58.3973C48.7497 57.9829 48.2184 57.8342 47.7934 58.0785H47.804Z"
        fill="#119498"
      />
      <path
        d="M64.7729 51.6927L58.8227 48.2607C58.4083 48.0163 57.8664 48.165 57.622 48.5794C57.3776 48.9938 57.5264 49.5357 57.9408 49.7801L63.891 53.2121C64.0291 53.2865 64.1779 53.329 64.3266 53.329C64.6241 53.329 64.9216 53.1696 65.081 52.8933C65.3254 52.4789 65.1766 51.937 64.7622 51.6927H64.7729Z"
        fill="#119498"
      />
      <path
        d="M69.1298 34.5752H62.2658C61.7877 34.5752 61.3945 34.9683 61.3945 35.4465C61.3945 35.9246 61.7877 36.3178 62.2658 36.3178H69.1298C69.6079 36.3178 70.0011 35.9246 70.0011 35.4465C70.0011 34.9683 69.6079 34.5752 69.1298 34.5752Z"
        fill="#119498"
      />
      <path
        d="M65.5369 17.8929C65.2926 17.4785 64.7613 17.3298 64.3363 17.5741L58.3861 21.0061C57.9717 21.2505 57.8229 21.7818 58.0673 22.2068C58.2267 22.4831 58.5242 22.6424 58.8217 22.6424C58.9705 22.6424 59.1192 22.5999 59.2573 22.5256L65.2076 19.0936C65.6219 18.8492 65.7707 18.3179 65.5263 17.8929H65.5369Z"
        fill="#119498"
      />
      <path
        d="M49.0159 12.4956C49.3134 12.4956 49.6109 12.3362 49.7703 12.06L53.2023 6.10977C53.4467 5.69538 53.298 5.15349 52.8836 4.9091C52.4692 4.66472 51.9273 4.81347 51.6829 5.22786L48.2509 11.1781C48.0065 11.5925 48.1553 12.1344 48.5697 12.3787C48.7078 12.4531 48.8565 12.4956 49.0053 12.4956H49.0159Z"
        fill="#119498"
      />
      <path
        d="M15.4262 43.4792C15.4262 43.4792 15.4474 43.5323 15.4687 43.5642C18.7625 51.0657 26.264 56.3147 34.9662 56.3147C42.8503 56.3147 49.7461 52.0008 53.4225 45.6149C53.4331 45.5937 53.4544 45.5724 53.465 45.5512C55.2395 42.4485 56.2595 38.8572 56.2595 35.032C56.2595 26.3511 51.0318 18.8708 43.5515 15.5557C43.5303 15.5451 43.509 15.5345 43.4772 15.5238C40.8739 14.3869 37.9945 13.7388 34.9662 13.7388C23.2252 13.7388 13.6836 23.291 13.6836 35.0214C13.6836 38.0178 14.3105 40.876 15.4368 43.4686L15.4262 43.4792ZM37.1338 54.4446C37.1869 51.7139 35.8269 48.76 35.7844 48.675C35.7631 48.6113 33.6699 42.8098 36.3263 39.4203C38.9082 36.1158 42.149 37.0615 42.2765 37.104C42.319 37.1146 42.3721 37.1252 42.4252 37.1359C42.6696 37.1677 48.2267 38.0603 51.6375 45.2005C48.5561 50.2263 43.2753 53.7646 37.1338 54.4446ZM53.2206 28.1149C51.7756 28.7312 48.5986 29.6025 45.7297 26.9886C44.5184 25.8836 43.2115 25.7348 42.1702 25.6179C40.7783 25.4586 39.8539 25.3629 39.057 23.3122C37.8988 20.3478 41.9577 17.9677 43.1903 17.3301C47.7804 19.4765 51.4143 23.3547 53.2206 28.1255V28.1149ZM41.1183 16.5014C39.0676 17.8295 36.0606 20.454 37.4207 23.9498C38.6107 26.978 40.4702 27.1905 41.9684 27.3605C42.9246 27.4668 43.7534 27.5624 44.5503 28.2849C46.3248 29.9 48.333 30.5056 50.2136 30.5056C51.4993 30.5056 52.7106 30.2294 53.7625 29.7937C54.23 31.4619 54.4851 33.2257 54.4851 35.0427C54.4851 38.0071 53.8157 40.8122 52.6362 43.3305C48.9386 36.6471 43.4559 35.542 42.7228 35.4252C42.1065 35.2552 38.0901 34.3308 34.945 38.3472C31.6936 42.491 34.0312 49.0044 34.1693 49.355C34.5731 50.2051 35.455 52.6277 35.37 54.5615C35.2319 54.5615 35.0937 54.5615 34.9556 54.5615C27.4435 54.5615 20.9089 50.3007 17.6469 44.0636C28.7716 43.7555 29.1754 35.1914 29.3135 32.3013C29.4729 28.8056 29.9298 27.9555 32.6818 24.2579C33.4574 23.206 33.7549 22.0372 33.5637 20.7834C33.2662 18.8071 31.7892 17.0539 30.6736 15.9701C32.0549 15.662 33.4893 15.492 34.9556 15.492C37.1126 15.492 39.1845 15.8426 41.1183 16.4907V16.5014ZM28.676 16.5332C29.5048 17.2133 31.5342 19.0727 31.8317 21.049C31.9486 21.8353 31.768 22.5472 31.2686 23.2166C28.336 27.1693 27.741 28.2849 27.5603 32.2269C27.3372 36.9977 25.9028 42.3954 16.8287 42.321C15.9149 40.0685 15.4155 37.6034 15.4155 35.032C15.4155 26.4574 20.9726 19.1577 28.676 16.5332Z"
        fill="#FFFFFF"
      />
    </svg>
