    <svg width="70" height="70" viewBox="0 0 70 70" fill="none" xmlns="http://www.w3.org/2000/svg">
      <rect x="0.5" y="0.5" width="69" height="69" rx="34.5" stroke="#119498" />
      <path
        d="M63.5436 39.68C63.8861 39.5608 64.1616 39.3151 64.318 38.9875C64.4743 38.6599 64.4967 38.2876 64.3775 37.9525L58.5473 21.3702C58.309 20.6777 57.5197 20.298 56.8124 20.5437L51.8608 22.2786C51.5183 22.3978 51.2428 22.6435 51.0864 22.9711C50.93 23.2987 50.9077 23.671 51.0268 24.0136L51.2502 24.6614L50.7439 24.7805C47.0506 25.674 44.0201 24.9145 41.347 24.2444L41.1906 24.2072C40.6769 24.0806 40.1854 23.954 39.6865 23.8497C37.4378 23.3509 34.9285 22.8445 33.5808 23.0754C32.0097 23.3509 29.9993 24.4007 28.4579 25.7559L28.3239 25.8751L28.1154 25.9048H27.4453C25.271 25.9421 22.5533 25.9868 20.1482 24.7284L19.7908 24.5422L19.9695 24.021C20.0886 23.6785 20.0663 23.3062 19.9099 22.9786C19.7535 22.6509 19.478 22.4052 19.1355 22.2861L14.1839 20.5437C13.484 20.3054 12.6947 20.6852 12.449 21.3777L6.61878 37.9599C6.49964 38.3025 6.52198 38.6673 6.67835 38.9949C6.83471 39.3226 7.11021 39.5683 7.45273 39.6874L12.4043 41.4298C12.9479 41.6234 13.618 41.4075 13.9605 40.9309L14.2882 40.4693L14.6828 40.8788C15.2189 41.4298 15.8593 42.2116 16.6039 43.1126L16.6635 43.187C17.1549 43.7827 17.6984 44.438 18.2941 45.1305L18.5398 45.4209L17.9144 46.2399C17.5197 46.7537 17.3559 47.3941 17.4378 48.0344C17.5272 48.6748 17.8548 49.2481 18.376 49.6427C18.8973 50.0374 19.56 50.2086 20.2152 50.1118L20.6917 50.0448L20.7513 50.5288C20.8407 51.2585 21.1981 51.9063 21.7714 52.3382C22.382 52.8073 23.2085 52.986 23.9754 52.8073L24.4818 52.6882L24.5488 53.2019C24.6381 53.9242 25.003 54.5571 25.5689 54.989C26.2465 55.5028 27.1474 55.6591 27.9888 55.406L28.4654 55.257L28.5845 55.741C28.7186 56.2846 29.0313 56.7611 29.4706 57.0962C30.3716 57.7812 31.7267 57.7217 32.5681 56.9696L32.8288 56.7388L35.8072 58.5184C36.5592 58.9503 37.4751 59.0694 38.3537 58.8311C39.2174 58.5929 39.9397 58.0344 40.3865 57.2526C40.5801 56.9175 40.7141 56.5452 40.7737 56.158L40.8853 55.4953L42.3448 56.3293C43.1191 56.7686 44.0276 56.8877 44.8987 56.6494C45.7625 56.4112 46.4847 55.8527 46.9315 55.0709C47.1251 54.7209 47.2591 54.3486 47.3261 53.954L47.4155 53.4402L47.9144 53.5817C48.4877 53.7381 49.1206 53.7381 49.694 53.5817C50.5577 53.3434 51.28 52.785 51.7267 52.0031C52.0171 51.4968 52.1661 50.916 52.1661 50.3427V49.881H52.6277C53.7967 49.8438 54.8913 49.196 55.4721 48.1759C55.9114 47.4015 56.0157 46.508 55.7625 45.6591C55.5242 44.8475 54.9881 44.1178 54.2435 43.6115C54.1393 43.537 54.0276 43.4551 53.9084 43.3732L53.4691 43.053L53.8489 42.6658C54.3775 42.1223 55.2487 41.3479 56.3582 40.7299L56.7454 40.5139L56.9836 40.8937C57.3038 41.4074 58.0186 41.6532 58.5845 41.4521L63.5436 39.7098V39.68ZM13.1266 40.6703L7.36338 38.7045L13.4393 21.266L19.2547 23.2466L13.134 40.6703H13.1266ZM21.0417 48.5929C20.8109 48.8981 20.446 49.1066 20.0514 49.1588C19.9844 49.1662 19.9174 49.1736 19.8503 49.1736C19.5227 49.1736 19.2025 49.0694 18.9494 48.8758C18.6366 48.6375 18.4282 48.2876 18.376 47.8929C18.3239 47.4983 18.4282 47.1111 18.6664 46.7984L19.5227 45.674C19.9993 45.0411 20.9673 44.9071 21.6076 45.3911C22.2629 45.89 22.3894 46.8281 21.8906 47.476L21.0343 48.6003L21.0417 48.5929ZM24.8913 51.1543C24.5935 51.5489 24.1244 51.817 23.618 51.884C23.5361 51.8989 23.4542 51.8989 23.3649 51.8989C22.9851 51.8989 22.6352 51.7798 22.3448 51.5638C21.9725 51.2809 21.7416 50.8639 21.6895 50.3873C21.6374 49.9034 21.7714 49.4119 22.0767 49.0173L23.0968 47.677C23.6925 46.8877 24.8913 46.6941 25.6359 47.26C26.4103 47.8483 26.5294 48.9949 25.9114 49.814L24.8913 51.1543ZM28.6888 53.8051C28.3165 54.2965 27.7431 54.5571 27.1772 54.5571C26.8124 54.5571 26.455 54.4454 26.1571 54.222C25.7848 53.9317 25.5466 53.5147 25.4944 53.0381C25.4423 52.5541 25.5763 52.0627 25.8816 51.6606L26.9017 50.3203C27.207 49.9257 27.6687 49.6576 28.175 49.5906C28.6441 49.5236 29.0909 49.6427 29.4408 49.9108C29.8131 50.1938 30.0439 50.6107 30.1035 51.0873C30.1556 51.5713 30.0216 52.0627 29.7163 52.4648L28.6962 53.8125L28.6888 53.8051ZM32.9926 54.922L32.1363 56.0463C31.9054 56.3516 31.548 56.5601 31.1608 56.6122C31.0864 56.6197 31.0194 56.6271 30.9449 56.6271C30.6247 56.6271 30.312 56.5229 30.0514 56.3293C29.3961 55.8304 29.2696 54.8996 29.7684 54.2444L30.6247 53.12C31.1013 52.4871 32.0693 52.3531 32.7096 52.8371C33.0298 53.0754 33.2308 53.4253 33.283 53.82C33.3351 54.2146 33.2308 54.6092 32.9926 54.922ZM53.7223 44.3561C54.9062 45.1677 55.3008 46.5601 54.6605 47.677C54.0797 48.6897 52.866 49.1513 51.764 48.7716C51.6225 48.7194 51.481 48.6599 51.3544 48.5854L44.0127 44.4082C43.901 44.3486 43.7744 44.3337 43.6553 44.3635C43.5361 44.4008 43.4319 44.4752 43.3723 44.5869C43.3127 44.6986 43.2979 44.8252 43.3276 44.9443C43.3649 45.0634 43.4393 45.1677 43.551 45.2273L51.064 49.5087L51.1608 49.7321C51.3172 50.3352 51.2279 50.9756 50.9151 51.5191C50.5949 52.085 50.0737 52.4871 49.4483 52.6584C48.8228 52.8296 48.175 52.7477 47.6091 52.4276L40.0663 48.1312C39.9546 48.0716 39.828 48.0567 39.7089 48.0865C39.5823 48.1163 39.4855 48.1982 39.4259 48.3099C39.2993 48.5333 39.3738 48.8237 39.5972 48.9503L46.3656 52.7999L46.4028 53.0232C46.4847 53.5668 46.388 54.1104 46.1124 54.5943C45.7923 55.1602 45.271 55.5623 44.6456 55.7336C44.0201 55.9048 43.3723 55.8229 42.8064 55.5028L36.0454 51.6532C35.8221 51.5266 35.5317 51.601 35.4051 51.8319C35.3455 51.9436 35.3232 52.0627 35.3604 52.1893C35.3902 52.3159 35.4721 52.4127 35.5838 52.4722L39.7833 54.8624L39.828 55.0709C39.9546 55.6591 39.8652 56.2697 39.5674 56.7909C39.2472 57.3494 38.726 57.7515 38.1005 57.9302C37.8846 57.9897 37.6687 58.0195 37.4527 58.0195C37.0432 58.0195 36.6337 57.9153 36.2763 57.7068L33.3946 55.9868L33.7074 55.5698C34.1393 55.0039 34.3031 54.371 34.2137 53.7232C34.1244 53.0828 33.7967 52.5095 33.283 52.1148C32.799 51.75 32.181 51.5713 31.5629 51.6308L31.0789 51.6755L31.0566 51.1915C31.0566 51.1319 31.0492 51.0798 31.0417 51.0203C30.9598 50.2831 30.5949 49.6353 30.0142 49.1885C29.3961 48.7194 28.5845 48.5407 27.8027 48.7194L27.2964 48.8311L27.2293 48.3174C27.14 47.6025 26.7677 46.9547 26.2092 46.5303C25.4944 45.9868 24.5116 45.8453 23.6404 46.1729L23.1713 46.3442L23.0224 45.8676C22.8734 45.3911 22.583 44.9741 22.181 44.6614C21.4215 44.0806 20.3194 44.0136 19.4929 44.4901L19.1504 44.6911L18.8973 44.3933C18.3537 43.7604 17.8548 43.1498 17.3932 42.5988C16.3209 41.3032 15.4795 40.2905 14.7871 39.6949L14.5413 39.4864L19.4706 25.4655L19.9471 25.6964C22.0618 26.7314 24.3254 26.8803 26.2614 26.8803H27.3485L26.6039 27.677C26.2465 28.0493 25.8816 28.429 25.5093 28.7865C25.2562 29.0247 24.9955 29.2556 24.7275 29.4864L24.653 29.5459C23.9829 30.1193 23.3574 30.6554 23.0968 31.2809C22.8883 31.7723 22.8139 32.2265 22.866 32.6286C22.9181 33.0307 23.0968 33.3806 23.3947 33.6636C24.102 34.3337 25.3455 34.4752 26.2167 34.4529C27.2517 34.4305 28.3239 34.2146 29.0164 33.8795C29.7089 33.5445 30.4014 33.0307 31.0194 32.5839C31.6895 32.0925 32.3075 31.6457 32.8958 31.4C33.3947 31.199 34.9509 30.8564 35.7178 31.1171C39.21 32.2935 44.8764 37.0739 49.0089 40.5735C50.9673 42.234 52.6352 43.6413 53.7148 44.3859L53.7223 44.3561ZM56.1348 39.7544C54.7275 40.4841 53.6776 41.4447 53.0447 42.1148L52.7468 42.435L52.4043 42.1595C51.6299 41.5266 50.7364 40.7745 49.7387 39.9331L49.6121 39.8214C47.4602 38.0046 45.0253 35.9421 42.6352 34.1476C39.8131 32.0329 37.6538 30.7373 36.0231 30.1937C35.7401 30.097 35.3976 30.0523 34.9955 30.0523C33.968 30.0523 32.8958 30.3576 32.5384 30.499C31.831 30.7894 31.1311 31.3107 30.4535 31.8095C29.8429 32.2563 29.2249 32.7105 28.6143 33.0009C28.0559 33.269 27.0879 33.4626 26.2018 33.4774C25.2338 33.5221 24.4371 33.3136 24.0499 32.9488C23.7446 32.6584 23.7148 32.2191 23.9754 31.6159C24.1393 31.2213 24.6009 30.8118 25.2785 30.231C25.5689 29.9778 25.8742 29.7172 26.1795 29.4268C26.6858 28.9428 27.1549 28.4365 27.7208 27.8334L27.7878 27.7663C28.2643 27.26 28.7186 26.776 29.0909 26.4484C30.7141 25.0262 32.6054 24.1848 33.7595 23.9838C34.9211 23.7827 37.2889 24.2593 39.4259 24.7358L39.5004 24.7507C40.0067 24.8624 40.5279 24.989 41.1162 25.1379C42.6352 25.5177 44.2063 25.9123 45.9859 26.0538C47.7729 26.2027 49.4632 26.0612 51.1608 25.6293L51.5778 25.5251L56.5071 39.5534L56.1422 39.7395L56.1348 39.7544ZM57.8995 40.7224L51.7267 23.3211L57.4974 21.2287L63.6329 38.645L57.892 40.7224H57.8995Z"
        fill="#C8FF08"
      />
    </svg>
