    <svg width="40" height="40" viewBox="0 0 70 70" fill="none" xmlns="http://www.w3.org/2000/svg">
      <path
        d="M26.4163 11.3754C24.9118 9.83564 22.7961 8.9541 20.6099 8.9541C18.4237 8.9541 16.402 9.80038 14.8387 11.3401C13.3107 9.80038 11.2656 8.9541 9.06758 8.9541C6.8696 8.9541 4.82441 9.81214 3.26115 11.3754C1.72138 12.8799 0.839844 14.9956 0.839844 17.1818C0.839844 19.3681 1.69788 21.425 3.26115 22.9883L14.7682 34.5306L14.8387 34.6011L26.4046 23.0353C27.9679 21.472 28.8141 19.4151 28.8141 17.2171C28.8141 15.0191 27.9561 12.9504 26.4046 11.3989L26.4163 11.3754ZM27.0746 17.1818C27.0746 18.9097 26.4046 20.5317 25.1822 21.7541L14.8387 32.0975L4.49531 21.7541C3.28466 20.5552 2.60293 18.8862 2.60293 17.1818C2.60293 15.4775 3.29641 13.8202 4.49531 12.6096C5.6707 11.3989 7.33975 10.7172 9.06758 10.7172C10.7954 10.7172 12.4645 11.4107 13.6398 12.6096L14.8387 13.8085L16.0377 12.6096C17.2601 11.3872 18.8821 10.7172 20.6099 10.7172C22.3377 10.7172 23.9715 11.4107 25.1822 12.6096C26.4046 13.832 27.0746 15.454 27.0746 17.1818Z"
        fill="#FFFFFF"
      />
      <path
        d="M66.3242 37.7041H4.53394C4.02853 37.7041 3.62891 38.1037 3.62891 38.6092C3.62891 39.1146 4.02853 39.5142 4.53394 39.5142H33.5308L20.2607 61.0944H15.371C14.8656 61.0944 14.466 61.494 14.466 61.9994C14.466 62.5048 14.8656 62.9045 15.371 62.9045H54.9347C55.4401 62.9045 55.8397 62.5048 55.8397 61.9994C55.8397 61.494 55.4401 61.0944 54.9347 61.0944H50.0451L36.7749 39.5142H66.3713C66.8767 39.5142 67.2763 39.1146 67.2763 38.6092C67.2763 38.1037 66.8767 37.7041 66.3713 37.7041H66.336H66.3242ZM22.3529 61.0709L35.1411 40.3017L47.9294 61.0709H22.3646H22.3529Z"
        fill="#119498"
      />
      <path
        d="M56.3883 34.037C48.8894 34.037 42.7773 27.9367 42.7773 20.426C42.7773 12.9152 48.8776 6.81494 56.3883 6.81494C63.8991 6.81494 69.9994 12.9152 69.9994 20.426C69.9994 27.9367 63.8991 34.037 56.3883 34.037ZM56.3883 8.6603C49.8884 8.6603 44.6109 13.9496 44.6109 20.4377C44.6109 26.9259 49.9002 32.2151 56.3883 32.2151C62.8765 32.2151 68.1658 26.9259 68.1658 20.4377C68.1658 13.9496 62.8765 8.6603 56.3883 8.6603Z"
        fill="#119498"
      />
      <path
        d="M50.9198 19.4386C51.9714 19.4386 52.8239 18.5861 52.8239 17.5345C52.8239 16.4829 51.9714 15.6304 50.9198 15.6304C49.8681 15.6304 49.0156 16.4829 49.0156 17.5345C49.0156 18.5861 49.8681 19.4386 50.9198 19.4386Z"
        fill="#119498"
      />
      <path
        d="M62.1229 19.4386C63.1745 19.4386 64.027 18.5861 64.027 17.5345C64.027 16.4829 63.1745 15.6304 62.1229 15.6304C61.0713 15.6304 60.2188 16.4829 60.2188 17.5345C60.2188 18.5861 61.0713 19.4386 62.1229 19.4386Z"
        fill="#119498"
      />
    </svg>
