    <svg width="70" height="70" viewBox="0 0 70 70" fill="none" xmlns="http://www.w3.org/2000/svg">
      <rect x="0.5" y="0.5" width="69" height="69" rx="34.5" stroke="#119498" />
      <path
        d="M28.3201 51.0946C28.536 51.0946 28.7221 50.9159 28.7221 50.6925V32.0403C28.7221 31.8243 28.5434 31.6382 28.3201 31.6382C28.0967 31.6382 27.918 31.8169 27.918 32.0403V50.6925C27.918 50.9085 28.0967 51.0946 28.3201 51.0946Z"
        fill="#005E60"
      />
      <path
        d="M21.6326 51.0946C21.8559 51.0946 22.0346 50.9159 22.0346 50.6925V32.0403C22.0346 31.9286 21.9974 31.8318 21.9229 31.7573C21.8485 31.6829 21.7442 31.6382 21.6326 31.6382C21.4166 31.6382 21.2305 31.8169 21.2305 32.0403V50.6925C21.2305 50.9085 21.4092 51.0946 21.6326 51.0946Z"
        fill="#005E60"
      />
      <path
        d="M35.3905 50.6999V32.0476C35.3905 31.8317 35.2118 31.6455 34.9884 31.6455C34.765 31.6455 34.5938 31.8242 34.5938 32.0476V50.6999C34.5938 50.9158 34.7725 51.1019 34.9884 51.1019C35.2043 51.1019 35.3905 50.9232 35.3905 50.6999Z"
        fill="#005E60"
      />
      <path
        d="M34.9979 19.5454C33.2258 19.5454 31.7812 20.9899 31.7812 22.7621C31.7812 24.5342 33.2258 25.9788 34.9979 25.9788C36.7701 25.9788 38.2146 24.5342 38.2146 22.7621C38.2146 20.9899 36.7701 19.5454 34.9979 19.5454ZM34.9979 25.1746C33.6651 25.1746 32.5854 24.0949 32.5854 22.7621C32.5854 21.4293 33.6651 20.3496 34.9979 20.3496C36.3308 20.3496 37.4104 21.4293 37.4104 22.7621C37.4104 24.0949 36.3308 25.1746 34.9979 25.1746Z"
        fill="#005E60"
      />
      <path
        d="M6.44922 53.3952C6.44922 53.6112 6.62792 53.7973 6.8513 53.7973H10.3286L10.4254 53.8494C10.4775 53.8718 10.5222 53.8867 10.5818 53.8867H63.1581C63.374 53.8867 63.5527 53.708 63.5527 53.4846C63.5527 53.3729 63.5155 53.2761 63.441 53.2016C63.3666 53.1272 63.2623 53.0825 63.1506 53.0825H59.8148V35.0631C59.8148 34.8472 59.6361 34.6611 59.4127 34.6611H54.5877V24.944C54.5877 24.7802 54.4909 24.6387 54.3494 24.5717L35.3919 16.4928V12.6953H42.2869C42.5028 12.6953 42.689 12.5166 42.689 12.2932V7.75115C42.689 7.53522 42.5103 7.34907 42.2869 7.34907H35.3919V6.32152C35.3919 6.09814 35.2132 5.91943 34.9972 5.91943C34.7813 5.91943 34.5952 6.09814 34.5952 6.32152V16.4853L15.6376 24.5643C15.4887 24.6238 15.3993 24.7727 15.3993 24.9366V34.6536H10.5743C10.3584 34.6536 10.1722 34.8323 10.1722 35.0557V52.9931H6.84386C6.62792 52.9931 6.44922 53.1644 6.44922 53.3878V53.3952ZM54.5952 35.4652H59.0181V53.0751H54.5952V35.4652ZM35.3919 8.16813H41.8923V11.9135H35.3919V8.16813ZM16.1961 25.2195L34.9972 17.2076L53.7984 25.2121V28.3468H16.1961V25.2195ZM16.1961 29.151H53.7984V53.0676L16.1961 53.0155V29.1584V29.151ZM10.9764 35.4652H15.3993V53.0155H10.9764V35.4652Z"
        fill="#005E60"
      />
      <path
        d="M42.0776 50.6999V32.0476C42.0776 31.8317 41.8989 31.6455 41.6755 31.6455C41.4521 31.6455 41.2734 31.8242 41.2734 32.0476V50.6999C41.2734 50.9158 41.4521 51.1019 41.6755 51.1019C41.8989 51.1019 42.0776 50.9232 42.0776 50.6999Z"
        fill="#005E60"
      />
      <path
        d="M48.7651 50.6999V32.0476C48.7651 31.8317 48.5864 31.6455 48.363 31.6455C48.1396 31.6455 47.9609 31.8242 47.9609 32.0476V50.6999C47.9609 50.9158 48.1396 51.1019 48.363 51.1019C48.5864 51.1019 48.7651 50.9232 48.7651 50.6999Z"
        fill="#005E60"
      />
    </svg>
