    <svg width="168" height="84" viewBox="0 0 168 84" fill="none" xmlns="http://www.w3.org/2000/svg">
      <rect width="168" height="84" rx="42" fill="white" fill-opacity="0.1" />
      <path
        d="M27.5634 36.37C27.8434 36.37 28.0534 36.27 28.1934 36.07C28.3534 35.85 28.4334 35.54 28.4334 35.14V33.4C28.4334 33.04 28.3834 32.76 28.2834 32.56C28.1834 32.34 28.0034 32.13 27.7434 31.93L24.2334 29.41C23.4734 28.91 22.9334 28.36 22.6134 27.76C22.3134 27.16 22.1634 26.41 22.1634 25.51V23.2C22.1634 21.68 22.6634 20.47 23.6634 19.57C24.6634 18.67 26.0034 18.22 27.6834 18.22C29.3434 18.22 30.6434 18.67 31.5834 19.57C32.5434 20.45 33.0234 21.66 33.0234 23.2V26.08H28.5534V23.32C28.5534 22.92 28.4734 22.62 28.3134 22.42C28.1734 22.2 27.9634 22.09 27.6834 22.09C27.3834 22.09 27.1534 22.2 26.9934 22.42C26.8534 22.62 26.7834 22.92 26.7834 23.32V24.61C26.7834 24.95 26.8334 25.23 26.9334 25.45C27.0334 25.67 27.2134 25.88 27.4734 26.08L30.9834 28.57C31.7434 29.07 32.2734 29.62 32.5734 30.22C32.8934 30.82 33.0534 31.57 33.0534 32.47V35.26C33.0534 36.78 32.5534 37.99 31.5534 38.89C30.5534 39.79 29.2034 40.24 27.5034 40.24C25.8434 40.24 24.5334 39.8 23.5734 38.92C22.6334 38.02 22.1634 36.8 22.1634 35.26V31.99H26.6634V35.14C26.6634 35.54 26.7334 35.85 26.8734 36.07C27.0334 36.27 27.2634 36.37 27.5634 36.37ZM44.0606 18.46V22.57H41.0606V40H36.4406V22.57H33.4406V18.46H44.0606ZM42.87 40L45.75 18.46H51.93L54.84 40H50.34L49.89 35.68H47.64L47.22 40H42.87ZM48.72 24.34L48.36 28.39L48 31.99H49.53L49.17 28.39L48.78 24.34H48.72ZM60.3075 30.94H60.2475V40H55.6275V18.46H60.2475V26.95H60.3075L62.2875 18.46H67.1175L64.5675 28.72L67.1475 40H62.3475L60.3075 30.94ZM67.8736 40V18.46H76.5136V22.57H72.4036V26.83H76.0036V30.94H72.4036V35.89H76.5136V40H67.8736ZM84.6166 26.83V18.46H89.2366V40H84.6166V30.94H82.3966V40H77.7466V18.46H82.3966V26.83H84.6166ZM96.0673 18.22C97.7473 18.22 99.0873 18.68 100.087 19.6C101.107 20.5 101.617 21.7 101.617 23.2V35.26C101.617 36.76 101.107 37.97 100.087 38.89C99.0873 39.79 97.7473 40.24 96.0673 40.24C94.3873 40.24 93.0373 39.79 92.0173 38.89C91.0173 37.97 90.5173 36.76 90.5173 35.26V23.2C90.5173 21.7 91.0173 20.5 92.0173 19.6C93.0373 18.68 94.3873 18.22 96.0673 18.22ZM96.0673 22.09C95.7673 22.09 95.5273 22.2 95.3473 22.42C95.1873 22.64 95.1073 22.94 95.1073 23.32V35.14C95.1073 35.52 95.1873 35.82 95.3473 36.04C95.5273 36.26 95.7673 36.37 96.0673 36.37C96.3673 36.37 96.5973 36.27 96.7573 36.07C96.9173 35.85 96.9973 35.54 96.9973 35.14V23.32C96.9973 22.92 96.9173 22.62 96.7573 22.42C96.5973 22.2 96.3673 22.09 96.0673 22.09ZM102.883 40V18.46H107.413V35.89H111.373V40H102.883ZM112.376 18.46H118.016C119.696 18.46 121.026 18.91 122.006 19.81C122.986 20.71 123.476 21.92 123.476 23.44V35.02C123.476 36.54 122.986 37.75 122.006 38.65C121.026 39.55 119.696 40 118.016 40H112.376V18.46ZM117.926 22.42H116.966V36.04H117.926C118.226 36.04 118.456 35.94 118.616 35.74C118.776 35.52 118.856 35.23 118.856 34.87V23.59C118.856 23.23 118.776 22.95 118.616 22.75C118.456 22.53 118.226 22.42 117.926 22.42ZM124.739 40V18.46H133.379V22.57H129.269V26.83H132.869V30.94H129.269V35.89H133.379V40H124.739ZM140.012 31.3H139.202V40H134.612V18.46H140.672C142.352 18.46 143.612 18.85 144.452 19.63C145.292 20.39 145.712 21.53 145.712 23.05V26.08C145.712 26.84 145.532 27.51 145.172 28.09C144.832 28.65 144.352 29.04 143.732 29.26C144.352 29.5 144.822 29.9 145.142 30.46C145.482 31 145.652 31.67 145.652 32.47V37.12C145.652 37.82 145.672 38.4 145.712 38.86C145.772 39.32 145.862 39.7 145.982 40H141.392C141.272 39.72 141.182 39.36 141.122 38.92C141.082 38.48 141.062 37.93 141.062 37.27V32.56C141.062 32.14 140.972 31.83 140.792 31.63C140.612 31.41 140.352 31.3 140.012 31.3ZM141.092 26.17V23.59C141.092 23.23 141.012 22.95 140.852 22.75C140.692 22.53 140.462 22.42 140.162 22.42H139.202V27.34H140.162C140.462 27.34 140.692 27.24 140.852 27.04C141.012 26.84 141.092 26.55 141.092 26.17ZM25.8033 68V46.46H34.4433V50.57H30.3333V54.83H33.9333V58.94H30.3333V63.89H34.4433V68H25.8033ZM42.7563 68L39.8463 56.39H39.7863L39.8463 60.8V68H35.6763V46.46H40.1463L42.5163 56.72H42.5763L42.5163 52.13V46.46H46.6863V68H42.7563ZM58.8689 51.2V54.59H54.3689V51.32C54.3689 50.92 54.2889 50.62 54.1289 50.42C53.9889 50.2 53.7689 50.09 53.4689 50.09C53.1689 50.09 52.9389 50.2 52.7789 50.42C52.6189 50.62 52.5389 50.92 52.5389 51.32V63.14C52.5389 63.54 52.6189 63.85 52.7789 64.07C52.9389 64.27 53.1689 64.37 53.4689 64.37C53.7689 64.37 53.9889 64.27 54.1289 64.07C54.2889 63.85 54.3689 63.54 54.3689 63.14V59.99H53.3789V56.12H58.8689V68H54.6389V67.07C54.4189 67.45 54.0989 67.74 53.6789 67.94C53.2789 68.14 52.8089 68.24 52.2689 68.24C50.9689 68.24 49.9189 67.8 49.1189 66.92C48.3389 66.04 47.9489 64.87 47.9489 63.41V51.2C47.9489 49.7 48.4489 48.5 49.4489 47.6C50.4689 46.68 51.8189 46.22 53.4989 46.22C55.1589 46.22 56.4689 46.67 57.4289 47.57C58.3889 48.45 58.8689 49.66 58.8689 51.2ZM59.6278 68L62.5078 46.46H68.6878L71.5978 68H67.0978L66.6478 63.68H64.3978L63.9778 68H59.6278ZM65.4778 52.34L65.1178 56.39L64.7578 59.99H66.2878L65.9278 56.39L65.5378 52.34H65.4778ZM82.7166 51.2V54.59H78.2166V51.32C78.2166 50.92 78.1366 50.62 77.9766 50.42C77.8366 50.2 77.6166 50.09 77.3166 50.09C77.0166 50.09 76.7866 50.2 76.6266 50.42C76.4666 50.62 76.3866 50.92 76.3866 51.32V63.14C76.3866 63.54 76.4666 63.85 76.6266 64.07C76.7866 64.27 77.0166 64.37 77.3166 64.37C77.6166 64.37 77.8366 64.27 77.9766 64.07C78.1366 63.85 78.2166 63.54 78.2166 63.14V59.99H77.2266V56.12H82.7166V68H78.4866V67.07C78.2666 67.45 77.9466 67.74 77.5266 67.94C77.1266 68.14 76.6566 68.24 76.1166 68.24C74.8166 68.24 73.7666 67.8 72.9666 66.92C72.1866 66.04 71.7966 64.87 71.7966 63.41V51.2C71.7966 49.7 72.2966 48.5 73.2966 47.6C74.3166 46.68 75.6666 46.22 77.3466 46.22C79.0066 46.22 80.3166 46.67 81.2766 47.57C82.2366 48.45 82.7166 49.66 82.7166 51.2ZM84.0455 68V46.46H92.6855V50.57H88.5755V54.83H92.1755V58.94H88.5755V63.89H92.6855V68H84.0455ZM104.479 55.19L102.979 68H99.6485L98.1785 55.19H98.1185L98.1485 59.54V68H93.9185V46.46H100.039L101.299 58.01H101.359L102.589 46.46H108.739V68H104.479V59.54L104.539 55.19H104.479ZM110.09 68V46.46H118.73V50.57H114.62V54.83H118.22V58.94H114.62V63.89H118.73V68H110.09ZM127.043 68L124.133 56.39H124.073L124.133 60.8V68H119.963V46.46H124.433L126.803 56.72H126.863L126.803 52.13V46.46H130.973V68H127.043ZM142.586 46.46V50.57H139.586V68H134.966V50.57H131.966V46.46H142.586Z"
        fill="#C8FF08"
      />
    </svg>
