<svg width="70" height="70" viewBox="0 0 70 70" fill="none" xmlns="http://www.w3.org/2000/svg">
<rect x="0.5" y="0.5" width="69" height="69" rx="34.5" stroke="#119498"/>
<path d="M34.7581 22.1665L20.3203 32.6505L25.8378 49.6274H43.6859L49.196 32.6505L34.7581 22.1665Z" stroke="#006061" stroke-linecap="round" stroke-linejoin="round"/>
<path d="M46.262 61.8165C51.168 61.8165 55.1451 57.8394 55.1451 52.9334C55.1451 48.0274 51.168 44.0503 46.262 44.0503C41.356 44.0503 37.3789 48.0274 37.3789 52.9334C37.3789 57.8394 41.356 61.8165 46.262 61.8165Z" stroke="#009399" stroke-linecap="round" stroke-linejoin="round"/>
<path d="M46.1578 51.2955C47.4087 51.2955 48.4288 50.2754 48.4288 49.0245C48.4288 47.7735 47.4087 46.7534 46.1578 46.7534C44.9068 46.7534 43.8867 47.7735 43.8867 49.0245C43.8867 50.2754 44.9068 51.2955 46.1578 51.2955ZM46.1578 47.498C46.9992 47.498 47.6842 48.1831 47.6842 49.0245C47.6842 49.8659 46.9992 50.5509 46.1578 50.5509C45.3164 50.5509 44.6313 49.8659 44.6313 49.0245C44.6313 48.1831 45.3164 47.498 46.1578 47.498Z" fill="#025860"/>
<path d="M49.8644 52.6582C49.2911 52.0848 48.5242 51.7646 47.7125 51.7646H44.5927C42.9173 51.7646 41.5547 53.1273 41.5547 54.8026V57.714C41.5547 58.1161 41.8823 58.4512 42.2918 58.4512H50.0059C50.408 58.4512 50.7431 58.1235 50.7431 57.7215L50.758 54.8101C50.758 53.9985 50.4452 53.2315 49.8644 52.6582ZM44.6001 52.5093H47.72C48.338 52.5093 48.9114 52.7475 49.3432 53.1794C49.7751 53.6113 50.0208 54.1921 50.0208 54.8026L50.0059 57.714H48.8816V54.825C48.8816 54.6537 48.7475 54.5197 48.5763 54.5197C48.405 54.5197 48.271 54.6537 48.271 54.825V57.714H44.0268V54.825C44.0268 54.6537 43.8927 54.5197 43.7215 54.5197C43.5502 54.5197 43.4162 54.6537 43.4162 54.825V57.714H42.2993V54.8026C42.2993 53.5368 43.3343 52.5018 44.6001 52.5018V52.5093Z" fill="#025860"/>
<path d="M22.4808 61.8165C27.3868 61.8165 31.3638 57.8394 31.3638 52.9334C31.3638 48.0274 27.3868 44.0503 22.4808 44.0503C17.5748 44.0503 13.5977 48.0274 13.5977 52.9334C13.5977 57.8394 17.5748 61.8165 22.4808 61.8165Z" stroke="#009399" stroke-linecap="round" stroke-linejoin="round"/>
<path d="M22.3765 51.2955C23.6274 51.2955 24.6475 50.2754 24.6475 49.0245C24.6475 47.7735 23.6274 46.7534 22.3765 46.7534C21.1256 46.7534 20.1055 47.7735 20.1055 49.0245C20.1055 50.2754 21.1256 51.2955 22.3765 51.2955ZM22.3765 47.498C23.2179 47.498 23.9029 48.1831 23.9029 49.0245C23.9029 49.8659 23.2179 50.5509 22.3765 50.5509C21.5351 50.5509 20.8501 49.8659 20.8501 49.0245C20.8501 48.1831 21.5351 47.498 22.3765 47.498Z" fill="#025860"/>
<path d="M26.0832 52.6582C25.5098 52.0848 24.7429 51.7646 23.9313 51.7646H20.8114C19.1361 51.7646 17.7734 53.1273 17.7734 54.8026V57.714C17.7734 58.1161 18.1011 58.4512 18.5106 58.4512H26.2247C26.6268 58.4512 26.9618 58.1235 26.9618 57.7215L26.9767 54.8101C26.9767 53.9985 26.664 53.2315 26.0832 52.6582ZM20.8189 52.5093H23.9387C24.5568 52.5093 25.1301 52.7475 25.562 53.1794C25.9938 53.6113 26.2396 54.1921 26.2396 54.8026L26.2247 57.714H25.1003V54.825C25.1003 54.6537 24.9663 54.5197 24.795 54.5197C24.6238 54.5197 24.4897 54.6537 24.4897 54.825V57.714H20.2455V54.825C20.2455 54.6537 20.1115 54.5197 19.9402 54.5197C19.769 54.5197 19.6349 54.6537 19.6349 54.825V57.714H18.518V54.8026C18.518 53.5368 19.553 52.5018 20.8189 52.5018V52.5093Z" fill="#025860"/>
<path d="M17.7737 39.6124C22.6797 39.6124 26.6568 35.6353 26.6568 30.7293C26.6568 25.8233 22.6797 21.8462 17.7737 21.8462C12.8677 21.8462 8.89062 25.8233 8.89062 30.7293C8.89062 35.6353 12.8677 39.6124 17.7737 39.6124Z" stroke="#009399" stroke-linecap="round" stroke-linejoin="round"/>
<path d="M17.6695 29.0914C18.9204 29.0914 19.9405 28.0713 19.9405 26.8204C19.9405 25.5694 18.9204 24.5493 17.6695 24.5493C16.4185 24.5493 15.3984 25.5694 15.3984 26.8204C15.3984 28.0713 16.4185 29.0914 17.6695 29.0914ZM17.6695 25.2939C18.5109 25.2939 19.1959 25.979 19.1959 26.8204C19.1959 27.6618 18.5109 28.3468 17.6695 28.3468C16.8281 28.3468 16.143 27.6618 16.143 26.8204C16.143 25.979 16.8281 25.2939 17.6695 25.2939Z" fill="#025860"/>
<path d="M21.384 30.4541C20.8106 29.8807 20.0437 29.5605 19.2321 29.5605H16.1122C14.4368 29.5605 13.0742 30.9232 13.0742 32.5985V35.5099C13.0742 35.912 13.4018 36.2471 13.8114 36.2471H21.5254C21.9275 36.2471 22.2626 35.9194 22.2626 35.5174L22.2775 32.606C22.2775 31.7944 21.9648 31.0274 21.384 30.4541ZM16.1122 30.3051H19.2321C19.8501 30.3051 20.4234 30.5434 20.8553 30.9753C21.2872 31.4072 21.5329 31.9879 21.5329 32.5985L21.518 35.5099H20.3937V32.6209C20.3937 32.4496 20.2596 32.3156 20.0884 32.3156C19.9171 32.3156 19.7831 32.4496 19.7831 32.6209V35.5099H15.5388V32.6209C15.5388 32.4496 15.4048 32.3156 15.2336 32.3156C15.0623 32.3156 14.9283 32.4496 14.9283 32.6209V35.5099H13.8114V32.5985C13.8114 31.3327 14.8464 30.2977 16.1122 30.2977V30.3051Z" fill="#025860"/>
<path d="M52.0472 39.6124C56.9532 39.6124 60.9303 35.6353 60.9303 30.7293C60.9303 25.8233 56.9532 21.8462 52.0472 21.8462C47.1412 21.8462 43.1641 25.8233 43.1641 30.7293C43.1641 35.6353 47.1412 39.6124 52.0472 39.6124Z" stroke="#009399" stroke-linecap="round" stroke-linejoin="round"/>
<path d="M51.9429 29.0914C53.1938 29.0914 54.2139 28.0713 54.2139 26.8204C54.2139 25.5694 53.1938 24.5493 51.9429 24.5493C50.692 24.5493 49.6719 25.5694 49.6719 26.8204C49.6719 28.0713 50.692 29.0914 51.9429 29.0914ZM51.9429 25.2939C52.7843 25.2939 53.4693 25.979 53.4693 26.8204C53.4693 27.6618 52.7843 28.3468 51.9429 28.3468C51.1015 28.3468 50.4165 27.6618 50.4165 26.8204C50.4165 25.979 51.1015 25.2939 51.9429 25.2939Z" fill="#025860"/>
<path d="M55.6574 30.4541C55.0841 29.8807 54.3171 29.5605 53.5055 29.5605H50.3856C48.7103 29.5605 47.3477 30.9232 47.3477 32.5985V35.5099C47.3477 35.912 47.6753 36.2471 48.0848 36.2471H55.7989C56.201 36.2471 56.536 35.9194 56.536 35.5174L56.5509 32.606C56.5509 31.7944 56.2382 31.0274 55.6574 30.4541ZM50.3856 30.3051H53.5055C54.1235 30.3051 54.6969 30.5434 55.1287 30.9753C55.5606 31.4072 55.8063 31.9879 55.8063 32.5985L55.7914 35.5099H54.6671V32.6209C54.6671 32.4496 54.5331 32.3156 54.3618 32.3156C54.1905 32.3156 54.0565 32.4496 54.0565 32.6209V35.5099H49.8123V32.6209C49.8123 32.4496 49.6783 32.3156 49.507 32.3156C49.3357 32.3156 49.2017 32.4496 49.2017 32.6209V35.5099H48.0848V32.5985C48.0848 31.3327 49.1198 30.2977 50.3856 30.2977V30.3051Z" fill="#025860"/>
<path d="M33.5003 25.212C38.4063 25.212 42.3834 21.2349 42.3834 16.3289C42.3834 11.4229 38.4063 7.4458 33.5003 7.4458C28.5943 7.4458 24.6172 11.4229 24.6172 16.3289C24.6172 21.2349 28.5943 25.212 33.5003 25.212Z" stroke="#009399" stroke-linecap="round" stroke-linejoin="round"/>
<path d="M33.396 14.691C34.647 14.691 35.6671 13.6709 35.6671 12.42C35.6671 11.169 34.647 10.1489 33.396 10.1489C32.1451 10.1489 31.125 11.169 31.125 12.42C31.125 13.6709 32.1451 14.691 33.396 14.691ZM33.396 10.901C34.2374 10.901 34.9225 11.586 34.9225 12.4274C34.9225 13.2688 34.2374 13.9538 33.396 13.9538C32.5546 13.9538 31.8696 13.2688 31.8696 12.4274C31.8696 11.586 32.5546 10.901 33.396 10.901Z" fill="#025860"/>
<path d="M37.1027 16.061C36.5294 15.4877 35.7624 15.1675 34.9508 15.1675H31.8309C30.1556 15.1675 28.793 16.5301 28.793 18.2055V21.1168C28.793 21.5189 29.1206 21.854 29.5301 21.854H37.2442C37.6463 21.854 37.9814 21.5264 37.9814 21.1243L37.9962 18.2129C37.9962 17.4013 37.6835 16.6343 37.1027 16.061ZM31.8309 15.9121H34.9508C35.5688 15.9121 36.1422 16.1504 36.5741 16.5822C37.0059 17.0141 37.2516 17.5949 37.2516 18.2055L37.2367 21.1168H36.1124V18.2278C36.1124 18.0565 35.9784 17.9225 35.8071 17.9225C35.6359 17.9225 35.5018 18.0565 35.5018 18.2278V21.1168H31.2576V18.2278C31.2576 18.0565 31.1236 17.9225 30.9523 17.9225C30.7811 17.9225 30.647 18.0565 30.647 18.2278V21.1168H29.5301V18.2055C29.5301 16.9396 30.5651 15.9046 31.8309 15.9046V15.9121Z" fill="#025860"/>
</svg>
