<svg width="90" height="90" viewBox="0 0 90 90" fill="none" xmlns="http://www.w3.org/2000/svg">
<path d="M27.4608 22.8961C31.0118 22.8961 33.8905 20.0174 33.8905 16.4665C33.8905 12.9155 31.0118 10.0369 27.4608 10.0369C23.9099 10.0369 21.0312 12.9155 21.0312 16.4665C21.0312 20.0174 23.9099 22.8961 27.4608 22.8961Z" stroke="#AEFF00" stroke-width="2" stroke-linecap="round" stroke-linejoin="round"/>
<path d="M34.9676 13.356H34.9532C34.7732 11.0952 33.5924 9.12958 31.8716 7.86958V7.92718C31.8716 8.43118 31.4612 8.84158 30.9572 8.84158C30.4532 8.84158 30.0428 8.43118 30.0428 7.92718V6.86878C29.51 6.67438 28.9412 6.55198 28.358 6.47998V7.92718C28.358 8.43118 27.9476 8.84158 27.4436 8.84158C26.9396 8.84158 26.5292 8.43118 26.5292 7.92718V6.47998C25.946 6.55198 25.3772 6.67438 24.8444 6.87598V7.92718C24.8444 8.43118 24.434 8.84158 23.93 8.84158C23.426 8.84158 23.0156 8.43118 23.0156 7.92718V7.86958C21.302 9.13678 20.1212 11.0952 19.9412 13.356H19.9268C19.3508 13.356 18.8828 13.824 18.8828 14.4C18.8828 14.976 19.3508 15.444 19.9268 15.444H34.946C35.522 15.444 35.99 14.976 35.99 14.4C35.99 13.824 35.522 13.356 34.946 13.356H34.9676Z" fill="#006061" stroke="#AEFF00" stroke-width="2" stroke-linecap="round" stroke-linejoin="round"/>
<path d="M24.918 25.9272H27.4595" stroke="#AEFF00" stroke-width="2" stroke-linecap="round" stroke-linejoin="round"/>
<path d="M27.459 56.1744V79.2504C27.459 81.756 25.4287 83.7864 22.9231 83.7864C20.4175 83.7864 18.3871 81.756 18.3871 79.2504V52.0632V52.8336C18.3871 54.5328 17.0119 55.908 15.3127 55.908C13.6135 55.908 12.2383 54.5328 12.2383 52.8336V43.236C12.2383 40.8312 12.4759 38.4336 13.0663 36.1008C13.4335 34.632 13.8727 33.3792 14.3407 32.2992C15.3847 29.8872 17.2711 28.0224 19.5535 26.9424" stroke="#AEFF00" stroke-width="2" stroke-linecap="round" stroke-linejoin="round"/>
<path d="M35.309 26.9209C37.6202 27.9937 39.5282 29.8729 40.5794 32.2993C41.0474 33.3793 41.4794 34.6321 41.8538 36.1009C42.4442 38.4265 42.6817 40.8313 42.6817 43.2361V52.8337C42.6817 54.5329 41.3066 55.9081 39.6074 55.9081C37.9082 55.9081 36.533 54.5329 36.533 52.8337V52.0633V79.2505C36.533 81.7561 34.5026 83.7865 31.997 83.7865C29.4914 83.7865 27.4609 81.7561 27.4609 79.2505V56.1745" stroke="#AEFF00" stroke-width="2" stroke-linecap="round" stroke-linejoin="round"/>
<path d="M27.4609 25.9272H30.0817" stroke="#AEFF00" stroke-width="2" stroke-linecap="round" stroke-linejoin="round"/>
<path d="M19.6626 26.8919C19.6626 26.8919 20.4546 29.5055 18.1722 37.8071C16.4226 44.1647 18.381 52.0631 18.381 52.0631H27.4531V32.1479L24.8106 25.9271C24.8106 25.9271 22.2618 25.6823 19.6626 26.8919Z" stroke="#009399" stroke-width="2" stroke-linecap="round" stroke-linejoin="round"/>
<path d="M35.2513 26.8919C35.2513 26.8919 34.4593 29.5055 36.7417 37.8071C38.4913 44.1647 36.533 52.0631 36.533 52.0631H27.4609V32.1479L30.1034 25.9271C30.1034 25.9271 32.8897 25.7111 35.2513 26.8919Z" stroke="#009399" stroke-width="2" stroke-linecap="round" stroke-linejoin="round"/>
<path d="M61.4296 22.8961C64.9806 22.8961 67.8592 20.0174 67.8592 16.4665C67.8592 12.9155 64.9806 10.0369 61.4296 10.0369C57.8787 10.0369 55 12.9155 55 16.4665C55 20.0174 57.8787 22.8961 61.4296 22.8961Z" stroke="#AEFF00" stroke-width="2" stroke-linecap="round" stroke-linejoin="round"/>
<path d="M68.5493 26.4673C70.2989 27.0289 72.5237 28.1737 74.0717 30.4849C76.1309 33.5521 77.2901 37.3321 77.9813 39.9241C78.4565 41.7025 77.5061 43.5385 75.7781 44.1721L69.7013 46.3825C67.8797 47.0449 65.8709 46.0585 65.2877 44.2081C64.7189 42.4081 65.7269 40.4857 67.5341 39.9313L73.0637 38.2321" stroke="#AEFF00" stroke-width="2" stroke-linecap="round" stroke-linejoin="round"/>
<path d="M58.8789 25.9272H64.1853" stroke="#AEFF00" stroke-width="2" stroke-linecap="round" stroke-linejoin="round"/>
<path d="M69.5646 48.7513V79.7257C69.5646 81.9721 67.743 83.7937 65.4966 83.7937C63.2502 83.7937 61.4286 81.9721 61.4286 79.7257M61.4286 79.7257V55.0441M61.4286 79.7257C61.4286 81.9721 59.607 83.7937 57.3606 83.7937C55.1142 83.7937 53.2926 81.9721 53.2926 79.7257V52.0633V52.8985C53.2926 54.5617 51.9462 55.9081 50.283 55.9081C48.5694 55.9081 47.2014 54.4825 47.2806 52.7689L48.0798 34.5313C48.4182 29.2897 52.0758 27.2305 54.6174 26.4241" stroke="#AEFF00" stroke-width="2" stroke-linecap="round" stroke-linejoin="round"/>
<path d="M54.6965 26.4024C54.6965 26.4024 50.8734 33.3864 52.3782 38.9664C54.7974 47.916 53.2925 52.0632 53.2925 52.0632H61.4286V37.4184C61.4286 33.9408 60.723 30.492 59.3622 27.2952L58.7789 25.9272H58.4693C57.9221 25.9056 57.3678 25.8912 56.8278 25.9488C56.1078 26.028 55.3949 26.2008 54.6893 26.4024H54.6965Z" stroke="#009399" stroke-width="2" stroke-linecap="round" stroke-linejoin="round"/>
<path d="M70.5014 38.3689C71.1422 33.0841 68.3486 26.4025 68.3486 26.4025C67.1246 26.0497 65.8502 25.8841 64.5686 25.9129H64.259L63.6758 27.2881C62.315 30.4921 61.6094 33.9337 61.6094 37.4113V52.0561H69.5654V48.3265" stroke="#009399" stroke-width="2" stroke-linecap="round" stroke-linejoin="round"/>
<path d="M53.9033 15.5449C53.5649 17.0065 52.8161 19.9801 51.7577 22.2913C51.4265 23.0257 51.9449 23.8537 52.7513 23.8537H70.0961C70.9025 23.8537 71.4209 23.0257 71.0897 22.2913C69.9953 19.9009 69.2321 16.7977 68.9153 15.4009" stroke="#AEFF00" stroke-width="2" stroke-linecap="round" stroke-linejoin="round"/>
<path d="M68.9364 13.356H68.922C68.742 11.0952 67.5612 9.12958 65.8404 7.86958V7.92718C65.8404 8.43118 65.43 8.84158 64.926 8.84158C64.422 8.84158 64.0116 8.43118 64.0116 7.92718V6.86878C63.4788 6.67438 62.91 6.55198 62.3268 6.47998V7.92718C62.3268 8.43118 61.9164 8.84158 61.4124 8.84158C60.9084 8.84158 60.498 8.43118 60.498 7.92718V6.47998C59.9148 6.55198 59.346 6.67438 58.8132 6.87598V7.92718C58.8132 8.43118 58.4028 8.84158 57.8988 8.84158C57.3948 8.84158 56.9844 8.43118 56.9844 7.92718V7.86958C55.2708 9.13678 54.09 11.0952 53.91 13.356H53.8956C53.3196 13.356 52.8516 13.824 52.8516 14.4C52.8516 14.976 53.3196 15.444 53.8956 15.444H68.9148C69.4908 15.444 69.9588 14.976 69.9588 14.4C69.9588 13.824 69.4908 13.356 68.9148 13.356H68.9364Z" fill="#006061" stroke="#AEFF00" stroke-width="2" stroke-linecap="round" stroke-linejoin="round"/>
<path d="M68.6285 47.0737C68.031 47.0737 67.4333 46.9369 66.8789 46.6633C65.8997 46.1809 65.1798 45.3385 64.8486 44.2945C64.5246 43.2793 64.6254 42.1993 65.1222 41.2561C65.619 40.3129 66.4541 39.6217 67.4693 39.3049L70.5005 38.3689L69.2549 34.4809C69.1469 34.1425 68.787 33.9553 68.4486 34.0633L59.8661 36.8137C59.5277 36.9217 59.3406 37.2817 59.4486 37.6201L63.4301 50.0401C63.5381 50.3785 63.8981 50.5657 64.2365 50.4577L72.8189 47.7073C73.1573 47.5993 73.3445 47.2393 73.2365 46.9009L72.8765 45.7777L69.9893 46.8289C69.5429 46.9873 69.0821 47.0737 68.6285 47.0737Z" fill="#006061" stroke="#119498" stroke-width="2" stroke-linecap="round" stroke-linejoin="round"/>
</svg>
