<svg width="338" height="338" viewBox="0 0 338 338" fill="none" xmlns="http://www.w3.org/2000/svg">
<g clipPath="url(#clip0_5341_36914)">
<path d="M337.324 0H-0.676025V338H337.324V0Z" fill="#F99D29"/>
<path d="M23.5586 40.6953V52.6605H23.66L31.6706 44.3119H31.772V96.4653H43.2302V28.3245H34.1042L23.5586 40.6953Z" fill="white"/>
<path d="M49.686 40.6953V52.6605H49.7874L57.8318 44.3119H57.9332V96.4653H69.3914V28.3245H60.2316L49.686 40.6953Z" fill="white"/>
<path d="M57.46 257.319H57.967H108.295C108.971 257.319 109.546 256.745 109.546 256.069C109.546 255.765 109.411 255.46 109.208 255.224L109.14 255.156L83.8578 222.438L83.6212 222.167C83.3846 221.931 83.0804 221.762 82.7086 221.762C82.4044 221.762 82.1002 221.897 81.8974 222.066L81.7622 222.235L81.5256 222.505L56.8516 254.886L56.4798 255.359C56.3446 255.562 56.277 255.798 56.277 256.069C56.2094 256.745 56.784 257.319 57.46 257.319Z" fill="white"/>
<path d="M108.16 261.95H57.2234C56.5474 261.95 55.9728 262.525 55.9728 263.201V303.051C55.9728 303.727 56.5474 304.301 57.2234 304.301H73.6164V279.222C73.6164 278.512 74.1572 277.971 74.867 277.971H90.077C90.753 277.971 91.3276 278.512 91.3276 279.222V304.301H108.16C108.836 304.301 109.411 303.727 109.411 303.051V263.167C109.411 262.491 108.836 261.95 108.16 261.95Z" fill="white"/>
<path d="M284.224 251.506H233.795C233.119 251.506 232.578 252.047 232.578 252.689V303.592C232.578 304.268 233.119 304.775 233.795 304.775H284.224C284.9 304.775 285.475 304.234 285.475 303.592V252.689C285.441 252.013 284.9 251.506 284.224 251.506ZM256.643 284.731C256.643 285.407 256.103 285.948 255.427 285.948H240.352C239.676 285.948 239.101 285.407 239.101 284.731V275.571C239.101 274.895 239.642 274.355 240.352 274.355H255.427C256.103 274.355 256.643 274.895 256.643 275.571V284.731ZM256.643 267.831C256.643 268.507 256.103 269.048 255.427 269.048H240.352C239.676 269.048 239.101 268.507 239.101 267.831V258.671C239.101 257.995 239.642 257.488 240.352 257.488H255.427C256.103 257.488 256.643 258.029 256.643 258.671V267.831ZM279.661 284.731C279.661 285.407 279.12 285.948 278.411 285.948H263.336C262.66 285.948 262.085 285.407 262.085 284.731V275.571C262.085 274.895 262.626 274.355 263.336 274.355H278.411C279.087 274.355 279.661 274.895 279.661 275.571V284.731ZM279.661 267.831C279.661 268.507 279.12 269.048 278.411 269.048H263.336C262.66 269.048 262.085 268.507 262.085 267.831V258.671C262.085 257.995 262.626 257.488 263.336 257.488H278.411C279.087 257.488 279.661 258.029 279.661 258.671V267.831Z" fill="white"/>
<path d="M167.006 133.307H117.658C116.982 133.307 116.441 133.848 116.441 134.524V303.152C116.441 303.828 116.982 304.369 117.658 304.369H167.006C167.682 304.369 168.223 303.828 168.223 303.152V134.524C168.223 133.848 167.682 133.307 167.006 133.307ZM137.667 285.171C137.667 285.542 137.363 285.813 137.025 285.813H125.736C125.364 285.813 125.094 285.509 125.094 285.171V272.597C125.094 272.225 125.398 271.955 125.736 271.955H137.025C137.397 271.955 137.667 272.259 137.667 272.597V285.171ZM137.667 256.238C137.667 256.61 137.363 256.88 137.025 256.88H125.736C125.364 256.88 125.094 256.61 125.094 256.238V243.664C125.094 243.292 125.398 243.022 125.736 243.022H137.025C137.397 243.022 137.667 243.292 137.667 243.664V256.238ZM137.667 227.339C137.667 227.711 137.363 227.981 137.025 227.981H125.736C125.364 227.981 125.094 227.677 125.094 227.339V214.731C125.094 214.36 125.398 214.089 125.736 214.089H137.025C137.397 214.089 137.667 214.393 137.667 214.731V227.339ZM137.667 198.406C137.667 198.778 137.363 199.048 137.025 199.048H125.736C125.364 199.048 125.094 198.744 125.094 198.406V185.799C125.094 185.427 125.398 185.156 125.736 185.156H137.025C137.397 185.156 137.667 185.427 137.667 185.799V198.406ZM137.667 169.507C137.667 169.845 137.363 170.149 137.025 170.149H125.736C125.364 170.149 125.094 169.845 125.094 169.507V156.9C125.094 156.528 125.398 156.257 125.736 156.257H137.025C137.397 156.257 137.667 156.562 137.667 156.9V169.507ZM159.806 285.171C159.806 285.542 159.502 285.813 159.164 285.813H147.875C147.503 285.813 147.233 285.509 147.233 285.171V272.597C147.233 272.225 147.503 271.955 147.875 271.955H159.164C159.536 271.955 159.806 272.259 159.806 272.597V285.171ZM159.806 256.238C159.806 256.61 159.502 256.88 159.164 256.88H147.875C147.503 256.88 147.233 256.61 147.233 256.238V243.664C147.233 243.292 147.503 243.022 147.875 243.022H159.164C159.536 243.022 159.806 243.292 159.806 243.664V256.238ZM159.806 227.339C159.806 227.711 159.502 227.981 159.164 227.981H147.875C147.503 227.981 147.233 227.677 147.233 227.339V214.731C147.233 214.36 147.503 214.089 147.875 214.089H159.164C159.536 214.089 159.806 214.393 159.806 214.731V227.339ZM159.806 198.406C159.806 198.778 159.502 199.048 159.164 199.048H147.875C147.503 199.048 147.233 198.744 147.233 198.406V185.799C147.233 185.427 147.503 185.156 147.875 185.156H159.164C159.536 185.156 159.806 185.427 159.806 185.799V198.406ZM159.806 169.507C159.806 169.845 159.502 170.149 159.164 170.149H147.875C147.503 170.149 147.233 169.845 147.233 169.507V156.9C147.233 156.528 147.503 156.257 147.875 156.257H159.164C159.536 156.257 159.806 156.562 159.806 156.9V169.507Z" fill="white"/>
<path d="M285.407 246.368C285.407 246.943 284.968 247.382 284.393 247.382H233.626C233.051 247.382 232.612 246.943 232.612 246.368V236.228C232.612 235.654 233.051 235.214 233.626 235.214H284.359C284.934 235.214 285.373 235.654 285.373 236.228V246.368H285.407Z" fill="white"/>
<path d="M226.629 165.181C226.46 164.64 225.987 164.234 225.378 164.234C225.108 164.234 224.871 164.336 224.669 164.471C224.635 164.505 224.601 164.505 224.567 164.538L224.162 165.079L175.659 226.595L175.422 226.899C175.185 227.136 175.016 227.474 175.016 227.846V227.913V303.423C175.016 304.099 175.557 304.639 176.233 304.639H225.514C226.19 304.639 226.73 304.099 226.73 303.423V165.654C226.73 165.485 226.697 165.316 226.629 165.181ZM206.214 198.575L206.552 198.136C209.864 193.877 215.475 186.982 218.179 183.635L218.551 183.196C218.821 182.892 219.193 182.689 219.632 182.689C220.308 182.689 220.849 183.162 220.984 183.804V184.345V184.785V199.42C220.984 200.164 220.376 200.772 219.632 200.806C219.599 200.806 219.599 200.806 219.565 200.806C219.531 200.806 219.531 200.806 219.497 200.806H207.971H207.363C207.329 200.806 207.329 200.806 207.295 200.806C207.262 200.806 207.262 200.806 207.228 200.806C206.484 200.772 205.876 200.164 205.876 199.42C205.943 199.082 206.011 198.812 206.214 198.575ZM198.541 284.731C198.541 285.407 198 285.948 197.324 285.948H182.621C181.945 285.948 181.405 285.407 181.405 284.731V275.538C181.405 274.862 181.945 274.321 182.621 274.321H197.324C198 274.321 198.541 274.862 198.541 275.538V284.731ZM198.541 267.73C198.541 268.406 198 268.947 197.324 268.947H182.621C181.945 268.947 181.405 268.406 181.405 267.73V258.536C181.405 257.86 181.945 257.319 182.621 257.319H197.324C198 257.319 198.541 257.86 198.541 258.536V267.73ZM198.541 250.728C198.541 251.404 198 251.945 197.324 251.945H182.621C181.945 251.945 181.405 251.404 181.405 250.728V241.535C181.405 240.859 181.945 240.318 182.621 240.318H197.324C198 240.318 198.541 240.859 198.541 241.535V250.728ZM198.575 213.447V213.886V233.727C198.575 234.403 198.034 234.944 197.358 234.944H182.655C181.979 234.944 181.438 234.403 181.438 233.727V231.293V231.192C181.438 231.023 181.472 230.888 181.54 230.753C181.574 230.719 181.574 230.685 181.607 230.617C181.641 230.55 181.675 230.516 181.709 230.448C181.743 230.381 181.81 230.313 181.844 230.246C183.737 227.542 192.221 217.097 195.77 212.737L196.141 212.298C196.412 211.994 196.784 211.791 197.223 211.791C197.899 211.791 198.44 212.298 198.575 212.906V213.447ZM221.018 284.731C221.018 285.407 220.477 285.948 219.801 285.948H205.098C204.422 285.948 203.882 285.407 203.882 284.731V275.538C203.882 274.862 204.422 274.321 205.098 274.321H219.801C220.477 274.321 221.018 274.862 221.018 275.538V284.731ZM221.018 267.73C221.018 268.406 220.477 268.947 219.801 268.947H205.098C204.422 268.947 203.882 268.406 203.882 267.73V258.536C203.882 257.86 204.422 257.319 205.098 257.319H219.801C220.477 257.319 221.018 257.86 221.018 258.536V267.73ZM221.018 250.728C221.018 251.404 220.477 251.945 219.801 251.945H205.098C204.422 251.945 203.882 251.404 203.882 250.728V241.535C203.882 240.859 204.422 240.318 205.098 240.318H219.801C220.477 240.318 221.018 240.859 221.018 241.535V250.728ZM221.018 233.693C221.018 234.369 220.477 234.91 219.801 234.91H205.098C204.422 234.91 203.882 234.369 203.882 233.693V224.5C203.882 223.824 204.422 223.283 205.098 223.283H219.801C220.477 223.283 221.018 223.824 221.018 224.5V233.693ZM221.018 216.692C221.018 217.368 220.477 217.909 219.801 217.909H205.098C204.422 217.909 203.882 217.368 203.882 216.692V207.498C203.882 206.822 204.422 206.281 205.098 206.281H219.801C220.477 206.281 221.018 206.822 221.018 207.498V216.692Z" fill="white"/>
<path d="M91.6318 49.9564V46.2384H95.9582V50.024C95.9582 51.5788 96.668 52.4576 98.2566 52.4576C99.71 52.4576 100.386 51.4774 100.386 50.024V48.9762C100.386 47.3876 99.7438 46.4074 98.3242 45.0554L95.5864 42.3176C92.95 39.715 91.6994 38.1264 91.6994 34.9492V34.0028C91.6994 30.589 93.6936 27.9188 98.2228 27.9188C102.853 27.9188 104.712 30.1834 104.712 34.2056V36.4364H100.487V34.0366C100.487 32.448 99.7438 31.6706 98.2904 31.6706C96.9722 31.6706 96.0934 32.4142 96.0934 33.9352V34.5098C96.0934 36.0646 96.9384 36.9434 98.2904 38.2616L101.265 41.2022C103.8 43.771 105.017 45.3258 105.017 48.3678V49.7198C105.017 53.5054 102.989 56.2094 98.2566 56.2094C93.4908 56.2094 91.6318 53.573 91.6318 49.9564Z" fill="white"/>
<path d="M120.497 28.2906V49.1791C120.497 53.4717 118.672 56.2432 113.94 56.2432C109.039 56.2432 107.011 53.4717 107.011 49.1791V28.2906H111.641V49.6185C111.641 51.2409 112.284 52.3563 113.94 52.3563C115.562 52.3563 116.204 51.2409 116.204 49.6185V28.2906H120.497Z" fill="white"/>
<path d="M122.863 49.9564V46.2384H127.189V50.024C127.189 51.5788 127.899 52.4576 129.488 52.4576C130.941 52.4576 131.617 51.4774 131.617 50.024V48.9762C131.617 47.3876 130.975 46.4074 129.555 45.0554L126.818 42.3176C124.181 39.715 122.931 38.1264 122.931 34.9492V34.0028C122.931 30.589 124.925 27.9188 129.454 27.9188C134.085 27.9188 135.944 30.1834 135.944 34.2056V36.4364H131.719V34.0366C131.719 32.448 130.975 31.6706 129.522 31.6706C128.203 31.6706 127.325 32.4142 127.325 33.9352V34.5098C127.325 36.0646 128.17 36.9434 129.522 38.2616L132.496 41.2022C135.031 43.771 136.248 45.3258 136.248 48.3678V49.7198C136.248 53.5054 134.22 56.2094 129.488 56.2094C124.688 56.2094 122.863 53.573 122.863 49.9564Z" fill="white"/>
<path d="M137.262 28.2906H149.599V32.0763H145.779V55.9053H141.081V32.0763H137.262V28.2906Z" fill="white"/>
<path d="M148.754 55.9053L153.959 28.2906H159.266L164.505 55.9053H159.739L158.894 50.8691H153.959L153.148 55.9053H148.754ZM154.601 47.1511H158.319L156.494 36.0647H156.46L154.601 47.1511Z" fill="white"/>
<path d="M166.397 28.2906H171.028V55.9053H166.397V28.2906Z" fill="white"/>
<path d="M177.619 38.5321V55.8715H173.698V28.2906H178.261L183.264 44.1429V28.2906H187.151V55.9053H183.061L177.619 38.5321Z" fill="white"/>
<path d="M188.672 55.9053L193.877 28.2906H199.183L204.422 55.9053H199.657L198.812 50.8691H193.877L193.066 55.9053H188.672ZM194.485 47.1511H198.203L196.378 36.0647H196.344L194.485 47.1511Z" fill="white"/>
<path d="M205.91 28.2906H212.602C217.233 28.2906 218.787 30.4538 218.787 34.3747V37.1801C218.787 39.5123 217.942 40.9657 216.016 41.5741C218.348 42.1149 219.463 43.6359 219.463 46.1709V49.8213C219.463 53.7421 217.706 55.9053 213.075 55.9053H205.876V28.2906H205.91ZM210.54 39.9179H212.163C213.684 39.9179 214.36 39.1405 214.36 37.6871V34.3071C214.36 32.7861 213.684 32.0763 212.129 32.0763H210.54V39.9179ZM210.54 43.4669V52.0859H212.568C214.123 52.0859 214.867 51.3085 214.867 49.8551V45.6977C214.867 44.2443 214.157 43.4669 212.534 43.4669H210.54Z" fill="white"/>
<path d="M221.424 28.2906H226.054V52.1197H231.598V55.9053H221.424V28.2906Z" fill="white"/>
<path d="M233.321 28.2906H244.408V32.0763H237.986V39.9855H242.583V43.7372H237.952V52.1197H244.374V55.9053H233.288V28.2906H233.321Z" fill="white"/>
<path d="M252.216 48.7734V35.4224C252.216 31.096 254.244 27.9526 259.145 27.9526C264.282 27.9526 265.702 30.7918 265.702 34.8816V38.1264H261.477V34.5098C261.477 32.786 260.902 31.8058 259.246 31.8058C257.59 31.8058 256.88 32.9888 256.88 34.645V49.4832C256.88 51.1394 257.59 52.3224 259.246 52.3224C260.902 52.3224 261.477 51.2746 261.477 49.6184V44.5146H265.702V49.348C265.702 53.3026 264.079 56.2432 259.145 56.2432C254.244 56.2094 252.216 53.0322 252.216 48.7734Z" fill="white"/>
<path d="M267.865 28.2906H272.496V55.9053H267.865V28.2906Z" fill="white"/>
<path d="M274.253 28.2906H286.624V32.0763H282.805V55.9053H278.106V32.0763H274.287V28.2906H274.253Z" fill="white"/>
<path d="M288.449 28.2906H293.08V55.9053H288.449V28.2906Z" fill="white"/>
<path d="M295.48 28.2906H306.566V32.0763H300.144V39.9855H304.741V43.7372H300.144V52.1197H306.566V55.9053H295.48V28.2906Z" fill="white"/>
<path d="M307.85 49.9564V46.2384H312.177V50.024C312.177 51.5788 312.887 52.4576 314.475 52.4576C315.929 52.4576 316.605 51.4774 316.605 50.024V48.9762C316.605 47.3876 315.962 46.4074 314.543 45.0554L311.805 42.3176C309.169 39.715 307.918 38.1264 307.918 34.9492V34.0028C307.918 30.589 309.912 27.9188 314.441 27.9188C319.072 27.9188 320.931 30.1834 320.931 34.2056V36.4364H316.706V34.0366C316.706 32.448 315.962 31.6706 314.509 31.6706C313.191 31.6706 312.312 32.4142 312.312 33.9352V34.5098C312.312 36.0646 313.157 36.9434 314.509 38.2616L317.483 41.2022C320.018 43.771 321.235 45.3258 321.235 48.3678V49.7198C321.235 53.5054 319.207 56.2094 314.475 56.2094C309.676 56.2094 307.85 53.573 307.85 49.9564Z" fill="white"/>
<path d="M91.7332 96.4652L96.9384 68.8506H102.245L107.484 96.4652H102.718L101.873 91.429H96.9384L96.1272 96.4652H91.7332ZM97.5468 87.711H101.265L99.4396 76.6246H99.372L97.5468 87.711Z" fill="white"/>
<path d="M113.737 79.1258V96.4652H109.816V68.8506H114.379L119.382 84.7028V68.8506H123.269V96.4652H119.179L113.737 79.1258Z" fill="white"/>
<path d="M140.202 76.2866V89.063C140.202 93.288 138.445 96.4652 133.476 96.4652H126.311V68.8506H133.476C138.445 68.8506 140.202 71.994 140.202 76.2866ZM132.902 92.6796C134.828 92.6796 135.538 91.5304 135.538 89.8742V75.4078C135.538 73.7854 134.794 72.6362 132.902 72.6362H130.941V92.6796H132.902Z" fill="white"/>
<path d="M147.943 89.3334V75.9824C147.943 71.656 149.971 68.5126 154.872 68.5126C160.009 68.5126 161.429 71.3518 161.429 75.4416V78.6864H157.204V75.0698C157.204 73.346 156.629 72.3658 154.973 72.3658C153.317 72.3658 152.607 73.5488 152.607 75.205V90.0432C152.607 91.6994 153.317 92.8824 154.973 92.8824C156.629 92.8824 157.204 91.8346 157.204 90.1784V85.0746H161.429V89.908C161.429 93.8626 159.806 96.8032 154.872 96.8032C150.004 96.8032 147.943 93.626 147.943 89.3334Z" fill="white"/>
<path d="M164.369 89.3334V75.9824C164.369 71.656 166.499 68.5126 171.366 68.5126C176.301 68.5126 178.43 71.656 178.43 75.9824V89.3334C178.43 93.626 176.301 96.8032 171.366 96.8032C166.499 96.8032 164.369 93.626 164.369 89.3334ZM173.8 90.077V75.2388C173.8 73.5826 173.056 72.3996 171.4 72.3996C169.777 72.3996 169.034 73.5826 169.034 75.2388V90.077C169.034 91.7332 169.777 92.9162 171.4 92.9162C173.056 92.9162 173.8 91.767 173.8 90.077Z" fill="white"/>
<path d="M194.282 78.5512H194.147L191.004 96.4652H188.841L185.393 78.5512H185.325V96.4652H181.506V68.8506H186.914L189.922 84.3986H189.956L192.66 68.8506H198.541V96.4652H194.316V78.5512H194.282Z" fill="white"/>
<path d="M214.36 78.5512H214.224L211.081 96.4652H208.918L205.47 78.5512H205.403V96.4652H201.583V68.8506H206.991L209.999 84.3986H210.033L212.737 68.8506H218.618V96.4652H214.393V78.5512H214.36Z" fill="white"/>
<path d="M235.147 68.8506V89.739C235.147 94.0316 233.321 96.8032 228.589 96.8032C223.688 96.8032 221.66 94.0316 221.66 89.739V68.8506H226.291V90.1784C226.291 91.8008 226.933 92.9162 228.589 92.9162C230.212 92.9162 230.854 91.8008 230.854 90.1784V68.8506H235.147Z" fill="white"/>
<path d="M242.109 79.1258V96.4652H238.189V68.8506H242.752L247.754 84.7028V68.8506H251.641V96.4652H247.551L242.109 79.1258Z" fill="white"/>
<path d="M254.717 68.8506H259.347V96.4652H254.717V68.8506Z" fill="white"/>
<path d="M261.882 68.8506H274.219V72.6362H270.4V96.4652H265.702V72.6362H261.882V68.8506Z" fill="white"/>
<path d="M276.788 68.8506H281.419V96.4652H276.788V68.8506Z" fill="white"/>
<path d="M284.528 68.8506H295.615V72.6362H289.193V80.5454H293.79V84.2972H289.193V92.6796H295.615V96.4652H284.528V68.8506Z" fill="white"/>
<path d="M298.048 90.5164V86.7984H302.375V90.584C302.375 92.1388 303.085 93.0176 304.673 93.0176C306.127 93.0176 306.803 92.0374 306.803 90.584V89.5362C306.803 87.9476 306.16 86.9674 304.741 85.6154L302.003 82.8776C299.367 80.275 298.116 78.6864 298.116 75.5092V74.5628C298.116 71.149 300.11 68.4788 304.639 68.4788C309.27 68.4788 311.129 70.7434 311.129 74.7656V76.9964H306.904V74.5966C306.904 73.008 306.16 72.2306 304.707 72.2306C303.389 72.2306 302.51 72.9742 302.51 74.4952V75.0698C302.51 76.6246 303.355 77.5034 304.707 78.8216L307.681 81.7622C310.216 84.331 311.433 85.8858 311.433 88.9278V90.2798C311.433 94.0654 309.405 96.7694 304.673 96.7694C299.907 96.8032 298.048 94.1668 298.048 90.5164Z" fill="white"/>
</g>
<defs>
<clipPath id="clip0_5341_36914">
<rect width="338" height="338" fill="white"/>
</clipPath>
</defs>
</svg>
