<svg width="338" height="338" viewBox="0 0 338 338" fill="none" xmlns="http://www.w3.org/2000/svg">
<g clipPath="url(#clip0_5341_36921)">
<path d="M338 0H0V338H338V0Z" fill="#FDB714"/>
<path d="M34.6788 37.6871H52.3562L37.0786 96.4653H48.4354L63.4088 38.8701V28.3245H34.6788V37.6871Z" fill="white"/>
<path d="M169 163.761C141.656 163.761 119.483 185.934 119.483 213.312C119.483 240.69 141.656 262.863 169 262.863C196.344 262.863 218.517 240.656 218.517 213.312C218.517 185.934 196.344 163.761 169 163.761ZM165.316 183.331C165.316 181.675 166.972 179.884 169 179.884C171.028 179.884 172.684 181.709 172.684 183.331V200.333C172.684 201.989 171.028 203.78 169 203.78C166.972 203.78 165.316 201.989 165.316 200.333V183.331ZM169 238.696C154.77 238.696 143.244 227.17 143.244 212.94C143.244 201.38 150.849 191.578 161.361 188.334V197.933C155.886 200.738 152.168 206.383 152.168 212.94C152.168 222.269 159.705 229.806 169.034 229.806C178.363 229.806 185.9 222.269 185.9 212.94C185.9 206.349 182.148 200.671 176.639 197.899V188.3C187.151 191.545 194.789 201.347 194.789 212.906C194.756 227.136 183.23 238.696 169 238.696Z" fill="white"/>
<path d="M112.115 212.872C112.115 210.642 110.12 208.816 108.295 208.816H86.5956C84.7704 208.816 82.7424 210.642 82.7424 212.872C82.7424 215.137 84.7366 216.962 86.5956 216.962H108.295C110.12 216.962 112.115 215.103 112.115 212.872Z" fill="white"/>
<path d="M255.224 212.872C255.224 210.642 253.23 208.816 251.404 208.816H229.705C227.88 208.816 225.885 210.642 225.885 212.872C225.885 215.137 227.88 216.962 229.705 216.962H251.404C253.23 216.962 255.224 215.103 255.224 212.872Z" fill="white"/>
<path d="M169 155.987C171.231 155.987 173.056 153.993 173.056 152.168V130.468C173.056 128.643 171.231 126.649 169 126.649C166.735 126.649 164.91 128.643 164.91 130.468V152.168C164.91 153.993 166.769 155.987 169 155.987Z" fill="white"/>
<path d="M169 299.096C171.231 299.096 173.056 297.102 173.056 295.277V273.577C173.056 271.752 171.231 269.724 169 269.724C166.735 269.724 164.91 271.718 164.91 273.577V295.277C164.91 297.102 166.769 299.096 169 299.096Z" fill="white"/>
<path d="M119.652 184.616C120.767 182.655 119.956 180.086 118.368 179.208L99.5411 168.425C97.9525 167.513 95.3161 168.087 94.2007 170.048C93.0853 172.008 93.9303 174.577 95.5189 175.49L114.345 186.272C115.9 187.151 118.537 186.576 119.652 184.616Z" fill="white"/>
<path d="M243.833 255.697C244.949 253.737 244.137 251.168 242.549 250.289L223.722 239.507C222.134 238.594 219.497 239.169 218.382 241.129C217.266 243.09 218.111 245.658 219.7 246.571L238.527 257.353C240.081 258.232 242.718 257.657 243.833 255.697Z" fill="white"/>
<path d="M197.257 163.524C199.217 164.64 201.786 163.829 202.665 162.24L213.447 143.413C214.36 141.825 213.785 139.188 211.825 138.073C209.864 136.958 207.295 137.803 206.383 139.391L195.601 158.184C194.688 159.773 195.296 162.409 197.257 163.524Z" fill="white"/>
<path d="M126.175 287.706C128.136 288.821 130.705 288.01 131.583 286.421L142.366 267.595C143.278 266.006 142.704 263.37 140.743 262.254C138.783 261.139 136.214 261.984 135.301 263.572L124.519 282.399C123.64 283.954 124.215 286.59 126.175 287.706Z" fill="white"/>
<path d="M140.642 163.558C142.602 162.443 143.177 159.806 142.264 158.218L131.448 139.425C130.536 137.836 127.967 137.025 126.006 138.141C124.046 139.256 123.471 141.926 124.384 143.515L135.2 162.308C136.113 163.862 138.715 164.674 140.642 163.558Z" fill="white"/>
<path d="M211.994 287.604C213.954 286.489 214.529 283.852 213.616 282.264L202.8 263.471C201.887 261.882 199.319 261.037 197.358 262.187C195.398 263.302 194.823 265.972 195.736 267.561L206.552 286.354C207.464 287.908 210.033 288.72 211.994 287.604Z" fill="white"/>
<path d="M218.314 184.514C219.43 186.475 222.066 187.049 223.655 186.137L242.447 175.321C244.036 174.408 244.881 171.839 243.766 169.879C242.65 167.918 239.98 167.344 238.391 168.256L219.599 179.072C218.01 179.985 217.199 182.588 218.314 184.514Z" fill="white"/>
<path d="M94.2682 255.866C95.3836 257.826 98.02 258.401 99.6086 257.488L118.401 246.672C119.99 245.76 120.835 243.191 119.686 241.231C118.57 239.27 115.9 238.696 114.312 239.608L95.5188 250.424C93.964 251.337 93.1528 253.906 94.2682 255.866Z" fill="white"/>
<path d="M95.823 55.9053L101.028 28.2906H106.335L111.608 55.9053H106.808L105.963 50.8691H101.028L100.217 55.9053H95.823ZM101.637 47.1511H105.355L103.529 36.0647H103.496L101.637 47.1511Z" fill="white"/>
<path d="M113.298 28.2906H124.181V32.0763H117.962V39.9855H122.593V43.7372H117.962V55.9053H113.331V28.2906H113.298Z" fill="white"/>
<path d="M126.006 28.2906H136.89V32.0763H130.671V39.9855H135.301V43.7372H130.671V55.9053H126.04V28.2906H126.006Z" fill="white"/>
<path d="M138.31 48.7734V35.4224C138.31 31.096 140.439 27.9526 145.306 27.9526C150.241 27.9526 152.37 31.096 152.37 35.4224V48.7734C152.37 53.066 150.241 56.2432 145.306 56.2432C140.439 56.2432 138.31 53.066 138.31 48.7734ZM147.74 49.517V34.6788C147.74 33.0226 146.996 31.8396 145.34 31.8396C143.718 31.8396 142.974 33.0226 142.974 34.6788V49.517C142.974 51.1732 143.718 52.3562 145.34 52.3562C146.996 52.3562 147.74 51.1732 147.74 49.517Z" fill="white"/>
<path d="M159.468 43.2303V55.9053H154.804V28.2906H161.564C166.262 28.2906 167.952 30.6229 167.952 34.4761V38.0251C167.952 40.9995 166.904 42.7571 164.234 43.3655L168.662 55.9053H163.761L159.468 43.2303ZM159.468 32.0763V40.6615H161.023C162.612 40.6615 163.322 39.8503 163.322 38.3631V34.2733C163.322 32.7523 162.646 32.0425 161.023 32.0425H159.468V32.0763Z" fill="white"/>
<path d="M184.21 35.6929V48.5031C184.21 52.7281 182.452 55.9053 177.484 55.9053H170.318V28.2906H177.484C182.452 28.2906 184.21 31.4003 184.21 35.6929ZM176.909 52.1197C178.836 52.1197 179.546 50.9704 179.546 49.3143V34.8479C179.546 33.2255 178.802 32.0763 176.909 32.0763H174.949V52.1197H176.909Z" fill="white"/>
<path d="M185.292 55.9053L190.497 28.2906H195.803L201.076 55.9053H196.31L195.465 50.8691H190.531L189.719 55.9053H185.292ZM191.139 47.1511H194.857L193.032 36.0647H192.998L191.139 47.1511Z" fill="white"/>
<path d="M202.766 28.2906H209.492C214.123 28.2906 215.678 30.4538 215.678 34.3747V37.1801C215.678 39.5123 214.833 40.9657 212.906 41.5741C215.238 42.1149 216.354 43.6359 216.354 46.1709V49.8551C216.354 53.7759 214.596 55.9391 209.966 55.9391H202.766V28.2906ZM207.431 39.9179H209.053C210.574 39.9179 211.25 39.1405 211.25 37.6871V34.3071C211.25 32.7861 210.574 32.0763 209.019 32.0763H207.431V39.9179ZM207.431 43.4669V52.1197H209.459C211.013 52.1197 211.757 51.3423 211.757 49.8889V45.7315C211.757 44.2781 211.081 43.5007 209.425 43.5007H207.431V43.4669Z" fill="white"/>
<path d="M218.517 28.2906H223.148V52.1197H228.691V55.9053H218.517V28.2906Z" fill="white"/>
<path d="M230.617 28.2906H241.704V32.0763H235.282V39.9855H239.879V43.7372H235.248V52.1197H241.67V55.9053H230.584V28.2906H230.617Z" fill="white"/>
<path d="M247.315 55.9053L252.52 28.2906H257.826L263.099 55.9053H258.333L257.488 50.8691H252.554L251.742 55.9053H247.315ZM253.128 47.1511H256.846L255.021 36.0647H254.987L253.128 47.1511Z" fill="white"/>
<path d="M268.71 38.5321V55.9053H264.789V28.2906H269.352L274.355 44.1429V28.2906H278.242V55.9053H274.152L268.71 38.5321Z" fill="white"/>
<path d="M294.567 35.6929V48.5031C294.567 52.7281 292.809 55.9053 287.841 55.9053H280.675V28.2906H287.841C292.809 28.2906 294.567 31.4003 294.567 35.6929ZM287.3 52.1197C289.227 52.1197 289.936 50.9704 289.936 49.3143V34.8479C289.936 33.2255 289.193 32.0763 287.3 32.0763H285.34V52.1197H287.3Z" fill="white"/>
<path d="M96.499 89.3334V76.05C96.499 71.7574 98.527 68.6478 103.394 68.6478C108.498 68.6478 109.918 71.487 109.918 75.543V78.7878H105.693V75.1712C105.693 73.4812 105.118 72.501 103.462 72.501C101.806 72.501 101.096 73.684 101.096 75.3402V90.1108C101.096 91.767 101.772 92.95 103.462 92.95C105.152 92.95 105.693 91.9022 105.693 90.2798V85.2098H109.918V89.9418C109.918 93.8626 108.295 96.8032 103.394 96.8032C98.527 96.7694 96.499 93.5922 96.499 89.3334Z" fill="white"/>
<path d="M112.858 68.952H117.489V92.6796H122.998V96.4652H112.858V68.952Z" fill="white"/>
<path d="M125.499 68.952H136.518V72.7376H130.13V80.613H134.727V84.331H130.13V92.6796H136.518V96.4652H125.499V68.952Z" fill="white"/>
<path d="M138.681 96.4314L143.887 68.952H149.159L154.398 96.4314H149.666L148.821 91.3952H143.92L143.109 96.4314H138.681ZM144.461 87.711H148.145L146.32 76.6922H146.286L144.461 87.711Z" fill="white"/>
<path d="M160.55 79.1596V96.4314H156.663V68.952H161.192L166.195 84.7366V68.952H170.048V96.4314H165.992L160.55 79.1596Z" fill="white"/>
<path d="M182.419 68.952H193.437V72.7376H187.049V80.613H191.646V84.331H187.049V92.6796H193.437V96.4652H182.419V68.952Z" fill="white"/>
<path d="M200.096 79.1596V96.4314H196.209V68.952H200.738L205.741 84.7366V68.952H209.56V96.4314H205.504L200.096 79.1596Z" fill="white"/>
<path d="M212.568 68.952H223.587V72.7376H217.199V80.613H221.796V84.331H217.199V92.6796H223.587V96.4652H212.568V68.952Z" fill="white"/>
<path d="M231.023 83.824V96.4314H226.392V68.952H233.119C237.783 68.952 239.473 71.2504 239.473 75.1036V78.6188C239.473 81.5932 238.425 83.317 235.789 83.9254L240.217 96.3976H235.349L231.023 83.824ZM231.023 72.7376V81.289H232.578C234.166 81.289 234.842 80.4778 234.842 79.0244V74.9684C234.842 73.4812 234.166 72.7376 232.578 72.7376H231.023Z" fill="white"/>
<path d="M249.376 81.7622H255.934V96.4314H252.621V93.4232C252.013 95.485 250.728 96.7356 248.193 96.7356C244.205 96.7356 242.38 93.5584 242.38 89.3334V76.05C242.38 71.7574 244.442 68.6478 249.309 68.6478C254.413 68.6478 255.9 71.487 255.9 75.543V77.9766H251.675V75.1712C251.675 73.4812 251.033 72.501 249.376 72.501C247.72 72.501 246.977 73.684 246.977 75.3402V90.1108C246.977 91.767 247.653 92.95 249.241 92.95C250.728 92.95 251.506 92.105 251.506 90.3136V85.4464H249.309V81.7622H249.376Z" fill="white"/>
<path d="M267.899 85.9872V96.4314H263.268V85.9872L258.131 68.952H262.964L265.769 79.3624H265.803L268.609 68.952H273.036L267.899 85.9872Z" fill="white"/>
</g>
<defs>
<clipPath id="clip0_5341_36921">
<rect width="338" height="338" fill="white"/>
</clipPath>
</defs>
</svg>
