<svg width="338" height="338" viewBox="0 0 338 338" fill="none" xmlns="http://www.w3.org/2000/svg">
<g clipPath="url(#clip0_5341_36917)">
<path d="M338 0H0V338H338V0Z" fill="#3F7E44"/>
<path d="M42.6623 28.3514V96.472H31.2075V44.3287H31.1061L23.0718 52.6672H22.967V40.7087L33.516 28.3514H42.6623Z" fill="white"/>
<path d="M80.4439 43.1254V49.0505C80.4439 54.7729 77.331 58.5923 72.6091 60.1031C78.3348 61.4078 81.0591 65.4266 81.0591 71.656V81.7047C81.0591 91.145 76.0364 97.2764 64.4802 97.2764C52.8226 97.2764 48.699 90.6448 48.699 80.2952V71.3551H59.1499V81.12C59.1499 85.1388 60.5526 87.7448 64.4768 87.7448C67.9886 87.7448 69.5941 85.2368 69.5941 81.6168V70.3513C69.5941 66.7313 67.9886 64.825 63.9732 64.825H59.1499V56.0843H63.473C67.191 56.0843 69.5941 54.1712 69.5941 50.558V43.2234C69.5941 39.5054 68.2928 37.0955 64.6762 37.0955C61.0596 37.0955 59.755 39.5054 59.755 43.7236V50.656H49.2905V44.616C49.2905 34.5672 53.4107 27.5334 65.2677 27.5334C75.8201 27.5334 80.4406 33.4653 80.4406 43.1119" fill="white"/>
<path d="M293.076 211.588C284.17 199.112 243.887 149.244 169 149.244C94.1126 149.244 53.8501 199.112 44.9303 211.588C44.5517 212.122 44.2238 212.602 43.9602 212.977C44.2238 213.379 44.5517 213.839 44.9303 214.38C53.8501 226.876 94.1194 276.748 169 276.748C243.88 276.748 284.17 226.876 293.076 214.393C293.465 213.853 293.786 213.379 294.04 212.991C293.787 212.599 293.466 212.136 293.076 211.602M127.24 180.776C127.916 179.786 130.157 176.96 130.427 176.602C131.005 175.858 132.151 175.706 132.952 175.564C133.753 175.422 134.808 175.858 134.936 176.456C135.065 177.055 134.629 179.373 134.237 179.772C133.138 180.911 130.279 182.52 128.704 182.267C127.483 182.081 127.014 181.138 127.24 180.776ZM124.563 186.096C124.681 185.954 124.79 185.839 124.833 185.782C125.776 184.707 127.652 184.477 128.947 184.274C130.241 184.071 131.989 184.707 132.185 185.569C132.381 186.431 128.93 188.002 128.295 188.611C126.493 190.27 123.674 193.65 122.025 194.019C121.572 194.133 121.093 194.084 120.673 193.88C121.748 191.184 123.048 188.584 124.56 186.106M152.583 243.593C151.569 247.582 150.386 249.018 149.379 250.275C148.372 251.533 144.647 253.172 142.281 252.996C139.915 252.821 139.577 246.49 139.577 243.232C139.577 242.109 137.985 245.442 137.154 238.665C136.623 234.329 133.838 239.118 133.642 236.225C133.446 233.332 132.053 233.913 130.6 232.108C129.146 230.303 127.328 232.284 125.293 233.196C123.258 234.109 124.103 234.569 121.237 233.663C121.163 233.639 121.126 233.619 121.055 233.592C118.328 227.167 116.923 220.258 116.924 213.278C116.924 211.517 117.019 209.783 117.185 208.073C117.276 207.901 117.384 207.738 117.506 207.586C120.264 204.321 120.21 203.557 120.21 203.557L123.252 202.503C123.252 202.503 128.126 203.253 131.796 204.635C134.821 205.768 139.57 208.333 142.352 207.204C144.356 206.379 145.921 205.284 145.732 203.618C145.509 201.526 143.859 201.029 141.865 202.438C141.132 202.959 139.563 199.285 138.333 199.474C137.103 199.663 139.854 203.787 138.813 203.963C137.772 204.138 135.666 199.657 135.308 198.93C134.95 198.203 133.331 196.408 131.874 197.781C128.798 200.704 123.803 200.525 122.799 201.279C119.757 203.564 118.939 200.525 119.006 198.676C119.128 198.254 119.253 197.828 119.388 197.409C120.385 196.31 123.965 195.945 125.195 196.763C126.547 197.666 127.514 196.533 128.041 195.986C128.568 195.438 128.379 194.583 128.041 193.867C127.703 193.15 128.717 192.609 129.413 192.423C130.11 192.237 132.438 190.608 133.368 190.057C134.297 189.506 139.114 188.932 141.287 190.013C142.144 190.466 143.13 190.608 144.079 190.417C145.028 190.225 145.882 189.711 146.496 188.962C147.559 187.695 148.84 186.627 150.278 185.809C151.035 185.471 148.416 183.013 146.266 185.677C144.116 188.34 143.011 188.57 141.997 188.57C140.983 188.57 134.96 187.069 134.223 185.167C133.486 183.264 136.109 181.841 138.33 180.773C140.55 179.704 146.634 179.728 148.189 179.377C151.35 178.684 155.392 177.095 157.427 178.481C159.462 179.867 148.926 182.239 152.387 184.109C153.618 184.785 159.181 180.908 161.091 179.914C165.576 177.602 156.741 176.838 157.886 172.14C159.181 166.827 147.047 168.882 140.986 169.335C147.991 164.854 155.965 162.113 164.243 161.34C172.522 160.567 180.866 161.785 188.578 164.892C196.291 167.998 203.149 172.904 208.58 179.2C214.011 185.495 217.859 192.998 219.801 201.083C219.832 201.896 219.747 202.71 219.548 203.5C219.075 205.379 215.492 206.995 213.44 203.969C212.913 203.206 210.675 201.093 210.736 204.706C210.797 208.32 214.251 208.691 210.915 210.861C207.579 213.031 206.974 212.507 205.433 213.055C203.892 213.602 202.391 217.324 202.773 219.315C203.155 221.305 207.9 226.751 204.372 226.521C203.544 226.457 197.311 222.201 196.283 219.463C195.195 216.58 194.012 213.761 193.17 211.588C192.329 209.415 190.128 208.884 188.256 210.145C186.383 211.405 188.773 212.683 187.438 215.401C186.103 218.118 185.153 220.535 183.196 218.294C178.102 212.46 170.69 215.336 169.544 208.83C168.919 205.311 165.887 205.649 163.352 203.655C160.817 201.661 159.387 200.613 158.958 202.029C158.583 203.29 166.931 209.912 167.526 211.605C168.415 214.126 165.028 216.337 162.548 216.945C160.067 217.554 158.992 215.556 156.558 213.021C154.125 210.486 153.067 208.688 152.898 210.675C152.654 213.545 155.206 217.773 157.68 219.335C159.793 220.67 162.159 221.275 161.473 223.445C160.787 225.615 161.473 224.391 159.107 226.73C156.741 229.069 156.288 229.837 156.46 233.085C156.633 236.333 155.784 236.529 155.274 239.236C154.763 241.944 153.584 239.601 152.57 243.573M208.546 222.783C210.297 222.641 212.94 225.071 211.902 226.004C210.865 226.937 208.248 226.592 206.927 225.558C205.605 224.523 207.755 222.854 208.546 222.783ZM206.325 221.18C205.764 220.971 205.267 220.437 204.841 219.152C204.416 217.868 205.494 217.124 206.531 217.655C207.569 218.186 208.992 219.795 208.992 220.646C208.992 221.498 206.886 221.4 206.312 221.174M183.291 221.082C182.26 222.002 179.623 221.664 178.305 220.636C176.987 219.609 179.137 217.932 179.921 217.861C181.675 217.702 184.315 220.156 183.301 221.082M162.007 231.442C161.29 232.615 159.326 241.386 158.012 240.365C156.697 239.345 158.546 230.192 158.924 229.495C160.986 225.716 165.441 225.902 162.007 231.442ZM169.105 265.438C164.143 265.439 159.207 264.733 154.446 263.339C154.073 263.044 153.809 262.634 153.694 262.173C153.58 261.712 153.622 261.226 153.814 260.791C155.426 256.583 160.236 254.933 164.028 254.568C172.478 253.743 183.605 260.061 185.373 259.04C187.14 258.019 190.723 253.372 195.969 253.568C199.552 253.706 199.525 254.308 200.728 254.761C191.648 261.701 180.533 265.454 169.105 265.438ZM205.896 250.255C205.332 250.109 204.784 249.906 204.26 249.65C201.411 248.2 201.752 250.515 200.353 249.988C198.953 249.461 201.931 246.219 197.727 248.974C193.522 251.729 194.668 248.548 192.842 243.904C191.017 239.26 194.945 233.957 198.25 232.75C202.783 231.111 205.595 230.776 207.714 230.252C213.981 228.687 215.306 224.969 216.442 227.231C216.658 227.653 216.864 228.059 217.053 228.437C217.561 229.51 217.831 230.681 217.844 231.868C215.207 238.779 211.131 245.052 205.886 250.269M220.176 223.935C218.777 223.553 212.92 215.455 217.55 210.128C218.321 209.252 215.995 206.673 216.631 206.623C219.166 206.427 220.511 207.998 221.177 210.263C221.228 211.277 221.268 212.271 221.268 213.305C221.267 216.882 220.901 220.449 220.176 223.952" fill="white"/>
<path d="M107.856 49.2128V35.5677C107.856 31.1737 109.934 27.9559 114.927 27.9559C120.169 27.9559 121.626 30.8661 121.626 35.0269V38.3562H117.286V34.6382C117.286 32.8907 116.705 31.8936 114.998 31.8936C113.291 31.8936 112.598 33.124 112.598 34.814V49.9564C112.598 51.6464 113.304 52.8665 115.011 52.8665C116.718 52.8665 117.299 51.7849 117.299 50.122V44.9269H121.626V49.7941C121.626 53.8298 119.963 56.8245 114.927 56.8245C109.89 56.8245 107.856 53.5797 107.856 49.2128Z" fill="white"/>
<path d="M124.617 28.2872H129.349V52.6232H135.007V56.4933H124.617V28.2872Z" fill="white"/>
<path d="M137.59 28.2872H142.322V56.4933H137.59V28.2872Z" fill="white"/>
<path d="M158.931 38.194H158.806L155.605 56.4967H153.398L149.862 38.194H149.778V56.4967H145.871V28.2872H151.4L154.479 44.1732H154.523L157.268 28.2872H163.254V56.4933H158.931V38.194Z" fill="white"/>
<path d="M165.62 56.4933L170.947 28.2872H176.355L181.722 56.4933H176.855L175.98 51.3321H170.95L170.116 56.4933H165.62ZM171.569 47.5499H175.358L173.485 36.2336H173.441L171.569 47.5499Z" fill="white"/>
<path d="M181.09 28.2872H193.698V32.1573H189.787V56.4933H185.001V32.1573H181.09V28.2872Z" fill="white"/>
<path d="M196.314 28.2872H207.63V32.1573H201.056V40.222H205.757V44.0482H201.056V52.6165H207.63V56.4866H196.314V28.2872Z" fill="white"/>
<path d="M107.028 96.472L112.354 68.276H117.762L123.13 96.4787H118.263L117.387 91.3208H112.354L111.52 96.4787L107.028 96.472ZM112.976 87.542H116.765L114.893 76.2291H114.849L112.976 87.542Z" fill="white"/>
<path d="M124.492 89.1948V75.5497C124.492 71.1388 126.574 67.938 131.567 67.938C136.806 67.938 138.262 70.8482 138.262 75.0089V78.3349H133.936V74.6338C133.936 72.8863 133.355 71.8892 131.648 71.8892C129.941 71.8892 129.234 73.0959 129.234 74.7994V89.9418C129.234 91.6318 129.944 92.8553 131.648 92.8553C133.351 92.8553 133.936 91.7737 133.936 90.1074V84.909H138.262V89.7762C138.262 93.8119 136.599 96.8066 131.567 96.8066C126.534 96.8066 124.492 93.5618 124.492 89.1948Z" fill="white"/>
<path d="M139.932 68.276H152.54V72.1461H148.615V96.4821H143.829V72.1461H139.932V68.276Z" fill="white"/>
<path d="M155.142 68.276H159.874V96.4787H155.142V68.276Z" fill="white"/>
<path d="M163.041 89.1948V75.5497C163.041 71.1388 165.208 67.938 170.196 67.938C175.185 67.938 177.396 71.1388 177.396 75.5497V89.1948C177.396 93.5618 175.229 96.8066 170.196 96.8066C165.164 96.8066 163.041 93.5618 163.041 89.1948ZM172.654 89.9418V74.7994C172.654 73.1094 171.903 71.8892 170.196 71.8892C168.49 71.8892 167.783 73.0959 167.783 74.7994V89.9418C167.783 91.6318 168.534 92.8553 170.196 92.8553C171.859 92.8553 172.654 91.6487 172.654 89.9418Z" fill="white"/>
<path d="M184.501 78.754V96.4753H180.509V68.276H185.17L190.294 84.4493V68.276H194.248V96.4787H190.078L184.501 78.754Z" fill="white"/>
</g>
<defs>
<clipPath id="clip0_5341_36917">
<rect width="338" height="338" fill="white"/>
</clipPath>
</defs>
</svg>
