<svg width="338" height="338" viewBox="0 0 338 338" fill="none" xmlns="http://www.w3.org/2000/svg">
<g clipPath="url(#clip0_5341_36916)">
<path d="M338 -0.010498H0V338.01H338V-0.010498Z" fill="#BF8B2E"/>
<path d="M33.7391 44.4064H33.8439V96.5767H45.3021V28.4224H36.1457L25.5967 40.7898V52.7482H25.6947L33.7391 44.4064Z" fill="white"/>
<path d="M52.1331 42.5001V50.7372H62.5841V42.1925C62.5841 38.0757 64.6121 36.869 67.0085 36.869C69.2224 36.869 71.1287 37.7715 71.1287 41.9965V47.6208C71.1287 53.2553 70.6285 55.4624 66.9037 59.3832L60.4817 66.2209C54.2524 72.8559 51.9337 77.2769 51.9337 84.0133V96.5801H81.6777V87.2276H62.8849V84.0133C62.8849 78.683 64.7946 76.6753 67.7082 73.5589L75.036 65.8187C80.9679 59.488 82.276 55.4624 82.276 48.628V41.9965C82.276 32.2418 77.544 27.6213 67.2958 27.6213C57.2437 27.6213 52.1196 32.9482 52.1196 42.4933" fill="white"/>
<path d="M263.15 181.06C249.366 170.173 232.838 169 226.372 169C222.962 169 219.805 169.304 217.493 169.855L216.587 170.065C207.856 172.126 193.245 175.577 176.233 196.689L175.733 197.308C175.462 197.679 175.313 198.125 175.307 198.585C175.308 198.978 175.412 199.363 175.608 199.704L175.993 200.336C178.801 205.034 181.133 209.114 182.99 212.575C183.154 212.895 183.394 213.171 183.687 213.379C183.98 213.587 184.32 213.722 184.676 213.772C185.032 213.822 185.396 213.786 185.735 213.667C186.074 213.547 186.38 213.348 186.627 213.085C186.745 212.93 186.867 212.764 186.965 212.639C201.641 192.322 213.153 189.618 220.771 187.816L221.728 187.59C223.265 187.295 224.828 187.162 226.392 187.195C229.935 187.195 242.248 187.783 251.854 195.367C260.402 202.127 264.735 212.889 264.735 227.393C264.735 251.702 252.976 261.193 243.103 264.857C239.243 266.281 235.158 267 231.043 266.979C224.78 266.947 218.6 265.541 212.94 262.859L212.234 262.521C203.746 258.837 191.075 251.154 179.093 227.095C154.534 177.747 133.902 173.09 120.24 169.997L119.524 169.838C118.476 169.598 115.522 169.047 110.736 169.047C102.826 169.047 87.6096 170.602 74.5695 181.013C65.6666 188.111 55.0466 201.911 55.0466 227.319C55.0466 242.789 58.234 253.007 66.4034 263.752C67.938 265.847 82.1711 284.228 109.498 284.228C113.687 284.214 117.866 283.804 121.977 283.004C126.966 282.051 134.666 279.583 143.271 273.276L150.454 279.759C150.868 280.108 151.398 280.288 151.939 280.263C152.48 280.238 152.991 280.01 153.371 279.624C153.716 279.26 153.902 278.773 153.888 278.272L159.445 244.039V243.641C159.442 243.358 159.381 243.079 159.264 242.822C159.148 242.565 158.979 242.335 158.769 242.147C158.575 241.968 158.349 241.829 158.102 241.738C157.855 241.647 157.592 241.605 157.329 241.616L123.982 250.796L123.346 250.901C122.937 250.985 122.566 251.2 122.288 251.513C122.104 251.714 121.961 251.949 121.868 252.206C121.775 252.462 121.734 252.735 121.747 253.007C121.76 253.28 121.827 253.547 121.945 253.794C122.062 254.04 122.227 254.261 122.43 254.443L129.336 260.689C125.706 262.917 122.075 264.407 118.547 265.083C115.633 265.649 112.673 265.938 109.705 265.949C90.8206 265.949 81.5289 253.554 81.147 253.03L80.9611 252.773C75.2151 245.226 73.275 238.8 73.275 227.308C73.275 212.754 77.5338 201.958 85.9331 195.266C95.2788 187.81 107.305 187.228 110.773 187.228C112.359 187.2 113.945 187.332 115.505 187.624L116.242 187.789C127.145 190.26 142.078 193.64 162.784 235.228C173.718 257.198 187.431 271.542 204.666 279.114C206.67 280.128 217.361 285.235 231.064 285.235C237.35 285.255 243.589 284.148 249.485 281.966C259.55 278.211 282.974 265.371 282.974 227.406C282.963 202.029 272.188 188.198 263.15 181.06Z" fill="white"/>
<path d="M112.5 43.2302V55.9018H107.856V28.2737H114.616C119.314 28.2737 121.004 30.5957 121.004 34.476V38.0216C121.004 40.996 119.943 42.7536 117.286 43.3586L121.727 55.9086H116.86L112.5 43.2302ZM112.5 32.0762V40.6614H114.048C115.64 40.6614 116.333 39.8468 116.333 38.3799V34.3239C116.333 32.8164 115.64 32.0829 114.048 32.0829L112.5 32.0762Z" fill="white"/>
<path d="M123.502 28.2737H134.585V32.066H128.163V39.9685H132.766V43.7203H128.149V52.1128H134.571V55.9018H123.502V28.2737Z" fill="white"/>
<path d="M136.785 49.953V46.235H141.105V50.024C141.105 51.572 141.781 52.4711 143.386 52.4711C144.853 52.4711 145.506 51.4909 145.506 50.024V48.9762C145.506 47.3876 144.853 46.4074 143.427 45.0621L140.699 42.3345C138.049 39.7251 136.826 38.1365 136.826 34.9559V34.0197C136.826 30.5957 138.823 27.9357 143.346 27.9357C147.993 27.9357 149.825 30.2172 149.825 34.2089V36.4533H145.587V34.0467C145.587 32.4581 144.853 31.6807 143.386 31.6807C142.085 31.6807 141.186 32.4142 141.186 33.9622V34.5334C141.186 36.0815 142.041 36.9772 143.386 38.2818L146.354 41.236C148.882 43.8048 150.106 45.3528 150.106 48.4083V49.7603C150.106 53.5493 148.078 56.2398 143.346 56.2398C138.614 56.2398 136.785 53.5797 136.785 49.953Z" fill="white"/>
<path d="M152.438 28.2737H159.323C164.008 28.2737 165.721 30.5957 165.721 34.4692V40.2963C165.721 44.1664 164.008 46.5291 159.323 46.5291H157.082V55.9018H152.438V28.2737ZM157.082 32.066V42.9429H158.792C160.381 42.9429 161.074 42.1689 161.074 40.6614V34.307C161.074 32.7995 160.381 32.066 158.792 32.066H157.082Z" fill="white"/>
<path d="M168.081 48.77V35.4055C168.081 31.0859 170.2 27.9492 175.087 27.9492C179.975 27.9492 182.138 31.0859 182.138 35.4055V48.77C182.138 53.0491 180.019 56.2297 175.087 56.2297C170.156 56.2297 168.081 53.066 168.081 48.77ZM177.494 49.5035V34.672C177.494 33.0023 176.761 31.8193 175.087 31.8193C173.414 31.8193 172.721 33.0023 172.721 34.672V49.5035C172.721 51.1766 173.455 52.3562 175.087 52.3562C176.72 52.3562 177.494 51.1766 177.494 49.5035Z" fill="white"/>
<path d="M188.658 38.532V55.8917H184.747V28.2737H189.31L194.323 44.1259V28.2737H198.193V55.9018H194.117L188.658 38.532Z" fill="white"/>
<path d="M200.596 49.953V46.235H204.916V50.024C204.916 51.572 205.592 52.4711 207.197 52.4711C208.664 52.4711 209.317 51.4909 209.317 50.024V48.9762C209.317 47.3876 208.664 46.4074 207.238 45.0621L204.507 42.3345C201.86 39.7251 200.637 38.1365 200.637 34.9559V34.0197C200.637 30.5957 202.634 27.9357 207.157 27.9357C211.801 27.9357 213.636 30.2172 213.636 34.2089V36.4533H209.398V34.0467C209.398 32.4581 208.664 31.6807 207.197 31.6807C205.893 31.6807 204.997 32.4142 204.997 33.9622V34.5334C204.997 36.0815 205.852 36.9772 207.197 38.2818L210.172 41.2157C212.7 43.7845 213.92 45.3325 213.92 48.3881V49.7401C213.92 53.529 211.892 56.2195 207.16 56.2195C202.428 56.2195 200.596 53.5797 200.596 49.953Z" fill="white"/>
<path d="M216.242 28.2737H220.89V55.9018H216.242V28.2737Z" fill="white"/>
<path d="M223.536 28.2737H230.263C234.907 28.2737 236.455 30.4335 236.455 34.3577V37.1698C236.455 39.4919 235.6 40.9588 233.683 41.5638C236.005 42.0911 237.148 43.6392 237.148 46.1674V49.8347C237.148 53.7454 235.397 55.9187 230.749 55.9187H223.536V28.2737ZM228.184 39.9279H229.813C231.321 39.9279 232.013 39.1539 232.013 37.687V34.307C232.013 32.7995 231.337 32.066 229.772 32.066H228.184V39.9279ZM228.184 43.4735V52.1128H230.212C231.763 52.1128 232.497 51.3388 232.497 49.8719V45.7145C232.497 44.2476 231.821 43.4735 230.171 43.4735H228.184Z" fill="white"/>
<path d="M239.429 28.2737H244.073V52.1128H249.616V55.9018H239.429V28.2737Z" fill="white"/>
<path d="M251.695 28.2737H262.778V32.066H256.339V39.9685H260.936V43.7203H256.339V52.1128H262.778V55.9018H251.695V28.2737Z" fill="white"/>
<path d="M107.856 89.3368V75.9723C107.856 71.6526 109.884 68.516 114.781 68.516C119.916 68.516 121.342 71.3687 121.342 75.4416V78.7033H117.107V75.0766C117.107 73.3629 116.536 72.3726 114.863 72.3726C113.189 72.3726 112.497 73.5556 112.497 75.2253V90.0567C112.497 91.7264 113.189 92.9095 114.863 92.9095C116.536 92.9095 117.107 91.8515 117.107 90.2055V85.1388H121.342V89.908C121.342 93.8592 119.713 96.7931 114.781 96.7931C109.85 96.7931 107.856 93.626 107.856 89.3368Z" fill="white"/>
<path d="M124.276 89.3368V75.9723C124.276 71.6526 126.395 68.516 131.286 68.516C136.177 68.516 138.337 71.6526 138.337 75.9723V89.3368C138.337 93.6159 136.217 96.7931 131.286 96.7931C126.355 96.7931 124.276 93.626 124.276 89.3368ZM133.689 90.0703V75.2388C133.689 73.5691 132.956 72.3861 131.286 72.3861C129.616 72.3861 128.92 73.5691 128.92 75.2388V90.0703C128.92 91.74 129.653 92.923 131.286 92.923C132.919 92.923 133.689 91.74 133.689 90.0703Z" fill="white"/>
<path d="M145.303 79.1089V96.4686H141.389V68.8405H145.955L150.968 84.6927V68.8405H154.838V96.4686H150.748L145.303 79.1089Z" fill="white"/>
<path d="M157.65 90.5198V86.8018H161.97V90.5907C161.97 92.1388 162.646 93.0345 164.251 93.0345C165.718 93.0345 166.37 92.0577 166.37 90.5907V89.5294C166.37 87.9408 165.718 86.964 164.292 85.6188L161.564 82.8979C158.914 80.2919 157.694 78.7033 157.694 75.5227V74.5864C157.694 71.1625 159.688 68.5024 164.214 68.5024C168.858 68.5024 170.693 70.7839 170.693 74.7757V77.0167H166.452V74.6135C166.452 73.0249 165.718 72.2475 164.251 72.2475C162.946 72.2475 162.051 72.9809 162.051 74.529V75.1002C162.051 76.6482 162.906 77.5439 164.251 78.8486L167.226 81.7825C169.75 84.3479 170.974 85.8959 170.974 88.9548V90.3068C170.974 94.0958 168.946 96.7829 164.214 96.7829C159.482 96.7829 157.65 94.1465 157.65 90.5198Z" fill="white"/>
<path d="M187.313 68.8405V89.7458C187.313 94.0248 185.481 96.7931 180.752 96.7931C175.861 96.7931 173.827 94.0248 173.827 89.7458V68.8405H178.464V90.1919C178.464 91.8245 179.116 92.923 180.746 92.923C182.375 92.923 183.027 91.8245 183.027 90.1919V68.8405H187.313Z" fill="white"/>
<path d="M203.165 78.5377H203.043L199.903 96.4686H197.73L194.282 78.5377H194.198V96.4686H190.368V68.8405H195.776L198.791 84.4054H198.832L201.536 68.8405H207.407V96.4686H203.165V78.5377Z" fill="white"/>
<path d="M210.459 68.8405H217.334C222.019 68.8405 223.732 71.1625 223.732 75.036V80.8631C223.732 84.7332 222.019 87.0958 217.334 87.0958H215.103V96.4686H210.459V68.8405ZM215.103 72.6294V83.5097H216.814C218.406 83.5097 219.095 82.7356 219.095 81.2282V74.8704C219.095 73.3629 218.419 72.6294 216.814 72.6294H215.103Z" fill="white"/>
<path d="M225.25 68.8405H237.614V72.6294H233.764V96.4686H229.08V72.6294H225.25V68.8405Z" fill="white"/>
<path d="M239.797 68.8405H244.442V96.4686H239.797V68.8405Z" fill="white"/>
<path d="M247.129 89.3368V75.9723C247.129 71.6526 249.248 68.516 254.139 68.516C259.03 68.516 261.19 71.6526 261.19 75.9723V89.3368C261.19 93.6159 259.07 96.7931 254.139 96.7931C249.207 96.7931 247.129 93.626 247.129 89.3368ZM256.542 90.0703V75.2388C256.542 73.5691 255.809 72.3861 254.139 72.3861C252.469 72.3861 251.773 73.5691 251.773 75.2388V90.0703C251.773 91.74 252.506 92.923 254.139 92.923C255.771 92.923 256.542 91.74 256.542 90.0703Z" fill="white"/>
<path d="M267.791 79.1089V96.4686H263.877V68.8405H268.44L273.442 84.6927V68.8405H277.315V96.4686H273.249L267.791 79.1089Z" fill="white"/>
<path d="M107.122 137.039L112.338 109.411H117.624L122.883 137.039H118.124L117.286 131.986H112.338L111.54 137.039H107.122ZM112.949 128.278H116.667L114.832 117.191H114.792L112.949 128.278Z" fill="white"/>
<path d="M128.839 119.679V137.039H124.928V109.411H129.491L134.504 125.259V109.411H138.377V137.039H134.301L128.839 119.679Z" fill="white"/>
<path d="M155.041 116.826V129.62C155.041 133.858 153.29 137.039 148.318 137.039H141.145V109.411H148.318C153.29 109.411 155.041 112.554 155.041 116.826ZM147.747 133.246C149.663 133.246 150.396 132.107 150.396 130.434V115.971C150.396 114.339 149.663 113.2 147.747 113.2H145.79V133.246H147.747Z" fill="white"/>
<path d="M162.213 109.411H169.098C173.786 109.411 175.496 111.733 175.496 115.603V121.43C175.496 125.3 173.786 127.666 169.098 127.666H166.857V137.039H162.213V109.411ZM166.857 113.2V124.08H168.567C170.159 124.08 170.852 123.306 170.852 121.798V115.441C170.852 113.933 170.159 113.2 168.567 113.2H166.857Z" fill="white"/>
<path d="M182.669 124.364V137.039H178.021V109.411H184.781C189.466 109.411 191.176 111.733 191.176 115.603V119.148C191.176 122.123 190.118 123.88 187.458 124.485L191.9 137.039H187.029L182.669 124.364ZM182.669 113.21V121.808H184.21C185.799 121.808 186.492 120.994 186.492 119.524V115.468C186.492 113.96 185.816 113.227 184.21 113.227L182.669 113.21Z" fill="white"/>
<path d="M193.833 129.907V116.539C193.833 112.219 195.952 109.083 200.84 109.083C205.727 109.083 207.89 112.219 207.89 116.539V129.907C207.89 134.186 205.771 137.363 200.84 137.363C195.908 137.363 193.833 134.186 193.833 129.907ZM203.246 130.64V115.806C203.246 114.136 202.513 112.953 200.84 112.953C199.167 112.953 198.474 114.136 198.474 115.806V130.64C198.474 132.31 199.207 133.493 200.84 133.493C202.472 133.493 203.246 132.31 203.246 130.64Z" fill="white"/>
<path d="M224.557 116.826V129.62C224.557 133.858 222.803 137.039 217.834 137.039H210.662V109.411H217.834C222.803 109.411 224.557 112.554 224.557 116.826ZM217.263 133.246C219.179 133.246 219.91 132.107 219.91 130.434V115.971C219.91 114.339 219.179 113.2 217.263 113.2H215.306V133.246H217.263Z" fill="white"/>
<path d="M240.815 109.411V130.313C240.815 134.592 238.979 137.363 234.254 137.363C229.363 137.363 227.325 134.592 227.325 130.313V109.411H231.973V130.762C231.973 132.391 232.625 133.493 234.254 133.493C235.883 133.493 236.536 132.391 236.536 130.762V109.411H240.815Z" fill="white"/>
<path d="M243.586 129.907V116.539C243.586 112.219 245.614 109.083 250.512 109.083C255.646 109.083 257.073 111.935 257.073 116.012V119.27H252.824V115.643C252.824 113.933 252.256 112.939 250.583 112.939C248.91 112.939 248.217 114.122 248.217 115.792V130.627C248.217 132.297 248.91 133.48 250.583 133.48C252.256 133.48 252.824 132.418 252.824 130.776V125.709H257.062V130.468C257.062 134.419 255.433 137.353 250.502 137.353C245.57 137.353 243.586 134.186 243.586 129.907Z" fill="white"/>
<path d="M259.192 109.411H271.539V113.2H267.696V137.039H263.021V113.2H259.192V109.411Z" fill="white"/>
<path d="M273.739 109.411H278.383V137.039H273.739V109.411Z" fill="white"/>
<path d="M281.074 129.907V116.539C281.074 112.219 283.19 109.083 288.081 109.083C292.972 109.083 295.131 112.219 295.131 116.539V129.907C295.131 134.186 293.012 137.363 288.081 137.363C283.149 137.363 281.074 134.186 281.074 129.907ZM290.484 130.64V115.806C290.484 114.136 289.75 112.953 288.081 112.953C286.411 112.953 285.715 114.136 285.715 115.806V130.64C285.715 132.31 286.448 133.493 288.081 133.493C289.713 133.493 290.484 132.31 290.484 130.64Z" fill="white"/>
<path d="M301.733 119.679V137.039H297.818V109.411H302.385L307.397 125.259V109.411H311.267V137.039H307.191L301.733 119.679Z" fill="white"/>
</g>
<defs>
<clipPath id="clip0_5341_36916">
<rect width="338" height="338" fill="white"/>
</clipPath>
</defs>
</svg>
