<svg width="338" height="338" viewBox="0 0 338 338" fill="none" xmlns="http://www.w3.org/2000/svg">
<g clipPath="url(#clip0_5341_36920)">
<path d="M338 0H0V338H338V0Z" fill="#8F1838"/>
<path d="M65.6733 79.8018V72.3658C65.6733 65.8424 63.3749 61.1104 58.0345 58.7106C62.5637 56.5136 64.6593 52.4914 64.6593 46.8468V44.0414C64.6593 33.3944 59.1161 27.6484 48.5705 27.6484C38.1263 27.6484 32.6845 33.3606 32.6845 44.0414V46.8468C32.6845 52.39 34.7125 56.5136 39.1065 58.7106C33.7661 61.1104 31.5691 65.8424 31.5691 72.3658V79.8018C31.5691 90.1446 36.5039 97.3778 48.5705 97.3778C60.7385 97.3778 65.6733 90.1446 65.6733 79.8018ZM43.4667 43.2978C43.4667 39.1742 44.8863 36.7744 48.6043 36.7744C52.4237 36.7744 53.8433 39.1742 53.8433 43.2978V47.9284C53.8433 52.052 52.4237 54.4518 48.6043 54.4518C44.8863 54.4518 43.4667 52.0182 43.4667 47.9284V43.2978ZM54.2151 81.0186C54.2151 85.1422 52.6941 88.049 48.6043 88.049C44.5821 88.049 43.0611 85.1422 43.0611 81.0186V69.966C43.0611 65.8424 44.5821 62.9356 48.6043 62.9356C52.7279 62.9356 54.2151 65.8424 54.2151 69.966V81.0186Z" fill="white"/>
<path d="M234.64 166.296L200.299 198.981C199.014 200.265 198.338 201.211 198.338 203.882V295.48C198.338 296.561 199.217 297.44 200.299 297.44H235.789C236.87 297.44 237.749 296.561 237.749 295.48V167.107C237.715 166.026 236.87 164.065 234.64 166.296Z" fill="white"/>
<path d="M135.639 208.85L101.265 241.535C99.9802 242.819 99.3042 243.766 99.3042 246.436V295.446C99.3042 296.527 100.183 297.406 101.265 297.406H136.755C137.836 297.406 138.715 296.527 138.715 295.446V209.695C138.749 208.614 137.904 206.619 135.639 208.85Z" fill="white"/>
<path d="M250.255 126.649C250.255 126.378 250.188 126.108 249.951 125.905C249.782 125.736 249.545 125.635 249.309 125.635H249.106H248.836L222.539 131.583L222.066 131.617C221.863 131.651 221.694 131.752 221.559 131.888C221.187 132.293 221.187 132.902 221.559 133.307L221.863 133.611L227.88 139.628L168.256 199.251L140.709 171.704C140.405 171.4 139.898 171.4 139.594 171.704L132.124 179.174L87.9813 223.317C87.6771 223.621 87.6771 224.128 87.9813 224.432L95.4511 231.902C95.7553 232.206 96.2623 232.206 96.5665 231.902L140.135 188.334L160.111 208.309C160.144 208.343 160.144 208.377 160.178 208.411L167.648 215.881C167.952 216.185 168.459 216.185 168.763 215.881L236.431 148.213L242.752 154.534C243.123 154.939 243.766 154.939 244.171 154.534C244.34 154.365 244.442 154.128 244.442 153.891V153.824L250.221 126.987L250.255 126.649Z" fill="white"/>
<path d="M185.325 214.596L168.696 231.361C168.391 231.631 167.918 231.598 167.614 231.327L152.573 215.982C149.801 213.244 149.227 215.475 149.227 216.557V295.48C149.227 296.561 150.106 297.44 151.187 297.44H186.677C187.759 297.44 188.638 296.561 188.638 295.48V215.205C188.638 214.157 187.759 212.163 185.325 214.596Z" fill="white"/>
<path d="M104.712 35.6928V48.503C104.712 52.728 102.955 55.9052 97.9862 55.9052H90.8206V28.2906H97.9862C102.955 28.2906 104.712 31.4002 104.712 35.6928ZM97.4116 52.1196C99.3382 52.1196 100.048 50.9704 100.048 49.3142V34.8478C100.048 33.2254 99.3044 32.0763 97.4116 32.0763H95.4512V52.1196H97.4116Z" fill="white"/>
<path d="M107.653 28.2906H118.739V32.0763H112.317V39.9855H116.914V43.7372H112.317V52.1196H118.739V55.9052H107.653V28.2906Z" fill="white"/>
<path d="M121.105 48.7734V35.4224C121.105 31.096 123.133 27.9526 128.034 27.9526C133.172 27.9526 134.592 30.7918 134.592 34.8816V38.1264H130.367V34.5098C130.367 32.786 129.792 31.8058 128.136 31.8058C126.48 31.8058 125.77 32.9888 125.77 34.645V49.4832C125.77 51.1394 126.446 52.3224 128.136 52.3224C129.826 52.3224 130.367 51.2746 130.367 49.6184V44.5146H134.592V49.348C134.592 53.3026 132.969 56.2432 128.034 56.2432C123.133 56.2432 121.105 53.066 121.105 48.7734Z" fill="white"/>
<path d="M137.397 28.2906H148.483V32.0763H142.061V39.9855H146.658V43.7372H142.061V52.1196H148.483V55.9052H137.397V28.2906Z" fill="white"/>
<path d="M155.142 38.532V55.9052H151.221V28.2906H155.818L160.82 44.1429V28.2906H164.707V55.9052H160.618L155.142 38.532Z" fill="white"/>
<path d="M167.107 28.2906H179.444V32.0763H175.625V55.9052H170.927V32.0763H167.107V28.2906Z" fill="white"/>
<path d="M196.479 38.8363L193.877 55.9052H189.517L185.799 28.2906H190.294L192.457 45.799H192.491L194.823 28.2906H198.609L201.178 45.799H201.211L203.341 28.2906H207.262L203.679 55.9052H199.285L196.547 38.8363H196.479Z" fill="white"/>
<path d="M209.121 48.7734V35.4224C209.121 31.096 211.25 27.9526 216.117 27.9526C221.052 27.9526 223.181 31.096 223.181 35.4224V48.7734C223.181 53.066 221.052 56.2432 216.117 56.2432C211.216 56.2432 209.121 53.066 209.121 48.7734ZM218.517 49.517V34.6788C218.517 33.0226 217.773 31.8396 216.117 31.8396C214.495 31.8396 213.751 33.0226 213.751 34.6788V49.517C213.751 51.1732 214.495 52.3562 216.117 52.3562C217.773 52.3562 218.517 51.1732 218.517 49.517Z" fill="white"/>
<path d="M230.753 43.2302V55.9052H226.122V28.2906H232.882C237.58 28.2906 239.27 30.6229 239.27 34.476V38.025C239.27 40.9994 238.222 42.7571 235.552 43.3654L239.98 55.9052H235.079L230.753 43.2302ZM230.753 32.0763V40.6615H232.307C233.896 40.6615 234.606 39.8502 234.606 38.363V34.2733C234.606 32.7523 233.93 32.0425 232.307 32.0425H230.753V32.0763Z" fill="white"/>
<path d="M246.706 42.4528V55.9052H242.076V28.2906H246.706V40.4248L251.742 28.2906H256.305L250.931 40.729L256.441 55.939H251.54L246.706 42.4528Z" fill="white"/>
<path d="M262.93 55.9052L268.135 28.2906H273.442L278.715 55.9052H273.949L273.104 50.869H268.169L267.358 55.9052H262.93ZM268.744 47.151H272.462L270.637 36.0646H270.603L268.744 47.151Z" fill="white"/>
<path d="M284.157 38.532V55.9052H280.236V28.2906H284.799L289.801 44.1429V28.2906H293.688V55.9052H289.598L284.157 38.532Z" fill="white"/>
<path d="M310.656 35.6928V48.503C310.656 52.728 308.898 55.9052 303.93 55.9052H296.764V28.2906H303.93C308.898 28.2906 310.656 31.4002 310.656 35.6928ZM303.355 52.1196C305.282 52.1196 305.991 50.9704 305.991 49.3142V34.8478C305.991 33.2254 305.248 32.0763 303.355 32.0763H301.395V52.1196H303.355Z" fill="white"/>
<path d="M90.8206 68.8506H101.907V72.6362H95.485V80.5454H100.082V84.2972H95.485V92.6796H101.907V96.4652H90.8206V68.8506Z" fill="white"/>
<path d="M103.935 89.3672V76.0162C103.935 71.6898 105.963 68.5464 110.864 68.5464C116.002 68.5464 117.421 71.3856 117.421 75.4754V78.7202H113.196V75.1036C113.196 73.3798 112.622 72.3996 110.965 72.3996C109.309 72.3996 108.599 73.5826 108.599 75.2388V90.077C108.599 91.7332 109.275 92.9162 110.965 92.9162C112.622 92.9162 113.196 91.8684 113.196 90.2122V85.1084H117.421V89.908C117.421 93.8626 115.799 96.8032 110.864 96.8032C105.963 96.8032 103.935 93.626 103.935 89.3672Z" fill="white"/>
<path d="M119.956 89.3672V76.0162C119.956 71.6898 122.085 68.5464 126.953 68.5464C131.887 68.5464 134.017 71.6898 134.017 76.0162V89.3672C134.017 93.6598 131.887 96.837 126.953 96.837C122.085 96.8032 119.956 93.626 119.956 89.3672ZM129.352 90.077V75.2388C129.352 73.5826 128.609 72.3996 126.953 72.3996C125.33 72.3996 124.587 73.5826 124.587 75.2388V90.077C124.587 91.7332 125.33 92.9162 126.953 92.9162C128.643 92.95 129.352 91.767 129.352 90.077Z" fill="white"/>
<path d="M140.574 79.1258V96.499H136.653V68.8844H141.216L146.219 84.7366V68.8844H150.106V96.499H146.016L140.574 79.1258Z" fill="white"/>
<path d="M152.742 89.3672V76.0162C152.742 71.6898 154.872 68.5464 159.739 68.5464C164.674 68.5464 166.803 71.6898 166.803 76.0162V89.3672C166.803 93.6598 164.674 96.837 159.739 96.837C154.872 96.8032 152.742 93.626 152.742 89.3672ZM162.172 90.077V75.2388C162.172 73.5826 161.429 72.3996 159.773 72.3996C158.15 72.3996 157.407 73.5826 157.407 75.2388V90.077C157.407 91.7332 158.15 92.9162 159.773 92.9162C161.429 92.95 162.172 91.767 162.172 90.077Z" fill="white"/>
<path d="M182.25 78.5512H182.114L178.971 96.4652H176.808L173.36 78.5512H173.293V96.4652H169.473V68.8506H174.881L177.889 84.4324H177.923L180.627 68.8506H186.508V96.4652H182.283V78.5512H182.25Z" fill="white"/>
<path d="M189.145 68.8506H193.775V96.4652H189.145V68.8506Z" fill="white"/>
<path d="M196.378 89.3672V76.0162C196.378 71.6898 198.406 68.5464 203.307 68.5464C208.445 68.5464 209.864 71.3856 209.864 75.4754V78.7202H205.639V75.1036C205.639 73.3798 205.065 72.3996 203.408 72.3996C201.752 72.3996 201.042 73.5826 201.042 75.2388V90.077C201.042 91.7332 201.718 92.9162 203.408 92.9162C205.065 92.9162 205.639 91.8684 205.639 90.2122V85.1084H209.864V89.908C209.864 93.8626 208.242 96.8032 203.307 96.8032C198.44 96.8032 196.378 93.626 196.378 89.3672Z" fill="white"/>
<path d="M224.804 81.7284H231.395V96.4652H228.049V93.457C227.44 95.5188 226.122 96.8032 223.621 96.8032C219.632 96.8032 217.807 93.626 217.807 89.3334V75.9824C217.807 71.656 219.869 68.5126 224.77 68.5126C229.908 68.5126 231.429 71.3518 231.429 75.4416V77.8752H227.204V75.0698C227.204 73.346 226.561 72.3658 224.871 72.3658C223.215 72.3658 222.472 73.5488 222.472 75.205V90.0432C222.472 91.6994 223.148 92.8824 224.77 92.8824C226.291 92.8824 227.068 92.0374 227.068 90.246V85.345H224.871V81.7284H224.804Z" fill="white"/>
<path d="M238.696 83.824V96.499H234.065V68.8844H240.825C245.523 68.8844 247.213 71.2166 247.213 75.0698V78.6188C247.213 81.5932 246.165 83.3508 243.495 83.9592L247.923 96.499H243.022L238.696 83.824ZM238.696 72.6362V81.2214H240.25C241.839 81.2214 242.549 80.4102 242.549 78.923V74.8332C242.549 73.3122 241.873 72.6024 240.25 72.6024H238.696V72.6362Z" fill="white"/>
<path d="M249.309 89.3672V76.0162C249.309 71.6898 251.438 68.5464 256.305 68.5464C261.24 68.5464 263.37 71.6898 263.37 76.0162V89.3672C263.37 93.6598 261.24 96.837 256.305 96.837C251.438 96.8032 249.309 93.626 249.309 89.3672ZM258.739 90.077V75.2388C258.739 73.5826 257.995 72.3996 256.339 72.3996C254.717 72.3996 253.973 73.5826 253.973 75.2388V90.077C253.973 91.7332 254.717 92.9162 256.339 92.9162C257.995 92.95 258.739 91.767 258.739 90.077Z" fill="white"/>
<path d="M275.267 79.3962L272.665 96.4652H268.304L264.586 68.8506H269.082L271.245 86.359H271.279L273.611 68.8506H277.397L279.965 86.359H279.999L282.129 68.8506H286.049L282.467 96.4652H278.073L275.335 79.3962H275.267Z" fill="white"/>
<path d="M287.469 68.8506H299.806V72.6362H295.987V96.4652H291.288V72.6362H287.469V68.8506Z" fill="white"/>
<path d="M310.351 84.2972H305.89V96.4652H301.259V68.8506H305.89V80.5454H310.385V68.8506H315.083V96.4652H310.385V84.2972H310.351Z" fill="white"/>
</g>
<defs>
<clipPath id="clip0_5341_36920">
<rect width="338" height="338" fill="white"/>
</clipPath>
</defs>
</svg>
