<svg width="338" height="338" viewBox="0 0 338 338" fill="none" xmlns="http://www.w3.org/2000/svg">
<g clipPath="url(#clip0_5341_36922)">
<path d="M338 0H0V338H338V0Z" fill="#EF412A"/>
<path d="M102.346 56.2431C104.881 56.2431 106.166 54.9925 106.774 52.8969V55.9051H110.12V41.1683H103.529V44.8525H105.726V49.7535C105.726 51.5449 104.949 52.3899 103.428 52.3899C101.839 52.3899 101.163 51.2069 101.163 49.5507V34.7125C101.163 33.0563 101.907 31.8733 103.563 31.8733C105.219 31.8733 105.895 32.8535 105.895 34.5773V37.3827H110.12V34.9491C110.12 30.8593 108.599 28.0201 103.496 28.0201C98.5946 28.0201 96.5328 31.1635 96.5328 35.4899V48.8747C96.5328 53.0659 98.358 56.2431 102.346 56.2431Z" fill="white"/>
<path d="M124.249 52.1197H117.827V43.7372H122.424V39.9855H117.827V32.0763H124.249V28.2906H113.196V55.9053H124.249V52.1197Z" fill="white"/>
<path d="M131.076 38.5659L136.518 55.9053H140.608V28.2906H136.721V44.1429L131.719 28.2906H127.156V55.9053H131.076V38.5659Z" fill="white"/>
<path d="M157.542 48.503V35.6928C157.542 31.4002 155.784 28.2568 150.816 28.2568H143.65V55.9052H150.816C155.818 55.9052 157.542 52.728 157.542 48.503ZM148.314 52.1196V32.0762H150.275C152.201 32.0762 152.911 33.2254 152.911 34.8478V49.3142C152.911 50.9704 152.168 52.1196 150.275 52.1196H148.314Z" fill="white"/>
<path d="M171.704 52.1197H165.248V43.7372H169.879V39.9855H165.248V32.0763H171.704V28.2906H160.618V55.9053H171.704V52.1197Z" fill="white"/>
<path d="M179.208 43.2303L183.568 55.9053H188.469L184.041 43.3317C186.677 42.7233 187.759 40.9657 187.759 37.9913V34.4761C187.759 30.5891 186.035 28.2906 181.371 28.2906H174.611V55.9391H179.275V43.2303H179.208ZM179.208 32.0763H180.762C182.351 32.0763 183.027 32.8199 183.027 34.3071V38.3969C183.027 39.8841 182.351 40.6953 180.762 40.6953H179.208V32.0763Z" fill="white"/>
<path d="M107.585 92.6458H101.163V84.2634H105.76V80.5116H101.163V72.6024H107.585V68.8168H96.5328V96.4314H107.585V92.6458Z" fill="white"/>
<path d="M115.765 96.4313V98.3241L124.519 99.9466V96.4651L121.105 95.8229C123.471 94.6737 124.519 92.3078 124.519 89.2996V75.9147C124.519 71.5883 122.39 68.4449 117.455 68.4449C112.554 68.4449 110.458 71.5883 110.458 75.9147V89.2996C110.458 93.0513 112.047 95.7891 115.765 96.4313ZM115.089 75.2049C115.089 73.5487 115.833 72.3657 117.455 72.3657C119.145 72.3657 119.855 73.5487 119.855 75.2049V90.2797C119.855 91.9021 119.111 93.1189 117.455 93.1189C115.833 93.1189 115.089 91.9021 115.089 90.2797V75.2049Z" fill="white"/>
<path d="M127.527 68.8168V89.739C127.527 94.0316 129.555 96.8032 134.456 96.8032C139.188 96.8032 141.014 94.0316 141.014 89.739V68.8168H136.755V90.1784C136.755 91.8008 136.113 92.9162 134.456 92.9162C132.834 92.9162 132.192 91.8008 132.192 90.1784V68.8168H127.527Z" fill="white"/>
<path d="M148.517 91.3952H153.452L154.297 96.4652H159.063L153.824 68.8168H148.517L143.312 96.4314H147.706L148.517 91.3952ZM150.951 76.5908H150.985L152.81 87.6772H149.092L150.951 76.5908Z" fill="white"/>
<path d="M161.361 68.8168V96.4314H171.535V92.6458H165.992V68.8168H161.361Z" fill="white"/>
<path d="M178.667 68.8168H174.002V96.4652H178.667V68.8168Z" fill="white"/>
<path d="M189.719 96.4314V72.6024H193.539V68.8168H181.202V72.6024H185.021V96.4314H189.719Z" fill="white"/>
<path d="M200.468 96.4314H205.098V85.9196L210.236 68.8168H205.808L203.003 79.2948H202.935L200.13 68.8168H195.296L200.468 85.9196V96.4314Z" fill="white"/>
<path d="M53.8772 49.8889C49.348 49.8889 46.0356 51.5113 44.2442 54.6209H44.1429V37.6195H63.8482V28.2906H33.6986V66.6875H44.1429V65.1665C44.1429 61.1443 45.968 58.9472 49.179 58.9472C52.6942 58.9472 54.1138 61.3471 54.1138 65.0989V81.5932C54.1138 85.2098 52.7956 87.7111 49.2804 87.7111C45.3596 87.7111 43.94 85.1084 43.94 81.0862V72.5349H33.4958V80.2751C33.4958 90.6179 37.6195 97.2764 49.2804 97.2764C60.84 97.2764 65.572 91.1586 65.572 81.6946V64.9975C65.5382 54.2153 60.0288 49.8889 53.8772 49.8889Z" fill="white"/>
<path d="M246.165 127.899H204.186C203.915 127.899 203.645 128.136 203.645 128.44V142.399C203.645 142.704 203.882 142.94 204.186 142.94H220.917L202.361 161.53C192.998 154.196 181.236 149.768 168.425 149.768C138.107 149.768 113.399 174.442 113.399 204.794C113.399 232.713 134.321 255.832 161.327 259.347V275.436H144.765C144.461 275.436 144.225 275.673 144.225 275.977V290.95C144.225 291.255 144.461 291.491 144.765 291.491H161.327V307.242C161.327 307.546 161.564 307.783 161.868 307.783H176.808C177.112 307.783 177.349 307.546 177.349 307.242V291.424H193.911C194.215 291.424 194.451 291.187 194.451 290.883V275.909C194.451 275.605 194.215 275.369 193.911 275.369H177.349V259.009C203.442 254.784 223.418 232.071 223.418 204.76C223.418 192.998 219.7 182.081 213.379 173.124L231.699 154.804V170.42C231.699 170.724 231.936 170.96 232.24 170.96H246.199C246.503 170.96 246.74 170.724 246.74 170.42V128.44C246.74 128.136 246.47 127.899 246.165 127.899ZM168.392 245.253C146.05 245.253 127.899 227.068 127.899 204.76C127.899 182.419 146.05 164.268 168.392 164.268C190.733 164.268 208.884 182.419 208.884 204.76C208.918 227.102 190.733 245.253 168.392 245.253Z" fill="white"/>
<path d="M193.539 188.165H144.427C144.123 188.165 143.887 188.367 143.887 188.638V200.535C143.887 200.806 144.123 201.009 144.427 201.009H193.539C193.843 201.009 194.08 200.806 194.08 200.535V188.638C194.113 188.367 193.877 188.165 193.539 188.165Z" fill="white"/>
<path d="M193.539 209.391H144.427C144.123 209.391 143.887 209.627 143.887 209.898V221.795C143.887 222.066 144.123 222.269 144.427 222.269H193.539C193.843 222.269 194.08 222.066 194.08 221.795V209.898C194.113 209.594 193.877 209.391 193.539 209.391Z" fill="white"/>
</g>
<defs>
<clipPath id="clip0_5341_36922">
<rect width="338" height="338" fill="white"/>
</clipPath>
</defs>
</svg>
