<svg width="338" height="338" viewBox="0 0 338 338" fill="none" xmlns="http://www.w3.org/2000/svg">
<g clipPath="url(#clip0_5341_36923)">
<path d="M338 -0.00695801H0V338.003H338V-0.00695801Z" fill="#4C9F38"/>
<path d="M48.2326 97.3913C59.7956 97.3913 64.8216 91.2566 64.8216 81.8095V71.7608C64.8216 65.5281 62.1176 61.5059 56.3716 60.2012C61.1036 58.6937 64.2099 54.8709 64.2099 49.1452V43.2133C64.2099 33.5634 59.586 27.6349 49.0337 27.6349C37.1699 27.6349 33.0463 34.6653 33.0463 44.7208V50.7507H43.5006V43.815C43.5006 39.5933 44.812 37.1834 48.4286 37.1834C52.0452 37.1834 53.3499 39.5933 53.3499 43.3113V50.6493C53.3499 54.2693 50.94 56.1756 47.2254 56.1756H42.899V64.9264H47.7256C51.7444 64.9264 53.3499 66.8328 53.3499 70.4527V81.7115C53.3499 85.3281 51.7444 87.8462 48.2258 87.8462C44.3084 87.8462 42.899 85.2267 42.899 81.2079V71.46H32.448V80.4035C32.448 90.7598 36.5648 97.3913 48.2225 97.3913" fill="white"/>
<path d="M282.318 211.25C282.318 201.739 276.234 194.012 266.973 194.012C262.352 194.012 256.775 199.082 253.747 202.188C250.705 199.069 245.513 194.005 240.903 194.005C231.662 194.005 225.182 201.715 225.182 211.243C225.168 215.784 226.928 220.15 230.087 223.411L253.781 247.149L277.441 223.438L277.42 223.422C280.576 220.157 282.334 215.79 282.318 211.25Z" fill="white"/>
<path d="M181.442 285.907H181.198C180.323 285.855 179.492 285.508 178.839 284.922C178.187 284.336 177.752 283.547 177.605 282.683L165.569 212.578L147.338 246.378C146.949 247.098 146.343 247.677 145.606 248.033C144.869 248.389 144.038 248.503 143.233 248.36C142.427 248.216 141.687 247.823 141.118 247.235C140.549 246.646 140.18 245.894 140.064 245.084L132.324 190.987L118.165 222.793C117.859 223.481 117.36 224.065 116.729 224.476C116.098 224.887 115.362 225.106 114.609 225.108H59.5725C58.5812 225.05 57.6498 224.615 56.9686 223.892C56.2875 223.169 55.9081 222.214 55.9081 221.221C55.9081 220.228 56.2875 219.273 56.9686 218.55C57.6498 217.827 58.5812 217.393 59.5725 217.334H112.081L130.708 175.5C131.05 174.729 131.633 174.09 132.37 173.679C133.106 173.269 133.956 173.108 134.792 173.223C135.628 173.337 136.403 173.72 137.002 174.314C137.601 174.907 137.991 175.679 138.114 176.514L146.094 232.284L164.072 198.947C164.457 198.235 165.055 197.662 165.781 197.306C166.508 196.949 167.327 196.828 168.125 196.959C168.924 197.09 169.662 197.466 170.236 198.036C170.811 198.605 171.194 199.339 171.332 200.137L182.486 265.056L223.097 130.13C223.324 129.38 223.772 128.715 224.382 128.223C224.993 127.732 225.738 127.436 226.519 127.374C227.301 127.313 228.083 127.489 228.763 127.879C229.443 128.27 229.989 128.856 230.33 129.562L251.702 173.871C251.935 174.332 252.074 174.835 252.111 175.351C252.148 175.867 252.081 176.385 251.915 176.874C251.749 177.364 251.487 177.816 251.145 178.203C250.803 178.591 250.386 178.906 249.921 179.131C249.455 179.355 248.949 179.485 248.433 179.512C247.916 179.539 247.4 179.462 246.913 179.287C246.427 179.112 245.98 178.842 245.599 178.492C245.218 178.143 244.911 177.72 244.695 177.251L227.667 141.96L185.163 283.136C184.923 283.937 184.432 284.639 183.761 285.138C183.091 285.637 182.278 285.907 181.442 285.907Z" fill="white"/>
<path d="M103.506 41.165H110.11V55.9187H106.767V52.9004C106.156 54.9791 104.851 56.2432 102.326 56.2432C98.331 56.2432 96.499 53.066 96.499 48.7869V35.419C96.499 31.0994 98.5777 27.9628 103.465 27.9628C108.599 27.9628 110.11 30.8155 110.11 34.8918V37.3355H105.872V34.5233C105.872 32.8131 105.219 31.8193 103.55 31.8193C101.88 31.8193 101.143 33.0023 101.143 34.6721V49.5069C101.143 51.1766 101.836 52.3596 103.425 52.3596C104.932 52.3596 105.71 51.5045 105.71 49.7097V44.8323H103.506V41.165Z" fill="white"/>
<path d="M113.162 48.7869V35.419C113.162 31.0994 115.282 27.9628 120.173 27.9628C125.063 27.9628 127.223 31.096 127.223 35.419V48.7869C127.223 53.066 125.104 56.2432 120.173 56.2432C115.241 56.2432 113.162 53.066 113.162 48.7869ZM122.576 49.5204V34.6856C122.576 33.0159 121.842 31.8329 120.173 31.8329C118.503 31.8329 117.807 33.0159 117.807 34.6856V49.5204C117.807 51.1901 118.54 52.3731 120.173 52.3731C121.805 52.3731 122.576 51.1901 122.576 49.5204Z" fill="white"/>
<path d="M130.279 48.7869V35.419C130.279 31.0994 132.398 27.9628 137.289 27.9628C142.18 27.9628 144.326 31.096 144.326 35.419V48.7869C144.326 53.066 142.207 56.2432 137.279 56.2432C132.351 56.2432 130.279 53.066 130.279 48.7869ZM139.692 49.5204V34.6856C139.692 33.0159 138.959 31.8329 137.289 31.8329C135.619 31.8329 134.923 33.0159 134.923 34.6856V49.5204C134.923 51.1901 135.656 52.3731 137.289 52.3731C138.921 52.3731 139.692 51.1901 139.692 49.5204Z" fill="white"/>
<path d="M161.287 35.7064V48.4997C161.287 52.7382 159.536 55.9188 154.564 55.9188H147.392V28.2906H154.564C159.536 28.2906 161.287 31.434 161.287 35.7064ZM153.993 52.1264C155.909 52.1264 156.643 50.9873 156.643 49.3142V34.8512C156.643 33.2187 155.909 32.0796 153.993 32.0796H152.039V52.1264H153.993Z" fill="white"/>
<path d="M179.789 43.7339H175.307V55.9188H170.66V28.2906H175.307V39.9855H179.789V28.2906H184.474V55.9188H179.789V43.7339Z" fill="white"/>
<path d="M187.529 28.2906H198.615V32.0796H192.193V39.9855H196.797V43.7339H192.177V52.1264H198.599V55.9188H187.512L187.529 28.2906Z" fill="white"/>
<path d="M200.772 55.9188L205.991 28.2906H211.287L216.543 55.9188H211.774L210.912 50.8657H205.991L205.166 55.9188H200.772ZM206.599 47.1578H210.317L208.485 36.0714H208.445L206.599 47.1578Z" fill="white"/>
<path d="M218.865 28.2906H223.509V52.1264H229.053V55.9188H218.865V28.2906Z" fill="white"/>
<path d="M228.4 28.2906H240.747V32.0796H236.918V55.9188H232.23V32.0796H228.4V28.2906Z" fill="white"/>
<path d="M252.442 43.7339H247.96V55.9188H243.316V28.2906H247.96V39.9855H252.442V28.2906H257.127V55.9188H252.442V43.7339Z" fill="white"/>
<path d="M95.7993 96.428L101.015 68.7999H106.311L111.567 96.428H106.808L105.953 91.358H101.015L100.2 96.428H95.7993ZM101.626 87.6671H105.344L103.509 76.5841H103.469L101.626 87.6671Z" fill="white"/>
<path d="M117.803 79.0684V96.428H113.906V68.7999H118.472L123.482 84.6521V68.7999H127.355V96.428H123.262L117.803 79.0684Z" fill="white"/>
<path d="M144.289 76.219V89.0123C144.289 93.2508 142.538 96.428 137.566 96.428H130.394V68.7999H137.566C142.538 68.7999 144.289 71.9399 144.289 76.219ZM136.995 92.6391C138.911 92.6391 139.645 91.5 139.645 89.8269V75.374C139.645 73.7449 138.911 72.6058 136.995 72.6058H135.038V92.6526L136.995 92.6391Z" fill="white"/>
<path d="M162.054 79.3557L159.448 96.428H155.088L151.37 68.7999H155.852L158.012 86.3218H158.052L160.374 68.7999H164.163L166.732 86.3218H166.773L168.892 68.7999H172.802L169.216 96.428H164.822L162.091 79.3557H162.054Z" fill="white"/>
<path d="M175.216 68.7999H186.299V72.5923H179.877V80.4947H184.48V84.2465H179.863V92.6391H186.285V96.428H175.216V68.7999Z" fill="white"/>
<path d="M189.192 68.7999H193.84V92.6391H199.379V96.428H189.192V68.7999Z" fill="white"/>
<path d="M201.908 68.7999H206.552V92.6391H212.095V96.428H201.908V68.7999Z" fill="white"/>
<path d="M211.483 80.1061H218.01V83.8241H211.483V80.1061Z" fill="white"/>
<path d="M220.775 68.7999H227.498C232.142 68.7999 233.69 70.9597 233.69 74.8839V77.6961C233.69 80.0181 232.835 81.4851 230.922 82.0901C233.244 82.6174 234.383 84.1654 234.383 86.6936V90.3609C234.383 94.2716 232.632 96.4449 227.988 96.4449H220.775V68.7999ZM225.419 80.444H227.048C228.556 80.444 229.249 79.67 229.249 78.2031V74.8231C229.249 73.3156 228.573 72.5821 227.008 72.5821H225.419V80.444ZM225.419 83.9896V92.6289H227.447C228.995 92.6289 229.729 91.8549 229.729 90.388V86.2306C229.729 84.7637 229.036 83.9896 227.406 83.9896H225.419Z" fill="white"/>
<path d="M237.114 68.7999H248.197V72.5923H241.775V80.4947H246.382V84.2465H241.758V92.6391H248.18V96.428H237.114V68.7999Z" fill="white"/>
<path d="M251.09 68.7999H255.734V96.428H251.09V68.7999Z" fill="white"/>
<path d="M262.744 79.0684V96.428H258.834V68.7999H263.397L268.409 84.6521V68.7999H272.279V96.428H268.223L262.744 79.0684Z" fill="white"/>
<path d="M282.345 81.6777H288.946V96.4281H285.61V93.4131C284.998 95.4918 283.697 96.7559 281.169 96.7559C277.177 96.7559 275.342 93.5753 275.342 89.2963V75.9317C275.342 71.6121 277.42 68.4755 282.311 68.4755C287.445 68.4755 288.953 71.3282 288.953 75.4011V77.8482H284.708V75.036C284.708 73.3258 284.055 72.332 282.385 72.332C280.716 72.332 279.979 73.515 279.979 75.1848V90.0196C279.979 91.6893 280.655 92.8689 282.264 92.8689C283.771 92.8689 284.545 92.0138 284.545 90.2224V85.345H282.345V81.6777Z" fill="white"/>
</g>
<defs>
<clipPath id="clip0_5341_36923">
<rect width="338" height="338" fill="white"/>
</clipPath>
</defs>
</svg>
