<svg width="338" height="338" viewBox="0 0 338 338" fill="none" xmlns="http://www.w3.org/2000/svg">
<g clipPath="url(#clip0_5341_36919)">
<path d="M338 0H0V338H338V0Z" fill="black"/>
<path d="M61.9216 45.461C61.9216 34.9154 57.291 27.2766 45.2582 27.2766C33.0902 27.2766 28.392 33.9014 28.392 44.447V54.4856C28.392 65.6396 32.8198 71.2504 41.067 71.2504C45.9004 71.2504 48.8072 69.0534 50.4972 65.741H50.5986V80.444C50.5986 84.5676 48.9762 87.4744 44.8864 87.4744C40.7628 87.4744 39.2756 85.0746 39.2756 80.8496V76.3204H28.7638V79.937C28.7638 89.9756 32.3804 97.006 45.0554 97.006C57.122 97.006 61.9216 89.2658 61.9216 78.6188V45.461ZM50.5648 55.9052C50.362 59.7246 48.7734 62.1244 45.1568 62.1244C41.236 62.1244 39.715 59.7246 39.715 55.2968V43.433C39.715 39.1066 41.3036 36.6054 45.2244 36.6054C49.0438 36.6054 50.531 39.208 50.531 43.433V55.9052H50.5648Z" fill="white"/>
<path d="M253.466 222.167L213.278 198.981V152.573C213.278 151.593 212.771 150.68 211.892 150.207L170.352 126.209C169.507 125.736 168.459 125.736 167.614 126.209L126.074 150.207C125.229 150.714 124.688 151.593 124.688 152.573V198.947L84.5001 222.134C83.6551 222.641 83.1143 223.519 83.1143 224.5V272.462C83.1143 273.442 83.6213 274.355 84.5001 274.828L126.074 298.86C126.513 299.096 126.987 299.231 127.46 299.231C127.933 299.231 128.406 299.096 128.846 298.86L169 275.673L209.154 298.86C209.594 299.096 210.067 299.231 210.54 299.231C211.013 299.231 211.487 299.096 211.926 298.86L253.466 274.895C254.311 274.422 254.852 273.51 254.852 272.529V224.533C254.818 223.553 254.311 222.641 253.466 222.167ZM166.262 267.764L132.935 248.531L166.262 229.299V267.764ZM205.065 200.569L171.738 219.801V181.303L205.065 200.569ZM166.262 219.801L132.935 200.569L166.262 181.337V219.801ZM174.476 224.533L210.54 203.713L246.605 224.533L210.54 245.354L174.476 224.533ZM207.802 195.803L174.476 176.571L207.802 157.339V195.803ZM163.524 176.571L130.198 195.803V157.339L163.524 176.571ZM124.722 291.762L88.6575 270.941V229.265L124.722 250.12V291.762ZM130.198 291.762V253.263L163.524 272.496L130.198 291.762ZM249.343 270.941L213.278 291.762V250.12L249.343 229.299V270.941Z" fill="white"/>
<path d="M79.8018 28.8652H84.2296V55.1954H79.8018V28.8652Z" fill="white"/>
<path d="M89.9418 38.6672V55.2292H86.2238V28.8652H90.584L95.3498 43.9738V28.8652H99.034V55.1954H95.147L89.9418 38.6672Z" fill="white"/>
<path d="M114.21 35.9294V48.1312C114.21 52.1872 112.554 55.1954 107.788 55.1954H100.961V28.8652H107.822C112.554 28.8652 114.21 31.8396 114.21 35.9294ZM107.247 51.5788C109.073 51.5788 109.782 50.4972 109.782 48.9086V35.1182C109.782 33.5634 109.073 32.4818 107.247 32.4818H105.388V51.6126H107.247V51.5788Z" fill="white"/>
<path d="M129.015 28.8652V48.8072C129.015 52.897 127.257 55.5334 122.762 55.5334C118.097 55.5334 116.171 52.897 116.171 48.8072V28.8652H120.598V49.2128C120.598 50.7676 121.207 51.8154 122.762 51.8154C124.316 51.8154 124.925 50.7676 124.925 49.2128V28.8652H129.015Z" fill="white"/>
<path d="M130.738 49.517V45.968H134.862V49.5846C134.862 51.0718 135.538 51.9168 137.025 51.9168C138.411 51.9168 139.053 50.9704 139.053 49.5846V48.5706C139.053 47.0496 138.445 46.137 137.059 44.8526L134.456 42.25C131.921 39.7488 130.772 38.2616 130.772 35.2196V34.3408C130.772 31.0622 132.665 28.561 136.991 28.561C141.419 28.561 143.177 30.7242 143.177 34.5436V36.673H139.121V34.3746C139.121 32.8536 138.411 32.11 137.025 32.11C135.775 32.11 134.93 32.8198 134.93 34.2732V34.814C134.93 36.3012 135.741 37.1462 137.025 38.3968L139.864 41.2022C142.264 43.6358 143.447 45.123 143.447 48.0298V49.3142C143.447 52.9308 141.521 55.4996 136.991 55.4996C132.496 55.4996 130.738 52.9984 130.738 49.517Z" fill="white"/>
<path d="M143.718 28.8652H155.48V32.4818H151.83V55.2292H147.368V32.4818H143.718V28.8652Z" fill="white"/>
<path d="M161.395 43.1288V55.2292H156.967V28.8652H163.423C167.884 28.8652 169.507 31.096 169.507 34.7802V38.1602C169.507 40.9994 168.493 42.6556 165.958 43.264L170.183 55.2292H165.518L161.395 43.1288ZM161.395 32.4818V40.6952H162.882C164.403 40.6952 165.045 39.9178 165.045 38.532V34.645C165.045 33.1916 164.369 32.5156 162.882 32.5156H161.395V32.4818Z" fill="white"/>
<path d="M179.005 45.1906V55.2292H174.577V45.1906L169.642 28.8652H174.273L176.943 38.8362H176.977L179.647 28.8652H183.872L179.005 45.1906Z" fill="white"/>
<path d="M187.691 51.3085L185.427 57.2573H182.926L183.466 50.9705H187.658V51.3085H187.691Z" fill="white"/>
<path d="M193.133 28.8652H197.561V55.1954H193.133V28.8652Z" fill="white"/>
<path d="M203.273 38.6672V55.2292H199.555V28.8652H203.915L208.681 43.9738V28.8652H212.365V55.1954H208.478L203.273 38.6672Z" fill="white"/>
<path d="M218.044 38.6672V55.2292H214.326V28.8652H218.686L223.452 43.9738V28.8652H227.136V55.1954H223.249L218.044 38.6672Z" fill="white"/>
<path d="M229.062 48.4016V35.659C229.062 31.5354 231.09 28.561 235.755 28.561C240.453 28.561 242.481 31.5692 242.481 35.659V48.4016C242.481 52.4914 240.453 55.4996 235.755 55.4996C231.09 55.4996 229.062 52.4914 229.062 48.4016ZM238.053 49.1114V34.983C238.053 33.3944 237.343 32.279 235.755 32.279C234.2 32.279 233.49 33.3944 233.49 34.983V49.1114C233.49 50.7 234.2 51.8154 235.755 51.8154C237.343 51.8154 238.053 50.7 238.053 49.1114Z" fill="white"/>
<path d="M258.604 28.8652L253.601 55.1954H248.768L243.766 28.8652H248.261L251.303 47.2524H251.337L254.446 28.8652H258.604Z" fill="white"/>
<path d="M257.218 55.1954L262.187 28.8652H267.223L272.225 55.1954H267.696L266.885 50.362H262.187L261.409 55.1954H257.218ZM262.761 46.8468H266.31L264.553 36.2674H264.519L262.761 46.8468Z" fill="white"/>
<path d="M271.042 28.8652H282.805V32.4818H279.154V55.2292H274.693V32.4818H271.042V28.8652Z" fill="white"/>
<path d="M284.292 28.8652H288.72V55.1954H284.292V28.8652Z" fill="white"/>
<path d="M290.714 48.4016V35.659C290.714 31.5354 292.742 28.561 297.406 28.561C302.104 28.561 304.132 31.5692 304.132 35.659V48.4016C304.132 52.4914 302.104 55.4996 297.406 55.4996C292.708 55.4996 290.714 52.4914 290.714 48.4016ZM299.671 49.1114V34.983C299.671 33.3944 298.961 32.279 297.372 32.279C295.818 32.279 295.108 33.3944 295.108 34.983V49.1114C295.108 50.7 295.818 51.8154 297.372 51.8154C298.961 51.8154 299.671 50.7 299.671 49.1114Z" fill="white"/>
<path d="M309.777 38.6672V55.2292H306.059V28.8652H310.419L315.185 43.9738V28.8652H318.869V55.1954H314.982L309.777 38.6672Z" fill="white"/>
<path d="M79.0582 95.7892L84.0268 69.459H89.063L94.0654 95.7892H89.57L88.7588 90.9558H84.0606L83.2832 95.7892H79.0582ZM84.6352 87.4406H88.1842L86.4266 76.8612H86.3928L84.6352 87.4406Z" fill="white"/>
<path d="M99.4734 79.261V95.823H95.7554V69.4928H100.116L104.881 84.6014V69.4928H108.566V95.823H104.679L99.4734 79.261Z" fill="white"/>
<path d="M124.147 76.5232V88.725C124.147 92.781 122.491 95.7892 117.725 95.7892H110.898V69.459H117.725C122.491 69.459 124.147 72.4672 124.147 76.5232ZM117.185 92.2064C119.01 92.2064 119.72 91.1248 119.72 89.5362V75.712C119.72 74.1572 119.01 73.0756 117.185 73.0756H115.326V92.2064H117.185Z" fill="white"/>
<path d="M130.367 69.459H134.794V95.7892H130.367V69.459Z" fill="white"/>
<path d="M140.878 79.261V95.823H137.16V69.4928H141.521L146.286 84.6014V69.4928H149.971V95.823H146.084L140.878 79.261Z" fill="white"/>
<path d="M152.303 69.459H162.679V73.0756H156.731V80.613H161.158V84.1958H156.731V95.823H152.303V69.459Z" fill="white"/>
<path d="M168.865 83.7226V95.823H164.437V69.4928H170.893C175.354 69.4928 176.977 71.7236 176.977 75.4078V78.7878C176.977 81.627 175.963 83.2832 173.428 83.8916L177.653 95.8568H172.988L168.865 83.7226ZM168.865 73.0756V81.289H170.352C171.873 81.289 172.515 80.5116 172.515 79.1258V75.2388C172.515 73.7854 171.839 73.1094 170.352 73.1094H168.865V73.0756Z" fill="white"/>
<path d="M178.498 95.7892L183.466 69.459H188.503L193.505 95.7892H188.942L188.131 90.9558H183.433L182.655 95.7892H178.498ZM184.075 87.4406H187.59L185.832 76.8612H185.799L184.075 87.4406Z" fill="white"/>
<path d="M194.553 90.1446V86.5956H198.676V90.2122C198.676 91.6994 199.352 92.5444 200.84 92.5444C202.225 92.5444 202.868 91.598 202.868 90.2122V89.1982C202.868 87.6772 202.259 86.7646 200.873 85.4802L198.271 82.8776C195.736 80.3764 194.587 78.8892 194.587 75.8472V74.9684C194.587 71.6898 196.479 69.1886 200.806 69.1886C205.234 69.1886 206.991 71.3518 206.991 75.1712V77.3006H202.935V75.0022C202.935 73.4812 202.225 72.7376 200.84 72.7376C199.589 72.7376 198.744 73.4474 198.744 74.9008V75.4416C198.744 76.9288 199.555 77.7738 200.84 79.0244L203.679 81.8298C206.079 84.2634 207.262 85.7506 207.262 88.6574V89.9418C207.262 93.5584 205.335 96.1272 200.806 96.1272C196.31 96.1272 194.553 93.5922 194.553 90.1446Z" fill="white"/>
<path d="M208.309 69.459H220.072V73.0756H216.421V95.823H211.96V73.0756H208.309V69.459Z" fill="white"/>
<path d="M226.392 83.7226V95.823H221.965V69.4928H228.42C232.882 69.4928 234.504 71.7236 234.504 75.4078V78.7878C234.504 81.627 233.49 83.2832 230.955 83.8916L235.18 95.8568H230.516L226.392 83.7226ZM226.392 73.0756V81.289H227.88C229.401 81.289 230.043 80.5116 230.043 79.1258V75.2388C230.043 73.7854 229.367 73.1094 227.88 73.1094H226.392V73.0756Z" fill="white"/>
<path d="M249.579 69.459V89.401C249.579 93.4908 247.822 96.1272 243.326 96.1272C238.662 96.1272 236.735 93.4908 236.735 89.401V69.459H241.163V89.8066C241.163 91.3614 241.772 92.4092 243.326 92.4092C244.881 92.4092 245.49 91.3614 245.49 89.8066V69.459H249.579Z" fill="white"/>
<path d="M251.911 88.9954V76.2528C251.911 72.1292 253.838 69.1548 258.502 69.1548C263.403 69.1548 264.755 71.8588 264.755 75.7458V78.8554H260.699V75.4078C260.699 73.7854 260.159 72.839 258.57 72.839C256.981 72.839 256.305 73.9544 256.305 75.543V89.6714C256.305 91.26 256.981 92.3754 258.57 92.3754C260.159 92.3754 260.699 91.3614 260.699 89.8066V84.9394H264.755V89.5024C264.755 93.288 263.201 96.0596 258.502 96.0596C253.838 96.1272 251.911 93.0852 251.911 88.9954Z" fill="white"/>
<path d="M265.499 69.459H277.261V73.0756H273.611V95.823H269.149V73.0756H265.499V69.459Z" fill="white"/>
<path d="M291.998 69.459V89.401C291.998 93.4908 290.241 96.1272 285.745 96.1272C281.081 96.1272 279.154 93.4908 279.154 89.401V69.459H283.582V89.8066C283.582 91.3614 284.19 92.4092 285.745 92.4092C287.3 92.4092 287.908 91.3614 287.908 89.8066V69.459H291.998Z" fill="white"/>
<path d="M298.758 83.7226V95.823H294.33V69.4928H300.786C305.248 69.4928 306.87 71.7236 306.87 75.4078V78.7878C306.87 81.627 305.856 83.2832 303.321 83.8916L307.546 95.8568H302.882L298.758 83.7226ZM298.758 73.0756V81.289H300.245C301.766 81.289 302.409 80.5116 302.409 79.1258V75.2388C302.409 73.7854 301.733 73.1094 300.245 73.1094H298.758V73.0756Z" fill="white"/>
<path d="M309.101 69.459H319.68V73.0756H313.529V80.613H317.923V84.1958H313.529V92.2064H319.68V95.823H309.101V69.459Z" fill="white"/>
</g>
<defs>
<clipPath id="clip0_5341_36919">
<rect width="338" height="338" fill="white"/>
</clipPath>
</defs>
</svg>
