<svg width="338" height="338" viewBox="0 0 338 338" fill="none" xmlns="http://www.w3.org/2000/svg">
<g clipPath="url(#clip0_5341_36918)">
<path d="M338 0H0V338H338V0Z" fill="#E01A83"/>
<path d="M112.622 43.433L117.049 56.3108H122.018L117.523 43.5682C120.193 42.9598 121.274 41.1684 121.274 38.1602V34.5436C121.274 30.6228 119.551 28.2568 114.785 28.2568H107.923V56.3108H112.655V43.433H112.622ZM112.622 32.11H114.176C115.799 32.11 116.509 32.8536 116.509 34.3746V38.532C116.509 40.0192 115.799 40.8642 114.176 40.8642H112.622V32.11Z" fill="white"/>
<path d="M135.504 52.4576H128.947V43.94H133.645V40.1206H128.947V32.11H135.504V28.2568H124.249V56.3108H135.504V52.4576Z" fill="white"/>
<path d="M145.712 28.2568H138.445V56.3108H145.712C150.748 56.3108 152.539 53.066 152.539 48.7734V35.7604C152.539 31.434 150.782 28.2568 145.712 28.2568ZM147.841 49.6184C147.841 51.3084 147.098 52.4914 145.137 52.4914H143.143V32.11H145.137C147.098 32.11 147.841 33.2592 147.841 34.9154V49.6184Z" fill="white"/>
<path d="M160.381 28.2568H155.649V49.4832C155.649 53.8434 157.711 56.6488 162.679 56.6488C167.479 56.6488 169.338 53.8434 169.338 49.4832V28.2568H164.978V49.9564C164.978 51.6126 164.302 52.728 162.646 52.728C160.989 52.728 160.347 51.6126 160.347 49.9564V28.2568H160.381Z" fill="white"/>
<path d="M172.481 35.49V49.0776C172.481 53.4378 174.543 56.6488 179.512 56.6488C184.514 56.6488 186.17 53.6744 186.17 49.6522V44.8188H181.878V49.9902C181.878 51.6464 181.303 52.728 179.613 52.728C177.923 52.728 177.213 51.545 177.213 49.8212V34.7464C177.213 33.0564 177.923 31.8396 179.613 31.8396C181.303 31.8396 181.878 32.8198 181.878 34.5774V38.2616H186.17V34.9492C186.17 30.7918 184.717 27.9188 179.512 27.9188C174.543 27.9188 172.481 31.096 172.481 35.49Z" fill="white"/>
<path d="M189.145 56.3108H200.4V52.4576H193.877V43.94H198.541V40.1206H193.877V32.11H200.4V28.2568H189.145V56.3108Z" fill="white"/>
<path d="M203.341 28.2568V56.3108H210.642C215.678 56.3108 217.469 53.066 217.469 48.7734V35.7604C217.469 31.4002 215.678 28.223 210.642 28.223H203.341V28.2568ZM212.737 34.9154V49.6184C212.737 51.3084 211.994 52.4576 210.033 52.4576H208.039V32.11H210.033C211.994 32.11 212.737 33.2592 212.737 34.9154Z" fill="white"/>
<path d="M112.622 68.4113H107.89V96.4653H112.622V68.4113Z" fill="white"/>
<path d="M129.319 68.4113H125.398V84.5001L120.294 68.4113H115.664V96.4653H119.652V78.8217L125.195 96.4653H129.319V68.4113Z" fill="white"/>
<path d="M143.244 72.2645V68.4113H131.989V96.4653H143.244V92.6121H136.721V84.0945H141.385V80.2751H136.721V72.2645H143.244Z" fill="white"/>
<path d="M152.1 68.0732C147.131 68.0732 144.968 71.2504 144.968 75.6444V89.232C144.968 93.0514 146.591 95.823 150.342 96.4652V98.358L159.232 100.014V96.499L155.75 95.823C158.15 94.6738 159.232 92.274 159.232 89.1982V75.6106C159.266 71.2504 157.102 68.0732 152.1 68.0732ZM154.534 90.2122C154.534 91.8684 153.79 93.119 152.1 93.119C150.444 93.119 149.7 91.8684 149.7 90.2122V74.9008C149.7 73.2108 150.444 71.994 152.1 71.994C153.79 71.994 154.534 73.2108 154.534 74.9008V90.2122Z" fill="white"/>
<path d="M161.902 68.4113V89.6377C161.902 93.9979 163.964 96.8033 168.932 96.8033C173.732 96.8033 175.591 93.9979 175.591 89.6377V68.4113H171.231V90.1109C171.231 91.7671 170.555 92.8825 168.899 92.8825C167.242 92.8825 166.566 91.7671 166.566 90.1109V68.4113H161.902Z" fill="white"/>
<path d="M182.419 68.4113L177.112 96.4653H181.574L182.385 91.3277H187.387L188.266 96.4653H193.099L187.759 68.4113H182.419ZM183.061 87.5759L184.92 76.3205H184.954L186.813 87.5759H183.061Z" fill="white"/>
<path d="M195.06 68.4113V96.4653H205.403V92.6121H199.792V68.4113H195.06Z" fill="white"/>
<path d="M212.264 68.4113H207.532V96.4653H212.264V68.4113Z" fill="white"/>
<path d="M223.046 96.4653V72.2645H226.933V68.4113H214.393V72.2645H218.28V96.4653H223.046Z" fill="white"/>
<path d="M233.828 68.4113H229.096V96.4653H233.828V68.4113Z" fill="white"/>
<path d="M247.754 92.6121H241.231V84.0945H245.895V80.2751H241.231V72.2645H247.754V68.4113H236.499V96.4653H247.754V92.6121Z" fill="white"/>
<path d="M249.613 86.6632V90.415C249.613 94.0992 251.472 96.8032 256.272 96.8032C261.071 96.8032 263.133 94.0654 263.133 90.2122V88.8602C263.133 85.7506 261.882 84.1958 259.314 81.5594L256.305 78.585C254.953 77.2668 254.075 76.3542 254.075 74.7656V74.191C254.075 72.6024 254.987 71.8588 256.305 71.8588C257.793 71.8588 258.536 72.6362 258.536 74.2586V76.6922H262.829V74.4276C262.829 70.3716 260.97 68.0732 256.238 68.0732C251.641 68.0732 249.613 70.7772 249.613 74.2248V75.1712C249.613 78.416 250.864 80.0046 253.534 82.6748L256.305 85.4464C257.759 86.7984 258.435 87.8124 258.435 89.4348V90.5164C258.435 92.0036 257.759 93.0176 256.272 93.0176C254.649 93.0176 253.939 92.105 253.939 90.5164V86.6632H249.613Z" fill="white"/>
<path d="M32.617 44.2781V96.4991H44.0751V28.2906H34.9154L24.3698 40.6615V52.6267H24.4712L32.5156 44.2781H32.617Z" fill="white"/>
<path d="M85.9196 78.8892V45.8666C85.9196 35.1858 80.5792 27.4456 68.9182 27.4456C57.3586 27.4456 52.0182 35.1858 52.0182 45.8666V78.8892C52.0182 89.4348 57.3586 97.3102 68.9182 97.3102C80.613 97.3102 85.9196 89.4686 85.9196 78.8892ZM63.5102 80.7144V44.0752C63.5102 39.9516 65.0312 37.0448 68.952 37.0448C72.9742 37.0448 74.4952 39.9516 74.4952 44.0752V80.7144C74.4952 84.838 72.9742 87.7448 68.952 87.7448C64.9974 87.7448 63.5102 84.838 63.5102 80.7144Z" fill="white"/>
<path d="M200.197 222.235H137.803C137.431 222.235 137.127 222.573 137.127 222.979V241.738C137.127 242.177 137.431 242.515 137.803 242.515H200.197C200.569 242.515 200.873 242.177 200.873 241.738V222.979C200.873 222.607 200.569 222.235 200.197 222.235Z" fill="white"/>
<path d="M200.197 182.351H137.803C137.431 182.351 137.127 182.689 137.127 183.095V201.854C137.127 202.293 137.431 202.631 137.803 202.631H200.197C200.569 202.631 200.873 202.293 200.873 201.854V183.095C200.873 182.689 200.569 182.351 200.197 182.351Z" fill="white"/>
<path d="M199.319 153.993L169.372 124.046C169.169 123.843 168.831 123.843 168.628 124.046L138.681 153.993C138.343 154.331 138.58 154.872 139.053 154.872H198.947C199.42 154.872 199.657 154.331 199.319 153.993Z" fill="white"/>
<path d="M227.44 242.752L257.387 212.805C257.59 212.602 257.59 212.264 257.387 212.061L227.44 182.114C227.102 181.776 226.561 182.013 226.561 182.486V242.38C226.561 242.853 227.102 243.09 227.44 242.752Z" fill="white"/>
<path d="M138.681 270.873L168.628 300.82C168.831 301.023 169.169 301.023 169.372 300.82L199.319 270.873C199.657 270.535 199.42 269.994 198.947 269.994H139.053C138.58 269.994 138.343 270.535 138.681 270.873Z" fill="white"/>
<path d="M110.56 182.114L80.613 212.061C80.4102 212.264 80.4102 212.602 80.613 212.805L110.56 242.752C110.898 243.09 111.439 242.853 111.439 242.38V182.486C111.439 182.013 110.898 181.776 110.56 182.114Z" fill="white"/>
</g>
<defs>
<clipPath id="clip0_5341_36918">
<rect width="338" height="338" fill="white"/>
</clipPath>
</defs>
</svg>
