<svg width="338" height="338" viewBox="0 0 338 338" fill="none" xmlns="http://www.w3.org/2000/svg">
<g clipPath="url(#clip0_5341_36913)">
<path d="M338 0H0V338H338V0Z" fill="#1A3668"/>
<path d="M107.856 28.2906H114.751C119.449 28.2906 121.139 30.6229 121.139 34.4761V40.2897C121.139 44.1767 119.415 46.5427 114.751 46.5427H112.52V55.9053H107.856V28.2906ZM112.52 32.0763V42.9599H114.21C115.799 42.9599 116.475 42.1825 116.475 40.6615V34.3071C116.475 32.7861 115.799 32.0763 114.21 32.0763H112.52Z" fill="white"/>
<path d="M121.714 55.9391L126.919 28.2906H132.226L137.465 55.9391H132.699L131.854 50.8691H126.919L126.108 55.9391H121.714ZM127.527 47.1511H131.245L129.42 36.0647H129.386L127.527 47.1511Z" fill="white"/>
<path d="M144.461 43.2303V55.9053H139.831V28.2906H146.591C151.289 28.2906 152.979 30.6229 152.979 34.4761V38.0251C152.979 40.9995 151.931 42.7571 149.261 43.3655L153.689 55.9391H148.788L144.461 43.2303ZM144.461 32.0763V40.6953H146.016C147.605 40.6953 148.314 39.8841 148.314 38.3969V34.3071C148.314 32.7861 147.605 32.0763 146.016 32.0763H144.461Z" fill="white"/>
<path d="M154.635 28.2906H166.972V32.0763H163.153V55.9391H158.454V32.0763H154.635V28.2906Z" fill="white"/>
<path d="M173.833 38.5659V55.9391H169.913V28.2906H174.476L179.478 44.1429V28.2906H183.365V55.9391H179.275L173.833 38.5659Z" fill="white"/>
<path d="M187.184 28.2906H198.237V32.0763H191.815V39.9855H196.412V43.7372H191.815V52.1197H198.237V55.9391H187.184V28.2906Z" fill="white"/>
<path d="M205.808 43.2303V55.9053H201.178V28.2906H207.938C212.636 28.2906 214.326 30.6229 214.326 34.4761V38.0251C214.326 40.9995 213.278 42.7571 210.608 43.3655L215.036 55.9391H210.135L205.808 43.2303ZM205.808 32.0763V40.6953H207.363C208.952 40.6953 209.628 39.8841 209.628 38.3969V34.3071C209.628 32.7861 208.918 32.0763 207.363 32.0763H205.808Z" fill="white"/>
<path d="M216.624 49.9564V46.2384H220.951V50.024C220.951 51.5788 221.627 52.4576 223.215 52.4576C224.669 52.4576 225.345 51.4774 225.345 50.024V49.01C225.345 47.4214 224.702 46.4412 223.249 45.0892L220.511 42.3514C217.875 39.7488 216.624 38.1602 216.624 34.983V34.0366C216.624 30.6228 218.618 27.9526 223.148 27.9526C227.778 27.9526 229.637 30.251 229.637 34.2394V36.4702H225.412V34.0704C225.412 32.4818 224.669 31.7044 223.215 31.7044C221.897 31.7044 221.018 32.448 221.018 34.0028V34.5774C221.018 36.1322 221.863 37.011 223.215 38.3292L226.19 41.2698C228.725 43.8386 229.941 45.3934 229.941 48.4354V49.7874C229.941 53.573 227.913 56.277 223.181 56.277C218.449 56.277 216.624 53.6068 216.624 49.9564Z" fill="white"/>
<path d="M241.94 43.7372H237.445V55.9391H232.814V28.2906H237.445V39.9855H241.94V28.2906H246.605V55.9391H241.94V43.7372Z" fill="white"/>
<path d="M254.311 28.2906H249.681V55.9391H254.311V28.2906Z" fill="white"/>
<path d="M257.421 28.2906H264.316C269.014 28.2906 270.704 30.6229 270.704 34.4761V40.2897C270.704 44.1767 268.98 46.5427 264.316 46.5427H262.085V55.9053H257.421V28.2906ZM262.051 32.0763V42.9599H263.741C265.33 42.9599 266.04 42.1825 266.04 40.6615V34.3071C266.04 32.7861 265.33 32.0763 263.741 32.0763H262.051Z" fill="white"/>
<path d="M272.529 49.9564V46.2384H276.822V50.024C276.822 51.5788 277.532 52.4576 279.12 52.4576C280.574 52.4576 281.25 51.4774 281.25 50.024V49.01C281.25 47.4214 280.608 46.4412 279.188 45.0892L276.45 42.3514C273.814 39.7488 272.597 38.1602 272.597 34.983V34.0366C272.597 30.6228 274.591 27.9526 279.12 27.9526C283.785 27.9526 285.61 30.251 285.61 34.2394V36.4702H281.385V34.0704C281.385 32.4818 280.641 31.7044 279.188 31.7044C277.87 31.7044 276.991 32.448 276.991 34.0028V34.5774C276.991 36.1322 277.836 37.011 279.188 38.3292L282.162 41.2698C284.697 43.8386 285.914 45.3934 285.914 48.4354V49.7874C285.914 53.573 283.886 56.277 279.154 56.277C274.355 56.2432 272.529 53.6068 272.529 49.9564Z" fill="white"/>
<path d="M50.5648 28.3245V96.4653H39.1066V44.3119H39.0052L30.9608 52.6605H30.8932V40.6953L41.4388 28.3245H50.5648Z" fill="white"/>
<path d="M55.8038 28.3245H84.5676V38.8701L69.5604 96.4653H58.2036L73.4812 37.6871H55.8038V28.3245Z" fill="white"/>
<path d="M107.856 68.4449H118.908V72.2643H112.588V80.3087H117.286V84.1281H112.588V96.4989H107.856V68.4449Z" fill="white"/>
<path d="M120.565 89.232V75.6444C120.565 71.2504 122.728 68.0732 127.663 68.0732C132.665 68.0732 134.828 71.2504 134.828 75.6444V89.232C134.828 93.5922 132.665 96.8032 127.663 96.8032C122.728 96.8032 120.565 93.5922 120.565 89.232ZM130.13 89.9757V74.9008C130.13 73.2108 129.386 71.994 127.696 71.994C126.04 71.994 125.297 73.2108 125.297 74.9008V89.9757C125.297 91.6657 126.04 92.8824 127.696 92.8824C129.386 92.8824 130.13 91.6994 130.13 89.9757Z" fill="white"/>
<path d="M142.636 83.6211V96.4989H137.904V68.4449H144.765C149.531 68.4449 151.255 70.8109 151.255 74.7317V78.3483C151.255 81.3565 150.173 83.1479 147.503 83.7563L151.999 96.4989H147.03L142.636 83.6211ZM142.636 72.2643V80.9847H144.191C145.813 80.9847 146.523 80.1397 146.523 78.6525V74.5289C146.523 73.0079 145.813 72.2643 144.191 72.2643H142.636Z" fill="white"/>
<path d="M158.725 68.4449H171.265V72.2643H167.378V96.4989H162.612V72.2643H158.725V68.4449Z" fill="white"/>
<path d="M182.723 84.1281H178.194V96.4989H173.462V68.4449H178.194V80.3087H182.723V68.4449H187.489V96.4989H182.723V84.1281Z" fill="white"/>
<path d="M190.564 68.4449H201.82V72.2643H195.296V80.3087H199.961V84.1281H195.296V92.6457H201.82V96.4989H190.564V68.4449Z" fill="white"/>
<path d="M216.895 81.4918H223.587V96.4652H220.207V93.3894C219.599 95.5188 218.247 96.7694 215.712 96.7694C211.656 96.7694 209.797 93.5246 209.797 89.1982V75.6106C209.797 71.2166 211.892 68.0394 216.861 68.0394C222.066 68.0394 223.621 70.9462 223.621 75.0698V77.5372H219.328V74.698C219.328 72.9742 218.652 71.9602 216.962 71.9602C215.272 71.9602 214.529 73.177 214.529 74.867V89.9418C214.529 91.6318 215.238 92.8486 216.861 92.8486C218.382 92.8486 219.193 91.9698 219.193 90.1446V85.176H216.962V81.4918H216.895Z" fill="white"/>
<path d="M226.291 89.232V75.6444C226.291 71.2504 228.454 68.0732 233.389 68.0732C238.391 68.0732 240.555 71.2504 240.555 75.6444V89.232C240.555 93.5922 238.391 96.8032 233.389 96.8032C228.42 96.8032 226.291 93.5922 226.291 89.232ZM235.856 89.9757V74.9008C235.856 73.2108 235.113 71.994 233.423 71.994C231.767 71.994 231.023 73.2108 231.023 74.9008V89.9757C231.023 91.6657 231.767 92.8824 233.423 92.8824C235.079 92.8824 235.856 91.6994 235.856 89.9757Z" fill="white"/>
<path d="M241.873 96.4989L247.179 68.4449H252.554L257.894 96.4989H253.061L252.182 91.3613H247.179L246.368 96.4989H241.873ZM247.788 87.5757H251.573L249.714 76.3203H249.681L247.788 87.5757Z" fill="white"/>
<path d="M260.598 68.4449H265.296V92.6457H270.941V96.4989H260.598V68.4449Z" fill="white"/>
<path d="M272.631 90.4489V86.6971H277.025V90.5503C277.025 92.1389 277.735 93.0177 279.323 93.0177C280.81 93.0177 281.486 92.0375 281.486 90.5503V89.4687C281.486 87.8463 280.81 86.8661 279.357 85.4803L276.585 82.7087C273.881 80.0723 272.665 78.4499 272.665 75.2051V74.2587C272.665 70.7773 274.693 68.1071 279.289 68.1071C284.021 68.1071 285.88 70.4393 285.88 74.4615V76.7261H281.554V74.2925C281.554 72.6701 280.81 71.8927 279.323 71.8927C278.005 71.8927 277.092 72.6363 277.092 74.2249V74.7995C277.092 76.3881 277.971 77.2669 279.323 78.6189L282.331 81.5933C284.9 84.1959 286.151 85.7845 286.151 88.8603V90.2123C286.151 94.0655 284.089 96.8033 279.289 96.8033C274.49 96.8033 272.631 94.1331 272.631 90.4489Z" fill="white"/>
<path d="M252.925 204.997C252.925 181.269 234.031 161.868 210.506 161.023C204.456 143.92 188.131 131.651 169 131.651C149.869 131.651 133.544 143.92 127.494 161.023C103.969 161.868 85.1084 181.269 85.1084 204.997C85.1084 219.092 91.767 231.631 102.11 239.71C100.994 243.597 100.386 247.686 100.386 251.945C100.386 276.214 120.125 295.953 144.427 295.953C153.655 295.953 162.206 293.114 169.27 288.246C176.267 292.911 184.649 295.649 193.708 295.649C217.976 295.649 237.715 275.909 237.715 251.641C237.715 247.484 237.141 243.461 236.059 239.676C246.267 231.564 252.925 219.058 252.925 204.997ZM204.152 175.659C204.152 193.268 191.105 207.87 174.171 210.405C173.901 208.647 173.698 206.856 173.698 204.997C173.698 187.387 186.745 172.786 203.679 170.251C203.983 172.008 204.152 173.8 204.152 175.659ZM169.169 276.788C162.578 270.4 158.488 261.477 158.488 251.607C158.488 241.873 162.443 233.085 168.865 226.697C175.456 233.085 179.546 242.008 179.546 251.878C179.512 261.612 175.557 270.434 169.169 276.788ZM134.287 170.251C151.221 172.752 164.268 187.353 164.268 204.997C164.268 206.822 164.065 208.647 163.795 210.405C146.895 207.87 133.848 193.268 133.848 175.659C133.848 173.8 134.017 172.008 134.287 170.251ZM160.516 220.714C154.736 232.206 142.839 240.149 129.116 240.149C123.302 240.149 117.793 238.696 112.96 236.194C118.739 224.702 130.637 216.759 144.36 216.759C150.207 216.759 155.683 218.179 160.516 220.714ZM177.382 220.477C182.25 217.909 187.793 216.455 193.64 216.455C207.464 216.455 219.43 224.5 225.176 236.127C220.308 238.696 214.765 240.149 208.918 240.149C195.06 240.149 183.095 232.105 177.382 220.477ZM169 140.507C183.399 140.507 195.803 149.227 201.245 161.632C186.948 164.167 175.016 173.597 169 186.373C163.017 173.597 151.086 164.167 136.789 161.632C142.197 149.227 154.601 140.507 169 140.507ZM93.964 204.997C93.964 186.88 107.721 171.941 125.364 170.048C125.128 171.907 124.992 173.766 124.992 175.659C124.992 188.536 130.536 200.13 139.391 208.174C124.79 209.83 112.317 218.652 105.625 231.057C98.4594 224.601 93.964 215.34 93.964 204.997ZM109.208 251.911C109.208 249.41 109.478 246.977 109.985 244.611C115.765 247.416 122.255 249.005 129.116 249.005C136.822 249.005 144.056 247.01 150.376 243.529C149.869 246.165 149.599 248.869 149.599 251.641C149.599 263.539 154.365 274.321 162.037 282.264C156.832 285.306 150.782 287.097 144.36 287.097C124.959 287.063 109.208 271.279 109.208 251.911ZM228.792 251.607C228.792 270.975 213.008 286.759 193.64 286.759C187.32 286.759 181.438 285.069 176.301 282.162C183.771 274.253 188.401 263.606 188.401 251.911C188.401 249.038 188.097 246.199 187.59 243.495C193.911 247.01 201.178 249.005 208.918 249.005C215.779 249.005 222.303 247.416 228.116 244.577C228.556 246.875 228.792 249.207 228.792 251.607ZM198.913 207.938C207.6 199.893 213.041 188.401 213.041 175.692C213.041 173.8 212.906 171.907 212.67 170.082C230.279 171.974 244.07 186.914 244.07 205.031C244.07 215.34 239.608 224.567 232.51 230.989C225.885 218.551 213.481 209.661 198.913 207.938Z" fill="white"/>
</g>
<defs>
<clipPath id="clip0_5341_36913">
<rect width="338" height="338" fill="white"/>
</clipPath>
</defs>
</svg>
