<svg width="338" height="338" viewBox="0 0 338 338" fill="none" xmlns="http://www.w3.org/2000/svg">
<g clipPath="url(#clip0_5341_36915)">
<path d="M26.3302 40.9994V52.9646H26.4316L34.4422 44.616H34.5436V96.7356H46.0018V28.6624H36.8758L26.3302 40.9994Z" fill="white"/>
<path d="M86.0549 80.3764V70.3378C86.0549 59.1838 81.6271 53.573 73.4137 53.573C68.5803 53.573 65.6735 55.77 63.9835 59.0824H63.8821V44.4132C63.8821 40.2896 65.1665 37.3828 69.2901 37.3828C73.4137 37.3828 74.5967 39.7826 74.5967 44.0076V48.5368H85.0409V44.9202C85.0409 34.8816 81.7285 27.8512 69.0873 27.8512C57.0545 27.8512 52.5253 35.5914 52.5253 46.2384V79.3624C52.5253 89.908 57.1559 97.5468 69.1887 97.5468C81.3567 97.5468 86.0549 90.922 86.0549 80.3764ZM74.7319 81.3904C74.7319 85.7168 73.1095 88.218 69.2225 88.218C65.4031 88.218 63.9159 85.6154 63.9159 81.3904V68.952C64.1187 65.1326 65.7073 62.7328 69.3239 62.7328C73.2447 62.7328 74.7319 65.1326 74.7319 69.5604V81.3904Z" fill="white"/>
<path d="M236.668 115.461C236.668 115.461 232.781 120.632 233.896 125.668C235.045 130.705 240.791 133.713 240.791 133.713C240.791 133.713 244.678 128.541 243.563 123.505C242.414 118.469 236.668 115.461 236.668 115.461Z" fill="white"/>
<path d="M230.313 144.968C230.313 144.968 234.2 139.797 233.085 134.761C231.936 129.724 226.19 126.75 226.19 126.75C226.19 126.75 222.303 131.921 223.418 136.958C224.567 141.994 230.313 144.968 230.313 144.968Z" fill="white"/>
<path d="M246.301 139.459C246.301 139.459 250.424 143.616 255.089 143.177C259.753 142.771 263.235 137.938 263.235 137.938C263.235 137.938 259.145 133.78 254.447 134.22C249.782 134.625 246.301 139.459 246.301 139.459Z" fill="white"/>
<path d="M253.061 117.32C249.241 121.173 249.782 128.034 249.782 128.034C249.782 128.034 256.508 128.609 260.294 124.756C264.113 120.903 263.572 114.041 263.572 114.041C263.572 114.041 256.846 113.467 253.061 117.32Z" fill="white"/>
<path d="M244.644 154.804C249.309 155.345 253.703 151.356 253.703 151.356C253.703 151.356 250.526 146.455 245.861 145.915C241.197 145.374 236.803 149.362 236.803 149.362C236.803 149.362 239.98 154.263 244.644 154.804Z" fill="white"/>
<path d="M248.802 235.823H213.954C211.216 235.823 209.019 238.02 209.019 240.757C209.019 243.495 211.216 245.692 213.954 245.692H248.802C251.54 245.692 253.737 243.495 253.737 240.757C253.737 238.02 251.54 235.823 248.802 235.823Z" fill="white"/>
<path d="M248.802 290.173H213.954C211.216 290.173 209.019 292.37 209.019 295.108C209.019 297.846 211.216 300.043 213.954 300.043H248.802C251.54 300.043 253.737 297.846 253.737 295.108C253.737 292.404 251.54 290.173 248.802 290.173Z" fill="white"/>
<path d="M92.0375 223.857C91.2263 223.587 90.4151 223.384 89.6039 223.249C89.6377 223.249 90.5165 223.519 92.0375 223.857Z" fill="white"/>
<path d="M247.517 249.14H215.205C213.65 249.14 212.399 250.39 212.399 251.945V261.713L191.308 264.046L160.516 263.336V244.509C164.606 244.002 168.696 243.157 172.786 242.008C202.428 233.626 208.918 209.121 208.276 192.153C207.633 174.881 213.143 168.155 221.086 165.181C223.35 164.336 225.615 163.795 227.677 163.423C227.778 167.682 228.623 172.583 230.516 178.464C231.226 178.43 231.936 178.363 232.612 178.295C230.617 172.279 229.739 167.344 229.705 163.119C233.795 162.646 236.735 162.916 236.735 162.916C236.735 162.916 233.964 161.429 230.043 158.15C231.361 149.971 236.262 144.934 241.264 139.797C244.036 136.958 246.875 134.051 249.106 130.569L247.348 129.454C245.219 132.766 242.447 135.606 239.743 138.343C234.842 143.346 229.908 148.483 228.218 156.595C226.629 155.176 224.905 153.452 223.148 151.492C215.847 143.278 206.417 149.328 192.998 161.801C179.579 174.307 162.679 174.712 146.185 157.846C124.418 135.572 105.456 135.707 92.4092 136.958C101.299 140.743 104.442 149.058 108.937 170.217C113.669 192.423 125.567 202.462 141.859 203.848C132.8 207.059 132.361 212.163 120.193 220.545C110.695 227.102 97.3778 225.007 91.9698 223.79C101.907 226.899 113.669 237.31 124.181 240.926C130.299 243.022 136.755 244.34 143.38 244.847V262.863L88.1842 261.612V274.186L191.24 271.82L212.332 274.152V283.92C212.332 285.475 213.582 286.725 215.137 286.725H247.45C249.005 286.725 250.255 285.475 250.255 283.92V251.878C250.323 250.39 249.072 249.14 247.517 249.14ZM148.551 245.185C150.849 245.219 153.148 245.151 155.446 244.982V263.201L148.551 263.032V245.185Z" fill="white"/>
<path d="M85.2437 272.158C85.2437 274.794 83.3847 276.957 81.1201 276.957H78.6527C76.3881 276.957 74.5291 274.794 74.5291 272.158V263.471C74.5291 260.801 76.3881 258.671 78.6527 258.671H81.1201C83.3847 258.671 85.2437 260.801 85.2437 263.471V272.158Z" fill="white"/>
<path d="M338 0.338013H0.338013V338H338V0.338013Z" fill="#01699E"/>
<path d="M26.3302 40.9994V52.9646H26.4316L34.4422 44.616H34.5436V96.7356H46.0018V28.6624H36.8758L26.3302 40.9994Z" fill="white"/>
<path d="M86.0549 80.3764V70.3378C86.0549 59.1838 81.6271 53.573 73.4137 53.573C68.5803 53.573 65.6735 55.77 63.9835 59.0824H63.8821V44.4132C63.8821 40.2896 65.1665 37.3828 69.2901 37.3828C73.4137 37.3828 74.5967 39.7826 74.5967 44.0076V48.5368H85.0409V44.9202C85.0409 34.8816 81.7285 27.8512 69.0873 27.8512C57.0545 27.8512 52.5253 35.5914 52.5253 46.2384V79.3624C52.5253 89.908 57.1559 97.5468 69.1887 97.5468C81.3567 97.5468 86.0549 90.922 86.0549 80.3764ZM74.7319 81.3904C74.7319 85.7168 73.1095 88.218 69.2225 88.218C65.4031 88.218 63.9159 85.6154 63.9159 81.3904V68.952C64.1187 65.1326 65.7073 62.7328 69.3239 62.7328C73.2447 62.7328 74.7319 65.1326 74.7319 69.5604V81.3904Z" fill="white"/>
<path d="M236.668 115.461C236.668 115.461 232.781 120.632 233.896 125.668C235.045 130.705 240.791 133.713 240.791 133.713C240.791 133.713 244.678 128.541 243.563 123.505C242.414 118.469 236.668 115.461 236.668 115.461Z" fill="white"/>
<path d="M230.313 144.968C230.313 144.968 234.2 139.797 233.085 134.761C231.936 129.724 226.19 126.75 226.19 126.75C226.19 126.75 222.303 131.921 223.418 136.958C224.567 141.994 230.313 144.968 230.313 144.968Z" fill="white"/>
<path d="M246.301 139.459C246.301 139.459 250.424 143.616 255.089 143.177C259.753 142.771 263.235 137.938 263.235 137.938C263.235 137.938 259.145 133.78 254.447 134.22C249.782 134.625 246.301 139.459 246.301 139.459Z" fill="white"/>
<path d="M253.061 117.32C249.241 121.173 249.782 128.034 249.782 128.034C249.782 128.034 256.508 128.609 260.294 124.756C264.113 120.903 263.572 114.041 263.572 114.041C263.572 114.041 256.846 113.467 253.061 117.32Z" fill="white"/>
<path d="M244.644 154.804C249.309 155.345 253.703 151.356 253.703 151.356C253.703 151.356 250.526 146.455 245.861 145.915C241.197 145.374 236.803 149.362 236.803 149.362C236.803 149.362 239.98 154.263 244.644 154.804Z" fill="white"/>
<path d="M248.802 235.823H213.954C211.216 235.823 209.019 238.02 209.019 240.757C209.019 243.495 211.216 245.692 213.954 245.692H248.802C251.54 245.692 253.737 243.495 253.737 240.757C253.737 238.02 251.54 235.823 248.802 235.823Z" fill="white"/>
<path d="M248.802 290.173H213.954C211.216 290.173 209.019 292.37 209.019 295.108C209.019 297.846 211.216 300.043 213.954 300.043H248.802C251.54 300.043 253.737 297.846 253.737 295.108C253.737 292.404 251.54 290.173 248.802 290.173Z" fill="white"/>
<path d="M92.0375 223.857C91.2263 223.587 90.4151 223.384 89.6039 223.249C89.6377 223.249 90.5165 223.519 92.0375 223.857Z" fill="white"/>
<path d="M247.517 249.14H215.205C213.65 249.14 212.399 250.39 212.399 251.945V261.713L191.308 264.046L160.516 263.336V244.509C164.606 244.002 168.696 243.157 172.786 242.008C202.428 233.626 208.918 209.121 208.276 192.153C207.633 174.881 213.143 168.155 221.086 165.181C223.35 164.336 225.615 163.795 227.677 163.423C227.778 167.682 228.623 172.583 230.516 178.464C231.226 178.43 231.936 178.363 232.612 178.295C230.617 172.279 229.739 167.344 229.705 163.119C233.795 162.646 236.735 162.916 236.735 162.916C236.735 162.916 233.964 161.429 230.043 158.15C231.361 149.971 236.262 144.934 241.264 139.797C244.036 136.958 246.875 134.051 249.106 130.569L247.348 129.454C245.219 132.766 242.447 135.606 239.743 138.343C234.842 143.346 229.908 148.483 228.218 156.595C226.629 155.176 224.905 153.452 223.148 151.492C215.847 143.278 206.417 149.328 192.998 161.801C179.579 174.307 162.679 174.712 146.185 157.846C124.418 135.572 105.456 135.707 92.4092 136.958C101.299 140.743 104.442 149.058 108.937 170.217C113.669 192.423 125.567 202.462 141.859 203.848C132.8 207.059 132.361 212.163 120.193 220.545C110.695 227.102 97.3778 225.007 91.9698 223.79C101.907 226.899 113.669 237.31 124.181 240.926C130.299 243.022 136.755 244.34 143.38 244.847V262.863L88.1842 261.612V274.186L191.24 271.82L212.332 274.152V283.92C212.332 285.475 213.582 286.725 215.137 286.725H247.45C249.005 286.725 250.255 285.475 250.255 283.92V251.878C250.323 250.39 249.072 249.14 247.517 249.14ZM148.551 245.185C150.849 245.219 153.148 245.151 155.446 244.982V263.201L148.551 263.032V245.185Z" fill="white"/>
<path d="M85.2437 272.158C85.2437 274.794 83.3847 276.957 81.1201 276.957H78.6527C76.3881 276.957 74.5291 274.794 74.5291 272.158V263.471C74.5291 260.801 76.3881 258.671 78.6527 258.671H81.1201C83.3847 258.671 85.2437 260.801 85.2437 263.471V272.158Z" fill="white"/>
<path d="M107.923 28.6285H113.331C117.016 28.6285 118.368 30.4537 118.368 33.4957V38.0925C118.368 41.1345 117.016 42.9935 113.331 42.9935H111.574V50.3619H107.923V28.6285ZM111.574 31.6029V40.1543H112.926C114.176 40.1543 114.717 39.5459 114.717 38.3629V33.3605C114.717 32.1775 114.176 31.6029 112.926 31.6029H111.574Z" fill="white"/>
<path d="M119.99 28.6285H128.711V31.6029H123.641V37.8221H127.257V40.7627H123.641V47.3875H128.711V50.3619H119.99V28.6285Z" fill="white"/>
<path d="M130.13 50.3619L134.22 28.5947H138.377L142.501 50.3619H138.749L138.073 46.3735H134.186L133.544 50.3619H130.13ZM134.693 43.4667H137.6L136.147 34.7463H136.113L134.693 43.4667Z" fill="white"/>
<path d="M143.751 44.7512V34.2394C143.751 30.8256 145.34 28.3582 149.193 28.3582C153.249 28.3582 154.365 30.589 154.365 33.8V36.3688H151.018V33.5296C151.018 32.1776 150.579 31.4002 149.261 31.4002C147.943 31.4002 147.402 32.3466 147.402 33.631V45.292C147.402 46.6102 147.943 47.5228 149.261 47.5228C150.579 47.5228 151.018 46.6778 151.018 45.3934V41.3712H154.365V45.123C154.365 48.2326 153.08 50.531 149.193 50.531C145.374 50.6324 143.751 48.1312 143.751 44.7512Z" fill="white"/>
<path d="M156.359 28.6285H165.079V31.6029H160.009V37.8221H163.626V40.7627H160.009V47.3875H165.079V50.3619H156.359V28.6285Z" fill="white"/>
<path d="M172.279 50.3619L176.368 28.5947H180.526L184.649 50.3619H180.898L180.222 46.3735H176.335L175.692 50.3619H172.279ZM176.842 43.4667H179.748L178.295 34.7463H178.261L176.842 43.4667Z" fill="white"/>
<path d="M189.01 36.7067V50.3619H185.934V28.6285H189.517L193.471 41.1007V28.6285H196.513V50.3619H193.302L189.01 36.7067Z" fill="white"/>
<path d="M209.864 34.4421V44.5145C209.864 47.8607 208.478 50.3619 204.558 50.3619H198.913V28.6285H204.558C208.478 28.6285 209.864 31.0959 209.864 34.4421ZM204.118 47.3875C205.639 47.3875 206.214 46.4749 206.214 45.1567V33.7661C206.214 32.4817 205.639 31.5691 204.118 31.5691H202.563V47.3537H204.118V47.3875Z" fill="white"/>
<path d="M225.311 28.6285V45.4271C225.311 48.5705 223.925 50.6323 220.275 50.6323C216.489 50.6323 215.475 48.5367 215.475 45.7989V41.4725H218.956V45.8665C218.956 46.9481 219.328 47.5903 220.308 47.5903C221.289 47.5903 221.694 46.9481 221.694 45.8327V28.6285H225.311Z" fill="white"/>
<path d="M238.29 28.6285V45.0891C238.29 48.4691 236.837 50.6323 233.119 50.6323C229.265 50.6323 227.677 48.4353 227.677 45.0891V28.6285H231.327V45.4271C231.327 46.7115 231.834 47.5903 233.119 47.5903C234.403 47.5903 234.91 46.7115 234.91 45.4271V28.6285H238.29Z" fill="white"/>
<path d="M240.149 45.6976V42.7908H243.563V45.7652C243.563 46.982 244.104 47.6918 245.354 47.6918C246.504 47.6918 247.011 46.9144 247.011 45.7652V44.9202C247.011 43.6696 246.504 42.8922 245.388 41.8444L243.225 39.6812C241.129 37.6194 240.183 36.3688 240.183 33.8676V33.124C240.183 30.42 241.738 28.3582 245.321 28.3582C248.971 28.3582 250.424 30.1496 250.424 33.293V35.0506H247.078V33.1578C247.078 31.9072 246.504 31.2988 245.354 31.2988C244.34 31.2988 243.631 31.8734 243.631 33.0902V33.5296C243.631 34.7464 244.307 35.4562 245.354 36.4702L247.687 38.7686C249.681 40.7966 250.627 42.0134 250.627 44.4132V45.461C250.627 48.4354 249.039 50.5648 245.287 50.5648C241.535 50.5648 240.149 48.5368 240.149 45.6976Z" fill="white"/>
<path d="M251.573 28.6285H261.274V31.6029H258.266V50.3619H254.582V31.6029H251.573V28.6285Z" fill="white"/>
<path d="M263.234 28.6285H266.885V50.3619H263.234V28.6285Z" fill="white"/>
<path d="M269.318 44.7512V34.2394C269.318 30.8256 270.907 28.3582 274.76 28.3582C278.816 28.3582 279.932 30.589 279.932 33.8V36.3688H276.585V33.5296C276.585 32.1776 276.146 31.4002 274.828 31.4002C273.51 31.4002 272.969 32.3466 272.969 33.631V45.292C272.969 46.6102 273.51 47.5228 274.828 47.5228C276.146 47.5228 276.585 46.6778 276.585 45.3934V41.3712H279.932V45.123C279.932 48.2326 278.647 50.531 274.76 50.531C270.941 50.6324 269.318 48.1312 269.318 44.7512Z" fill="white"/>
<path d="M282.196 28.6285H290.917V31.6029H285.847V37.8221H289.463V40.7627H285.847V47.3875H290.917V50.3619H282.196V28.6285Z" fill="white"/>
<path d="M107.721 85.9872V83.0804H111.134V86.0548C111.134 87.2716 111.675 87.9814 112.926 87.9814C114.075 87.9814 114.582 87.204 114.582 86.0548V85.2098C114.582 83.9592 114.075 83.1818 112.96 82.134L110.796 79.9708C108.701 77.909 107.754 76.6584 107.754 74.1572V73.4136C107.754 70.7096 109.309 68.6478 112.892 68.6478C116.542 68.6478 117.996 70.4392 117.996 73.5826V75.3402H114.65V73.4474C114.65 72.1968 114.075 71.5884 112.926 71.5884C111.912 71.5884 111.202 72.163 111.202 73.3798V73.8192C111.202 75.036 111.878 75.7458 112.926 76.7598L115.258 79.0582C117.252 81.0862 118.199 82.303 118.199 84.7028V85.7506C118.199 88.725 116.61 90.8544 112.858 90.8544C109.174 90.922 107.721 88.8264 107.721 85.9872Z" fill="white"/>
<path d="M119.889 68.9182H129.623V71.8926H126.615V90.6516H122.931V71.8926H119.922V68.9182H119.889Z" fill="white"/>
<path d="M135.132 80.6806V90.6516H131.482V68.8844H136.822C140.507 68.8844 141.859 70.7096 141.859 73.7516V76.557C141.859 78.8892 141.014 80.275 138.952 80.7482L142.433 90.6178H138.58L135.132 80.6806ZM135.132 71.8926V78.6526H136.349C137.6 78.6526 138.141 78.0104 138.141 76.8612V73.6502C138.141 72.4672 137.6 71.8926 136.349 71.8926H135.132Z" fill="white"/>
<path d="M143.988 85.0408V74.529C143.988 71.1152 145.644 68.6478 149.497 68.6478C153.384 68.6478 155.041 71.1152 155.041 74.529V85.0408C155.041 88.4208 153.384 90.922 149.497 90.922C145.644 90.922 143.988 88.4208 143.988 85.0408ZM151.39 85.6154V73.9544C151.39 72.6362 150.816 71.7236 149.497 71.7236C148.213 71.7236 147.638 72.67 147.638 73.9544V85.6154C147.638 86.9336 148.213 87.8462 149.497 87.8462C150.816 87.88 151.39 86.9336 151.39 85.6154Z" fill="white"/>
<path d="M160.381 76.9964V90.6516H157.305V68.8844H160.888L164.843 81.3566V68.8844H167.885V90.6516H164.674L160.381 76.9964Z" fill="white"/>
<path d="M175.625 79.0582H180.83V90.6854H178.194V88.3194C177.72 89.9418 176.673 90.9558 174.712 90.9558C171.569 90.9558 170.115 88.4546 170.115 85.0746V74.5628C170.115 71.149 171.738 68.6816 175.591 68.6816C179.647 68.6816 180.83 70.9124 180.83 74.1234V76.05H177.484V73.853C177.484 72.501 176.977 71.7236 175.659 71.7236C174.34 71.7236 173.766 72.67 173.766 73.9544V85.6154C173.766 86.9336 174.307 87.8462 175.557 87.8462C176.74 87.8462 177.349 87.1702 177.349 85.7506V81.8974H175.625V79.0582Z" fill="white"/>
<path d="M186.61 68.9182H190.26V90.6854H186.61V68.9182Z" fill="white"/>
<path d="M195.634 76.9964V90.6516H192.559V68.8844H196.141L200.096 81.3566V68.8844H203.138V90.6516H199.927L195.634 76.9964Z" fill="white"/>
<path d="M205.166 85.9872V83.0804H208.58V86.0548C208.58 87.2716 209.121 87.9814 210.371 87.9814C211.52 87.9814 212.027 87.204 212.027 86.0548V85.2098C212.027 83.9592 211.52 83.1818 210.405 82.134L208.242 79.9708C206.146 77.909 205.2 76.6584 205.2 74.1572V73.4136C205.2 70.7096 206.755 68.6478 210.337 68.6478C213.988 68.6478 215.441 70.4392 215.441 73.5826V75.3402H212.095V73.4474C212.095 72.1968 211.52 71.5884 210.371 71.5884C209.357 71.5884 208.647 72.163 208.647 73.3798V73.8192C208.647 75.036 209.323 75.7458 210.371 76.7598L212.703 79.0582C214.698 81.0862 215.644 82.303 215.644 84.7028V85.7506C215.644 88.725 214.055 90.8544 210.304 90.8544C206.619 90.922 205.166 88.8264 205.166 85.9872Z" fill="white"/>
<path d="M217.334 68.9182H227.068V71.8926H224.06V90.6516H220.376V71.8926H217.334V68.9182Z" fill="white"/>
<path d="M228.927 68.9182H232.578V90.6854H228.927V68.9182Z" fill="white"/>
<path d="M234.437 68.9182H244.171V71.8926H241.163V90.6516H237.479V71.8926H234.471V68.9182H234.437Z" fill="white"/>
<path d="M256.643 68.9182V85.3788C256.643 88.7588 255.19 90.922 251.472 90.922C247.619 90.922 246.03 88.725 246.03 85.3788V68.9182H249.681V85.7168C249.681 87.0012 250.188 87.88 251.472 87.88C252.756 87.88 253.263 87.0012 253.263 85.7168V68.9182H256.643Z" fill="white"/>
<path d="M258.469 68.9182H268.203V71.8926H265.195V90.6516H261.511V71.8926H258.502V68.9182H258.469Z" fill="white"/>
<path d="M270.028 68.9182H273.678V90.6854H270.028V68.9182Z" fill="white"/>
<path d="M275.977 85.0408V74.529C275.977 71.1152 277.633 68.6478 281.486 68.6478C285.373 68.6478 287.03 71.1152 287.03 74.529V85.0408C287.03 88.4208 285.373 90.922 281.486 90.922C277.633 90.922 275.977 88.4208 275.977 85.0408ZM283.379 85.6154V73.9544C283.379 72.6362 282.805 71.7236 281.486 71.7236C280.202 71.7236 279.627 72.67 279.627 73.9544V85.6154C279.627 86.9336 280.202 87.8462 281.486 87.8462C282.805 87.88 283.379 86.9336 283.379 85.6154Z" fill="white"/>
<path d="M292.37 76.9964V90.6516H289.294V68.8844H292.877L296.832 81.3566V68.8844H299.874V90.6516H296.663L292.37 76.9964Z" fill="white"/>
<path d="M301.935 85.9872V83.0804H305.349V86.0548C305.349 87.2716 305.89 87.9814 307.141 87.9814C308.29 87.9814 308.797 87.204 308.797 86.0548V85.2098C308.797 83.9592 308.29 83.1818 307.174 82.134L305.011 79.9708C302.916 77.909 301.969 76.6584 301.969 74.1572V73.4136C301.969 70.7096 303.524 68.6478 307.107 68.6478C310.757 68.6478 312.211 70.4392 312.211 73.5826V75.3402H308.864V73.4474C308.864 72.1968 308.29 71.5884 307.141 71.5884C306.127 71.5884 305.417 72.163 305.417 73.3798V73.8192C305.417 75.036 306.093 75.7458 307.141 76.7598L309.473 79.0582C311.467 81.0862 312.413 82.303 312.413 84.7028V85.7506C312.413 88.725 310.825 90.8544 307.073 90.8544C303.355 90.922 301.935 88.8264 301.935 85.9872Z" fill="white"/>
</g>
<defs>
<clipPath id="clip0_5341_36915">
<rect width="338" height="338" fill="white"/>
</clipPath>
</defs>
</svg>
